<svg width="210" height="297" viewBox="0 0 595 842" fill="none" xmlns="http://www.w3.org/2000/svg">
<g opacity="0.27">
<path d="M261.54 173.73C262.09 173.49 262.79 173.39 263.36 173.1C263.56 173 263.65 172.66 263.39 172.56C262.49 172.24 261.4 172.49 260.63 173.1C260.75 173.1 260.87 173.1 260.99 173.14C261.19 173.2 261.3 173.48 261.09 173.61C260.79 173.8 260.33 173.91 260.11 174.19C259.82 174.56 259.97 175.02 260 175.44C260.01 175.63 259.85 175.75 259.69 175.75C259.88 176.89 260.57 177.95 261.17 178.9C261.33 179.15 261.79 178.93 261.64 178.65C261.21 177.82 260.77 176.79 260.63 175.81C260.6 175.61 260.57 175.41 260.57 175.22C260.58 174.35 260.99 173.97 261.54 173.73Z" fill="white"/>
<path d="M260 175.44C259.97 175.02 259.82 174.56 260.11 174.19C260.33 173.91 260.79 173.8 261.09 173.61C261.3 173.48 261.19 173.19 260.99 173.14C260.86 173.1 260.74 173.1 260.63 173.1C260.52 173.1 260.41 173.11 260.31 173.13C260.37 173.2 260.41 173.28 260.42 173.41C260.43 173.5 260.39 173.58 260.34 173.64C260.34 173.85 260.22 174.05 259.99 174.04C259.95 174.04 259.92 174.04 259.89 174.03C259.73 174.01 259.72 174.03 259.71 174.19C259.69 174.45 259.4 174.51 259.21 174.4C259.14 174.82 259.2 175.27 259.46 175.64C259.52 175.73 259.61 175.75 259.7 175.75C259.85 175.74 260.01 175.63 260 175.44Z" fill="white"/>
<path d="M259.69 174.2C259.7 174.04 259.71 174.03 259.81 174.04C259.91 174.05 259.94 174.05 259.98 174.05C260.21 174.06 260.33 173.85 260.33 173.65C260.39 173.58 260.42 173.51 260.41 173.42C260.4 173.29 260.35 173.21 260.3 173.14C260.01 172.8 259.25 173.2 258.93 173.29C258.72 173.35 258.67 173.5 258.68 173.66C258.69 173.86 258.82 174.03 259.03 174.07C259.04 174.13 259.03 174.19 259.05 174.26C259.08 174.33 259.13 174.38 259.18 174.41C259.38 174.51 259.68 174.46 259.69 174.2Z" fill="white"/>
<path d="M337.41 192.48C337.03 192.95 336.63 193.4 336.3 193.91C336.15 194.14 336.38 194.41 336.63 194.27C337.54 193.76 338.47 192.93 338.9 191.93C338.79 191.84 338.72 191.68 338.78 191.54C338.84 191.42 338.91 191.33 338.99 191.25C338.74 191.03 338.81 190.69 339.08 190.57C338.87 189.81 338.17 189.26 337.28 189.24C337.11 189.24 336.98 189.49 337.1 189.62C337.56 190.12 338.05 190.48 338.13 190.99C338.17 191.23 338.12 191.5 337.92 191.85C337.76 192.06 337.58 192.27 337.41 192.48Z" fill="white"/>
<path d="M338.95 191.5C339.01 191.44 339.08 191.4 339.15 191.37C339.12 191.35 339.08 191.34 339.05 191.32C339.02 191.3 339.01 191.27 338.99 191.25C338.91 191.34 338.84 191.42 338.78 191.54C338.71 191.68 338.78 191.84 338.9 191.93C339 192.01 339.13 192.04 339.25 191.93C339.3 191.89 339.34 191.88 339.39 191.85C339.3 191.83 339.22 191.82 339.19 191.84C338.97 192 338.75 191.67 338.95 191.5Z" fill="white"/>
<path d="M338.99 191.24C339.01 191.26 339.02 191.29 339.05 191.31C339.08 191.33 339.12 191.34 339.15 191.36C339.08 191.4 339.01 191.44 338.95 191.49C338.76 191.66 338.97 191.99 339.19 191.83C339.22 191.81 339.3 191.82 339.39 191.84C339.57 191.88 339.8 191.96 339.88 191.98C340.05 192.02 340.19 191.91 340.27 191.78C340.28 191.76 340.37 191.62 340.4 191.57C340.42 191.53 340.42 191.48 340.42 191.42C340.53 191.32 340.57 191.16 340.47 191.01C340.18 190.6 339.81 190.52 339.33 190.49C339.24 190.48 339.16 190.52 339.09 190.55C338.8 190.68 338.74 191.02 338.99 191.24Z" fill="white"/>
<path d="M338.72 74.7101C341.93 73.6001 339.61 68.6601 336.57 70.5301C336.5 70.5701 336.43 70.6201 336.35 70.6601C336.14 70.7501 335.95 70.8701 335.8 71.0201C334.61 71.8501 334.71 72.9901 335.35 73.8701C335.66 74.5901 336.29 75.1201 337.22 75.0901C337.76 75.1801 338.29 75.0801 338.72 74.7101Z" fill="white"/>
<path d="M335.85 24.5401C336.34 25.9001 338.3 26.7301 339.5 25.6901C340.19 25.0901 340.83 24.5501 341.01 23.6001C341.22 22.4701 340.52 21.3101 339.51 20.8401C338.52 20.3701 337.55 20.8201 337.05 21.6501C336.02 22.2001 335.4 23.3101 335.85 24.5401ZM336.74 22.5501C336.72 22.7001 336.69 22.8401 336.7 22.9901C336.72 23.4301 336.57 23.0101 336.74 22.5501Z" fill="#6B93B4"/>
<path opacity="0.53" d="M447.39 403.15C447.88 404.51 449.84 405.34 451.04 404.3C451.73 403.7 452.37 403.16 452.55 402.21C452.76 401.08 452.06 399.92 451.05 399.45C450.06 398.98 449.09 399.43 448.59 400.26C447.56 400.8 446.95 401.91 447.39 403.15ZM448.29 401.15C448.27 401.3 448.24 401.44 448.25 401.59C448.27 402.04 448.12 401.61 448.29 401.15Z" fill="#366495"/>
<path d="M25.96 777.53C26.98 777.59 27.75 777.67 28.72 777.27C30.09 776.7 31.11 775.62 31.39 774.13C31.67 772.62 31.08 771.45 30.13 770.38C30.2 770.47 30.27 770.55 30.36 770.66C28.44 768.26 24.8 768.14 23.08 770.85C22.34 772.01 22.14 773.38 22.62 774.69C23.1 776 24.47 777.44 25.96 777.53Z" fill="#D9B175"/>
<path d="M331.24 48.7501C331.3 48.8101 331.35 48.8701 331.4 48.9301C330.7 48.0701 330.96 48.4501 331.24 48.7501Z" fill="white"/>
<path d="M342.6 72.71C342.15 70.07 337.97 70.37 338.43 73.03C338.88 75.66 343.06 75.36 342.6 72.71Z" fill="#1B385F"/>
<path d="M310.84 81.99C309.83 81.79 308.9 82.36 308.43 83.23C308.24 83.59 308.2 84 308.1 84.39C307.52 86.6 310.18 88.23 312.02 87.28C313.93 86.29 313.96 83.36 311.94 82.43C311.88 82.4 311.75 82.31 311.69 82.32C312.16 82.63 312.1 82.59 311.49 82.2C311.28 82.09 311.06 82.03 310.84 81.99Z" fill="#1B385F"/>
<path d="M95.74 443.13C95.97 444.13 96.89 444.92 97.96 444.81C98.42 444.76 98.87 444.66 99.31 444.53C101.64 443.88 100.75 440.29 98.44 440.45C97.98 440.48 97.54 440.58 97.08 440.69C96.07 440.94 95.52 442.19 95.74 443.13Z" fill="white"/>
<path opacity="0.53" d="M530.86 447.46C531.32 449.6 533.43 450.78 535.54 450.56C537.94 450.31 539.63 448.12 539.12 445.73C538.58 443.2 536.22 442.22 533.88 442.79C531.84 443.28 530.42 445.4 530.86 447.46Z" fill="#D9B175"/>
<path d="M384.66 174.99C383.84 175.18 383.21 175.73 382.95 176.53C382.64 177.49 382.99 178.31 383.65 179.01C383.84 179.21 384.03 179.41 384.23 179.6C385.03 180.39 386.42 179.94 386.87 179.02C387 178.75 387.12 178.49 387.24 178.22C387.99 176.54 386.51 174.56 384.66 174.99Z" fill="#546F84"/>
<path d="M511.83 96.1801C511.06 95.5401 509.85 95.1001 508.84 95.2201C506.77 95.4701 504.61 97.4001 505 99.6901C505.19 100.82 505.57 101.81 506.48 102.57C507.25 103.21 508.46 103.65 509.47 103.53C511.54 103.28 513.7 101.35 513.31 99.0601C513.12 97.9301 512.74 96.9401 511.83 96.1801Z" fill="#D9B175"/>
<path d="M476.92 115.81C477.28 117.92 480.62 117.68 480.26 115.56C479.89 113.44 476.55 113.68 476.92 115.81Z" fill="#366495"/>
<path d="M499.82 77.8901C500.21 80.1701 503.83 79.9101 503.43 77.6101C503.04 75.3301 499.42 75.5901 499.82 77.8901Z" fill="white"/>
<path d="M495.96 119.39C495.66 117.65 492.9 117.85 493.2 119.6C493.5 121.34 496.26 121.14 495.96 119.39Z" fill="#366495"/>
<path d="M581.28 93.88C580.65 90.22 574.84 90.63 575.48 94.32C576.11 97.99 581.92 97.57 581.28 93.88Z" fill="#366495"/>
<path d="M114.18 166.32C115.67 166 116.65 164.39 116.09 162.91C115.88 162.35 115.68 161.8 115.28 161.35C114.72 160.72 113.82 160.4 112.99 160.59C112.25 160.76 111.61 161.25 111.28 161.95C110.99 162.57 111.04 163.31 111.03 163.99C111.01 165.58 112.79 166.62 114.18 166.32Z" fill="#376295"/>
<path d="M545.94 174.31C546.23 175.08 546.63 175.66 547.21 176.25C548.29 177.35 550.25 176.71 550.85 175.45C551.2 174.7 551.28 173.99 551.29 173.17C551.31 171.49 549.45 170.39 547.97 170.71C546.38 171.04 545.36 172.74 545.94 174.31Z" fill="#366495"/>
<path d="M536.9 124.03C537.39 126.87 541.88 126.54 541.39 123.69C540.91 120.86 536.41 121.18 536.9 124.03Z" fill="white"/>
<path opacity="0.53" d="M381.94 436.99C381.73 437.05 381.52 437.11 381.31 437.17C377.36 438.32 378.87 444.31 382.79 444.08C383.01 444.07 383.23 444.05 383.45 444.04C388.61 443.76 387.2 435.45 381.94 436.99Z" fill="#366495"/>
<path d="M472.65 779.78C472.6 779.75 472.5 779.78 472.51 779.85C472.53 780.36 472.54 780.87 472.53 781.39C472.52 781.81 472.48 782.26 472.57 782.68C472.1 783 471.58 783.22 471.08 783.49C470.75 783.67 470.31 783.87 470.09 784.21C470.01 784.21 469.96 784.33 470.05 784.38C470.92 784.87 471.9 785.15 472.84 785.43C473.04 786.42 473.2 787.46 473.57 788.4C473.57 788.41 473.56 788.41 473.56 788.42C473.53 788.48 473.61 788.55 473.66 788.5C474.27 787.74 475 786.94 475.42 786.05C475.88 786.18 476.39 786.18 476.86 786.22C477.4 786.26 477.95 786.3 478.5 786.28C478.58 786.28 478.59 786.19 478.54 786.15C478.3 785.66 477.92 785.25 477.59 784.81C477.33 784.45 477.06 784.1 476.75 783.79C477.15 783.11 477.52 782.4 477.84 781.68C477.87 781.64 477.89 781.59 477.9 781.53C477.96 781.39 478.02 781.25 478.08 781.1C478.12 781 477.98 780.95 477.92 781.02C477.83 781.01 477.74 781.01 477.65 781.01C477.6 781 477.55 781 477.51 781.03C476.7 781.11 475.89 781.51 475.11 781.65C475.1 781.65 475.09 781.66 475.08 781.66C474.44 780.95 473.51 780.34 472.72 779.81C472.69 779.78 472.67 779.78 472.65 779.78Z" fill="#8ABEBB"/>
<path d="M154.82 768.85C154.77 768.82 154.67 768.85 154.68 768.92C154.7 769.43 154.71 769.94 154.7 770.46C154.69 770.88 154.65 771.33 154.74 771.75C154.27 772.07 153.75 772.29 153.25 772.56C152.92 772.74 152.48 772.94 152.26 773.28C152.18 773.28 152.13 773.4 152.22 773.45C153.09 773.94 154.07 774.22 155.01 774.5C155.21 775.49 155.37 776.53 155.74 777.47C155.74 777.48 155.73 777.48 155.73 777.49C155.7 777.55 155.78 777.62 155.83 777.57C156.44 776.81 157.17 776.01 157.59 775.12C158.05 775.25 158.56 775.25 159.03 775.29C159.57 775.33 160.12 775.37 160.67 775.35C160.75 775.35 160.76 775.26 160.71 775.22C160.47 774.73 160.09 774.32 159.76 773.88C159.5 773.52 159.23 773.17 158.92 772.86C159.32 772.18 159.69 771.47 160.01 770.75C160.04 770.71 160.06 770.66 160.07 770.6C160.13 770.46 160.19 770.32 160.25 770.17C160.29 770.07 160.15 770.02 160.09 770.09C160 770.08 159.91 770.08 159.82 770.08C159.77 770.07 159.72 770.07 159.68 770.1C158.87 770.18 158.06 770.58 157.28 770.72C157.27 770.72 157.26 770.73 157.25 770.73C156.61 770.02 155.68 769.41 154.89 768.88C154.86 768.85 154.84 768.85 154.82 768.85Z" fill="#8ABEBB"/>
<path d="M98.61 817.86C98.56 817.83 98.46 817.86 98.47 817.93C98.49 818.44 98.5 818.95 98.49 819.47C98.48 819.89 98.44 820.34 98.53 820.76C98.06 821.08 97.54 821.3 97.04 821.57C96.71 821.75 96.27 821.95 96.05 822.29C95.97 822.29 95.92 822.41 96.01 822.46C96.88 822.95 97.86 823.23 98.8 823.51C99 824.5 99.16 825.54 99.53 826.48C99.53 826.49 99.52 826.49 99.52 826.5C99.49 826.56 99.57 826.63 99.62 826.58C100.23 825.82 100.96 825.02 101.38 824.13C101.84 824.26 102.35 824.26 102.82 824.3C103.36 824.34 103.91 824.38 104.46 824.36C104.54 824.36 104.55 824.27 104.5 824.23C104.26 823.74 103.88 823.33 103.55 822.89C103.29 822.53 103.02 822.18 102.71 821.87C103.11 821.19 103.48 820.48 103.8 819.76C103.83 819.72 103.85 819.67 103.86 819.61C103.92 819.47 103.98 819.33 104.04 819.18C104.08 819.08 103.94 819.03 103.88 819.1C103.79 819.09 103.7 819.09 103.61 819.09C103.56 819.08 103.51 819.08 103.47 819.11C102.66 819.19 101.85 819.59 101.07 819.73C101.06 819.73 101.05 819.74 101.04 819.74C100.4 819.03 99.47 818.42 98.68 817.89C98.65 817.86 98.63 817.86 98.61 817.86Z" fill="#8ABEBB"/>
<path d="M543.24 809.93C543.21 809.91 543.15 809.93 543.16 809.97C543.17 810.27 543.18 810.57 543.17 810.88C543.16 811.13 543.14 811.4 543.2 811.64C542.92 811.83 542.61 811.96 542.32 812.12C542.12 812.22 541.86 812.35 541.73 812.54C541.68 812.54 541.65 812.61 541.7 812.64C542.21 812.93 542.8 813.09 543.35 813.26C543.47 813.84 543.56 814.46 543.79 815.02L543.78 815.03C543.76 815.06 543.81 815.11 543.84 815.07C544.2 814.62 544.64 814.15 544.88 813.62C545.15 813.69 545.45 813.7 545.73 813.72C546.05 813.74 546.38 813.77 546.7 813.75C546.75 813.75 546.75 813.7 546.72 813.67C546.58 813.38 546.35 813.14 546.16 812.88C546 812.67 545.85 812.46 545.66 812.27C545.9 811.86 546.11 811.45 546.3 811.02C546.32 810.99 546.33 810.96 546.34 810.93C546.38 810.85 546.41 810.76 546.45 810.68C546.47 810.62 546.39 810.59 546.36 810.63C546.31 810.63 546.25 810.62 546.2 810.63C546.17 810.62 546.14 810.63 546.12 810.64C545.64 810.69 545.16 810.93 544.7 811.01C544.69 811.01 544.69 811.01 544.68 811.02C544.3 810.6 543.75 810.24 543.29 809.92C543.26 809.93 543.25 809.93 543.24 809.93Z" fill="#D87299"/>
<path opacity="0.53" d="M73.34 663.34C73.43 663.92 73.04 666.26 73.48 666.74C73.47 666.86 73.62 666.97 73.72 666.86C74.84 665.57 75.93 662.4 76.72 660.89C77.62 660.93 78.51 661.03 79.41 661.15C80.24 661.26 81.14 661.41 81.97 661.26C82.08 661.36 82.2 661.24 82.13 661.14C81.15 659.89 80.4 658.17 79.14 657.17C79.86 656.17 80.42 654.94 81.07 653.9C81.68 652.93 82.42 651.9 82.69 650.77C82.72 650.64 82.55 650.58 82.49 650.68C81.23 651.07 80.02 651.76 78.84 652.33C77.73 652.87 76.56 653.36 75.51 654.02C74.09 652.72 72.62 651.41 71.03 650.33C70.89 650.24 70.76 650.42 70.84 650.54C70.64 651.29 70.92 652.28 71.07 652.99C71.29 654.08 71.64 655.21 71.62 656.33C70.9 656.78 70.24 657.43 69.6 657.94C68.82 658.57 68.01 659.19 67.29 659.9C67.26 659.93 67.24 659.97 67.24 660C67.18 660.07 67.18 660.2 67.3 660.23C68.21 660.41 69.23 660.34 70.15 660.37C70.98 660.4 71.97 660.57 72.82 660.47C73.14 661.38 73.19 662.38 73.34 663.34Z" fill="#376295"/>
<path d="M102.71 588.13C101.18 587.15 99.67 586.19 98.2 585.13C97.01 584.27 95.75 583.24 94.36 582.69C94.38 580.68 94.75 578.72 94.98 576.73C95.14 575.4 95.39 573.72 94.87 572.41C95.02 572.17 94.78 571.79 94.47 571.94C91.3 573.49 88.54 575.81 85.85 577.99C82.57 576.62 79.21 574.98 75.73 574.21C75.72 574.18 75.71 574.16 75.69 574.13C75.59 573.91 75.2 574.02 75.27 574.26C76.27 577.55 77.13 581.28 78.9 584.27C77.62 585.35 76.59 586.82 75.55 588.12C74.35 589.62 73.15 591.15 72.12 592.77C71.97 593.01 72.22 593.21 72.42 593.13C74.32 593.42 76.29 593.11 78.21 593.03C79.77 592.97 81.32 592.9 82.87 592.63C84.07 595.15 85.39 597.63 86.86 600.01C86.92 600.18 87.03 600.34 87.16 600.49C87.45 600.95 87.74 601.42 88.04 601.87C88.25 602.18 88.66 601.89 88.6 601.57C88.8 601.32 88.99 601.06 89.16 600.79C89.29 600.67 89.38 600.51 89.4 600.34C90.77 597.83 91.21 594.66 92.36 592.11C92.38 592.07 92.38 592.04 92.38 592C95.72 591.55 99.37 590.05 102.47 588.82C102.55 588.79 102.6 588.73 102.63 588.67C102.85 588.61 102.94 588.28 102.71 588.13ZM91.94 591.68C91.88 591.71 91.85 591.76 91.84 591.81C91.81 591.84 91.79 591.86 91.77 591.9C91.05 593.49 90.55 595.15 90.01 596.82C89.67 597.89 89.24 598.9 88.8 599.92C88.7 599.99 88.61 600.07 88.5 600.13C88.35 600.21 88.28 600.18 88.12 600.09C87.87 599.95 87.63 599.7 87.36 599.58C85.92 597.21 84.67 594.74 83.36 592.3C83.38 592.07 83.22 591.82 82.93 591.87C79.62 592.48 76.2 592.33 72.86 592.68C73.9 591.4 74.9 590.08 75.94 588.8C77.07 587.41 78.46 586.06 79.37 584.51C79.49 584.45 79.57 584.31 79.49 584.15C78.23 581.67 77.56 578.98 76.62 576.4C76.67 576.22 76.67 576.02 76.64 575.82C76.71 575.74 76.75 575.63 76.73 575.52C76.72 575.47 76.72 575.43 76.73 575.39C76.91 575.37 77.08 575.33 77.25 575.29C80.04 576.35 82.78 577.52 85.59 578.52C85.65 578.62 85.76 578.68 85.89 578.63C85.91 578.64 85.93 578.65 85.95 578.65C86.17 578.73 86.32 578.54 86.31 578.37C88.47 577.01 90.35 575.29 92.46 573.87C92.86 573.7 93.39 573.53 93.73 573.61C94.17 573.71 94.14 574.26 94.38 574.59C94.28 577.27 93.49 579.9 93.64 582.61C93.61 582.66 93.62 582.72 93.64 582.78C93.64 582.81 93.64 582.84 93.64 582.87C93.66 583.09 93.87 583.17 94.06 583.14C95.4 584.17 96.91 585.05 98.27 586.05C99.38 586.86 100.51 587.72 101.74 588.37C98.55 589.45 94.91 590.13 91.94 591.68ZM78.5 591.48C77.27 591.03 75.79 591.32 74.55 591.6C74.27 591.66 74.35 592.05 74.63 592.03C75.9 591.95 77.15 591.94 78.41 591.9C78.63 591.89 78.75 591.57 78.5 591.48ZM80.32 591.24C80.09 591.22 79.91 591.19 79.71 591.09C79.43 590.95 79.19 591.41 79.46 591.57C79.78 591.76 80.06 591.85 80.4 591.69C80.61 591.58 80.55 591.26 80.32 591.24ZM92.75 590C91.2 590.16 90.54 592.52 89.83 593.62C89.71 593.81 89.98 594 90.12 593.82C91 592.64 91.41 590.94 92.85 590.3C93.01 590.23 92.92 589.99 92.75 590Z" fill="#E5E6BF"/>
<path d="M424.59 58.1201C424.49 58.1101 424.39 58.1001 424.29 58.0901C428.71 59.1001 433.04 59.8701 437.34 61.4001C437.43 61.3301 437.51 61.2501 437.6 61.1801C433.64 59.1901 428.7 58.3201 424.29 57.7501C424.41 57.7901 424.54 57.8201 424.65 57.8701C424.78 57.9201 424.73 58.1301 424.59 58.1201Z" fill="#D7AE70"/>
<path d="M431.29 74.7802C431.32 74.8402 431.35 74.9102 431.38 74.9702C434.01 76.8102 436.73 78.5101 439.5 80.1301C442.87 82.1002 446.32 83.9402 449.77 85.7602C453.11 87.5202 456.64 88.5802 460.16 89.9102C460.3 89.9602 460.37 89.7602 460.24 89.6902C456.65 88.0002 452.87 86.9702 449.33 85.1002C446.1 83.3902 442.88 81.6602 439.72 79.8202C433.61 76.2602 427.85 72.2202 422.59 67.5102C422.55 67.5802 422.45 67.6102 422.36 67.5602C422.21 67.4802 422.06 67.3802 421.91 67.2802C424.76 70.0102 427.83 72.4702 431.04 74.7402C431.11 74.6702 431.24 74.6802 431.29 74.7802Z" fill="#D7AE70"/>
<path d="M462.6 90.8401C467.85 92.8501 485.86 97.8901 483.78 90.5501C483.75 90.4401 483.64 90.4101 483.57 90.4401C483.65 90.7801 483.72 91.1101 483.77 91.4501C483.8 91.6201 483.56 91.6501 483.52 91.4901C483.5 91.4301 483.49 91.3801 483.48 91.3201C482.79 97.7201 465.07 91.5001 461.62 90.0801C461.44 90.0001 461.35 90.2801 461.52 90.3601C461.67 90.4301 461.87 90.5201 462.11 90.6201C462.13 90.6001 462.16 90.5801 462.18 90.5601C462.37 90.3801 462.63 90.6201 462.6 90.8401Z" fill="#D7AE70"/>
<path d="M482.66 88.2401C479.38 84.0401 474.72 81.1301 470.68 77.7301C470.56 77.6301 470.43 77.8301 470.54 77.9301C474.65 81.5801 479.1 84.5701 482.7 88.7901C482.72 88.8101 482.74 88.8301 482.77 88.8401C482.71 88.7001 482.66 88.5601 482.59 88.4101C482.55 88.3201 482.6 88.2601 482.66 88.2401Z" fill="#D7AE70"/>
<path d="M466.13 86.8202C462.98 86.2802 460.03 85.0301 456.93 84.2401C456.8 84.2101 456.72 84.4002 456.85 84.4402C459.76 85.3602 462.68 86.4401 465.67 87.0601C467.3 87.3901 469.38 87.7302 471 87.2202C474.76 86.0402 471.31 82.4002 469.69 80.9802C469.59 80.8902 469.43 81.0602 469.53 81.1602C470.68 82.3502 473.84 84.7002 471.73 86.5102C470.71 87.3902 468.85 87.1301 467.65 87.0201C467.17 86.9801 466.69 86.9101 466.22 86.8401C466.2 86.8401 466.17 86.8302 466.13 86.8202Z" fill="#D7AE70"/>
<path d="M451.77 82.1201C451.99 82.3001 452.32 82.3801 452.58 82.4601C452.71 82.5001 452.78 82.3101 452.65 82.2601C452.4 82.1801 452.09 82.1201 451.89 81.9401C451.79 81.8701 451.67 82.0401 451.77 82.1201Z" fill="#D7AE70"/>
<path d="M432.06 70.6001C432.74 71.1501 433.44 71.6601 434.14 72.1801C437.41 74.5701 440.82 76.8301 444.33 78.8501C444.47 78.9301 444.62 78.7301 444.48 78.6401C440.41 75.9401 436.04 73.5401 432.31 70.3501C432.29 70.4001 432.27 70.4601 432.26 70.5101C432.23 70.6201 432.14 70.6301 432.06 70.6001Z" fill="#D7AE70"/>
<path d="M432 70.1001C431.93 70.0401 431.86 69.9901 431.8 69.9301C430.46 68.7401 426.67 65.2201 429.32 63.5801C430.84 62.6401 433.34 63.5001 435.15 63.5401C435.24 63.4301 435.34 63.3301 435.43 63.2201C433.43 63.1801 430.52 62.1101 428.77 63.4501C427.43 64.4701 428.12 66.1301 428.88 67.2801C429.72 68.5501 430.81 69.6001 431.98 70.5501C431.96 70.5201 431.95 70.4901 431.95 70.4601C431.97 70.3301 431.99 70.2201 432 70.1001Z" fill="#D7AE70"/>
<path d="M451.24 81.9301C449.43 80.9601 447.47 80.1001 445.58 79.2801C445.44 79.2201 445.31 79.4501 445.45 79.5201C447.22 80.4901 449.16 81.6101 451.11 82.1701C451.25 82.2201 451.39 82.0101 451.24 81.9301Z" fill="#D7AE70"/>
<path d="M453.36 83.2801C453.68 83.4001 453.99 83.5401 454.3 83.6601C454.59 83.7701 454.88 83.9201 455.19 83.9401C455.32 83.9501 455.4 83.7701 455.28 83.6901C455.02 83.5201 454.71 83.4401 454.42 83.3301C454.1 83.2101 453.78 83.1101 453.45 83.0101C453.29 82.9601 453.19 83.2101 453.36 83.2801Z" fill="#D7AE70"/>
<path d="M435.43 63.2101C435.33 63.3201 435.24 63.4201 435.15 63.5301C433.49 65.4601 432.32 67.6901 432 70.0901C431.98 70.2101 431.97 70.3201 431.95 70.4401C431.95 70.4801 431.96 70.5101 431.98 70.5301C432 70.5601 432.03 70.5801 432.06 70.5901C432.14 70.6201 432.23 70.6001 432.26 70.5001C432.28 70.4501 432.3 70.3901 432.31 70.3401C433.43 66.8201 435.06 64.0001 437.98 61.6201C440.88 59.2601 444.21 57.9701 447.74 56.8901C447.68 56.8901 447.63 56.8901 447.57 56.8901C447.43 56.9001 447.36 56.7501 447.43 56.6501C444.16 57.1601 440.52 58.7801 437.58 61.1601C437.49 61.2301 437.41 61.3001 437.32 61.3801C436.65 61.9701 436.02 62.5701 435.43 63.2101Z" fill="#52BA60"/>
<path d="M447.58 56.9101C447.64 56.9101 447.69 56.9101 447.75 56.9101C448.38 56.9001 448.95 57.0101 449.58 57.0801C450.05 57.1401 450.57 57.1701 450.97 56.8901C450.8 56.8901 450.63 56.8801 450.46 56.8801C450.29 56.8801 450.3 56.6301 450.45 56.5901C450.49 56.5801 450.53 56.5801 450.57 56.5701C450.05 56.5801 449.56 56.6001 449.02 56.5201C448.5 56.4501 447.98 56.3701 447.5 56.6201C447.48 56.6301 447.47 56.6501 447.45 56.6701C447.37 56.7701 447.44 56.9201 447.58 56.9101Z" fill="#52BA60"/>
<path d="M450.45 56.8701C450.62 56.8701 450.79 56.8801 450.96 56.8801C453.54 56.9401 455.91 57.3601 458.28 58.4901C460.39 59.4901 462.06 60.9001 463.9 62.2501C463.95 62.1201 464.17 62.0701 464.23 62.2301C464.26 62.3201 464.31 62.4001 464.35 62.4801C464.46 62.4401 464.52 62.2901 464.43 62.1801C461.55 58.6001 455.16 55.6701 450.55 56.5601C450.51 56.5701 450.47 56.5701 450.43 56.5801C450.29 56.6201 450.28 56.8701 450.45 56.8701Z" fill="#52BA60"/>
<path d="M463.91 62.2601C463.9 62.2901 463.89 62.3201 463.9 62.3501C464.05 63.1301 464.62 63.6401 465.19 64.1501C465.58 64.4901 465.98 64.8201 466.33 65.2001C466.64 65.5401 466.85 65.9401 467.09 66.3101C467.14 66.2901 467.2 66.2901 467.24 66.3401C467.3 66.4101 467.36 66.4901 467.41 66.5701C467.47 66.5501 467.52 66.5101 467.52 66.4401C467.47 64.6601 465.15 63.9201 464.36 62.4801C464.32 62.4001 464.27 62.3201 464.24 62.2301C464.18 62.0801 463.96 62.1201 463.91 62.2601Z" fill="#52BA60"/>
<path d="M467.1 66.3101C467.04 66.3401 466.99 66.4101 467.02 66.4901C468.37 69.8401 469.61 72.8401 469.54 76.5501C469.47 80.3201 468.22 83.4601 466.03 86.4701C465.94 86.6001 466.02 86.7601 466.13 86.8201C466.16 86.8401 466.2 86.8401 466.24 86.8401C466.28 86.8401 466.33 86.8201 466.37 86.7801C468.98 84.1701 470.01 80.1901 470.04 76.5901C470.06 73.3401 469.46 69.2601 467.43 66.5701C467.37 66.4901 467.32 66.4101 467.26 66.3401C467.2 66.2901 467.14 66.2901 467.1 66.3101Z" fill="#52BA60"/>
<path d="M435.25 87.2901C433.78 85.2301 432.79 83.0501 432.12 80.6101C431.63 78.8001 432.14 76.6601 431.38 74.9601C431.35 74.9001 431.33 74.8301 431.29 74.7701C431.24 74.6701 431.11 74.6701 431.04 74.7201C431 74.7501 430.98 74.8001 430.99 74.8601C431.55 77.1801 431.2 79.4501 431.93 81.7901C432.56 83.8201 433.37 86.0601 435.02 87.4901C435 87.3801 435.1 87.2701 435.25 87.2901Z" fill="#52BA60"/>
<path d="M438 90.0001C438.07 90.0601 438.15 90.1101 438.23 90.1601C437.88 88.8801 436.52 87.5901 435.26 87.2901C435.1 87.2601 435.01 87.3801 435.03 87.4901C435.04 87.5401 435.07 87.6001 435.14 87.6301C435.82 87.9501 436.4 88.3201 436.91 88.8901C437.24 89.2601 437.49 89.6801 437.77 90.0801C437.79 89.9901 437.9 89.9201 438 90.0001Z" fill="#52BA60"/>
<path d="M444.65 93.6201C444.78 93.7201 444.91 93.8201 445.03 93.9101C445.05 93.8501 445.04 93.7801 444.97 93.7401C443.88 93.1601 442.68 92.8001 441.57 92.2501C440.38 91.6601 439.27 90.9501 438.21 90.1601C438.14 90.1001 438.06 90.0501 437.98 90.0001C437.89 89.9301 437.77 89.9901 437.74 90.0801C437.72 90.1301 437.72 90.1901 437.77 90.2301C438.64 91.2201 439.82 91.9001 440.97 92.5201C442.04 93.0901 443.25 93.7501 444.47 93.9701C444.45 93.9401 444.42 93.9101 444.4 93.8801C444.32 93.7201 444.49 93.4901 444.65 93.6201Z" fill="#52BA60"/>
<path d="M448.56 94.6802C448.05 94.7102 447.54 94.7702 447.02 94.7402C446.22 94.6802 445.63 94.3502 445.03 93.9202C444.9 93.8302 444.78 93.7302 444.65 93.6302C444.48 93.5002 444.31 93.7302 444.42 93.8802C444.44 93.9102 444.47 93.9402 444.49 93.9702C445.57 95.4202 447.74 95.5602 449.33 94.9802C449.37 94.9602 449.4 94.9302 449.41 94.9002C449.15 94.9302 448.88 94.9602 448.62 95.0102C448.41 95.0402 448.37 94.7402 448.56 94.6802Z" fill="#52BA60"/>
<path d="M462.6 90.8401C462.64 90.6201 462.37 90.3801 462.16 90.5801C462.14 90.6001 462.11 90.6201 462.09 90.6401C460.32 92.2601 457.9 93.2301 455.61 93.8501C453.29 94.4901 450.86 93.9701 448.57 94.6701C448.37 94.7401 448.41 95.0401 448.63 95.0001C448.89 94.9501 449.16 94.9201 449.42 94.8901C451.84 94.6101 454.19 94.8801 456.59 94.1101C458.72 93.4301 460.87 92.5301 462.52 90.9801C462.57 90.9501 462.59 90.9001 462.6 90.8401Z" fill="#52BA60"/>
<path d="M422.59 67.51C422.62 67.46 422.63 67.39 422.58 67.32C421.18 65.41 419.12 64.06 418.47 61.62C417.49 57.89 421.74 57.86 424.28 58.09C424.38 58.1 424.48 58.11 424.58 58.12C424.72 58.13 424.77 57.92 424.64 57.87C424.53 57.83 424.4 57.79 424.28 57.75C422 57.07 418.31 57.31 417.83 60.14C417.41 62.57 419.87 65.86 421.91 67.27C422.06 67.37 422.21 67.4701 422.36 67.5501C422.45 67.6101 422.54 67.58 422.59 67.51Z" fill="#D7AE70"/>
<path d="M475.4 92.0901C475.22 92.0301 475.13 92.2901 475.3 92.3701C477 93.1301 484.5 92.8401 482.27 89.4901C482.19 89.3701 481.97 89.4701 482.01 89.6101C483.01 92.7701 477.3 92.6801 475.4 92.0901Z" fill="#D7AE70"/>
<path d="M420.42 59.7401C420.6 59.6401 420.47 59.3701 420.28 59.4601C416.35 61.1601 427.12 70.4201 428.91 71.4901C429.04 71.5601 429.14 71.4001 429.04 71.3101C427.66 70.0601 417.23 61.4601 420.42 59.7401Z" fill="#D7AE70"/>
<path d="M431.16 60.2801C428.1 59.3801 424.43 58.1101 421.23 58.7901C421.07 58.8201 421.12 59.0401 421.27 59.0301C424.7 58.8901 427.79 59.7901 431.11 60.4901C431.24 60.5301 431.28 60.3201 431.16 60.2801Z" fill="#D7AE70"/>
<path d="M433.42 61.3301C433.63 61.4301 433.76 61.0901 433.55 60.9901C433.14 60.7901 432.72 60.6601 432.3 60.4801C432.16 60.4201 432.04 60.6401 432.17 60.7201C432.57 60.9401 433 61.1201 433.42 61.3301Z" fill="#D7AE70"/>
<path d="M429.28 62.4201C429.41 62.3801 429.33 62.1801 429.21 62.2001C428.11 62.3801 426.68 62.8801 426.5 64.1601C426.33 65.3801 427.22 66.7901 427.95 67.6801C428.04 67.7901 428.23 67.6701 428.17 67.5401C427.71 66.6201 426.97 65.7301 426.85 64.6701C426.69 63.2101 428.18 62.7801 429.28 62.4201Z" fill="#D7AE70"/>
<path d="M432.87 71.9401C431.7 70.9501 430.42 70.1201 429.4 68.9601C429.29 68.8401 429.11 69.0001 429.21 69.1201C430.21 70.3101 431.5 71.2001 432.74 72.1201C432.85 72.2101 432.97 72.0301 432.87 71.9401Z" fill="#D7AE70"/>
<path d="M443.37 80.8002C443.51 80.8702 443.64 80.6302 443.5 80.5502C438.88 78.0202 434.67 74.8402 430.08 72.2902C429.94 72.2102 429.8 72.4002 429.94 72.5002C434.19 75.4702 438.67 78.5602 443.37 80.8002Z" fill="#D7AE70"/>
<path d="M444.85 81.43C444.72 81.32 444.54 81.52 444.65 81.65C444.81 81.82 444.99 81.94 445.19 82.04C445.37 82.13 445.59 82.28 445.8 82.24C445.9 82.22 445.96 82.09 445.88 82.01C445.75 81.87 445.54 81.84 445.37 81.76C445.2 81.66 445.01 81.56 444.85 81.43Z" fill="#D7AE70"/>
<path d="M449.44 82.64C444.89 80.25 440.56 77.6801 436.37 74.6901C436.24 74.6001 436.11 74.79 436.23 74.89C440.24 78.01 444.72 80.7001 449.34 82.8301C449.45 82.8901 449.55 82.7 449.44 82.64Z" fill="#D7AE70"/>
<path d="M471.68 81.4702C473.45 83.2202 478.4 86.0202 477.39 89.0102C477.32 89.2202 477.63 89.3302 477.71 89.1302C479.05 86.0402 473.64 82.9602 471.84 81.3202C471.75 81.2302 471.58 81.3702 471.68 81.4702Z" fill="#D7AE70"/>
<path d="M474.21 81.8601C474.11 81.7701 473.95 81.9001 474.05 82.0001C475.41 83.3201 482.5 88.1701 479.29 90.0201C479.1 90.1301 479.23 90.4001 479.43 90.3201C483.62 88.7001 475.42 82.9701 474.21 81.8601Z" fill="#D7AE70"/>
<path d="M465.81 89.7601C460.87 88.2701 456.1 86.4201 451.24 84.3801C451.07 84.3101 450.98 84.5701 451.14 84.6401C455.66 86.6101 460.38 88.7701 465.23 90.2301C465.27 89.9701 465.52 89.7401 465.81 89.7601Z" fill="#D7AE70"/>
<path d="M466.27 90.5301C468.41 91.1301 470.57 91.5801 472.76 91.8001C472.91 91.8201 472.92 91.6001 472.78 91.5701C470.49 91.0801 468.26 90.4801 466.06 89.8301C466.29 89.9701 466.36 90.2701 466.27 90.5301Z" fill="#D7AE70"/>
<path d="M423.97 60.8001C424.1 60.7801 424.1 60.5601 423.96 60.5601C423.03 60.5901 422.15 60.9301 422.26 62.0101C422.36 63.0001 423.14 64.4201 423.91 65.0501C424.03 65.1501 424.17 64.9901 424.12 64.8701C423.62 63.6001 421.16 61.1601 423.97 60.8001Z" fill="#D7AE70"/>
<path d="M424.76 62.5902C424.64 62.7802 424.58 63.0602 424.64 63.2802C424.67 63.3902 424.85 63.4302 424.88 63.3002C424.97 62.9802 424.91 62.6402 425.34 62.6002C425.49 62.5902 425.48 62.3402 425.33 62.3402C425.1 62.3302 424.89 62.3902 424.76 62.5902Z" fill="#D7AE70"/>
<path d="M426.26 66.7101C426.11 66.5701 425.96 66.4201 425.8 66.2801C425.66 66.1501 425.44 66.3301 425.57 66.4701C425.71 66.6201 425.86 66.7701 426 66.9201C426.12 67.0401 426.26 67.2401 426.42 67.2801C426.51 67.3001 426.63 67.2401 426.6 67.1301C426.57 66.9601 426.39 66.8401 426.26 66.7101Z" fill="#D7AE70"/>
<path d="M450.51 87.8801C449.89 87.3601 449.09 87.1401 448.35 86.8601C448.17 86.7901 448.07 87.0701 448.24 87.1401C448.96 87.4601 449.67 87.7801 450.39 88.1101C450.53 88.1801 450.61 87.9701 450.51 87.8801Z" fill="#52BA60"/>
<path d="M448.28 90.1501C447.38 89.3801 446.33 88.8601 445.22 88.4501C445.03 88.3801 444.92 88.6701 445.11 88.7501C446.17 89.1901 447.16 89.7501 448.14 90.3501C448.28 90.4301 448.4 90.2501 448.28 90.1501Z" fill="#52BA60"/>
<path d="M446.24 90.9401C446.34 91.0001 446.52 90.9001 446.44 90.7701C446.18 90.3501 445.64 90.1401 445.27 89.8201C445.14 89.7101 444.96 89.9101 445.08 90.0301C445.25 90.2101 445.43 90.3601 445.63 90.4901C445.83 90.6501 446.02 90.8201 446.24 90.9401Z" fill="#52BA60"/>
<path d="M447.98 94.1901C448.12 94.2601 448.25 94.0201 448.11 93.9401C445.21 92.3501 441.94 91.6801 439.32 89.5601C439.2 89.4601 439.06 89.6601 439.18 89.7601C441.68 91.9601 445.01 92.8201 447.98 94.1901Z" fill="#52BA60"/>
<path d="M446.35 87.4802C446.49 87.5202 446.59 87.3402 446.47 87.2502C446.05 86.9602 445.56 86.7602 445.1 86.5502C444.94 86.4802 444.8 86.7402 444.96 86.8202C445.41 87.0602 445.86 87.3202 446.35 87.4802Z" fill="#52BA60"/>
<path d="M446.66 58.2501C446.81 58.2801 446.86 58.0401 446.72 57.9901C446.51 57.9101 446.35 57.8701 446.12 57.9201C445.87 57.9801 445.67 58.1001 445.47 58.2501C445.36 58.3301 445.45 58.5301 445.58 58.4901C445.9 58.3801 446.31 58.1801 446.66 58.2501Z" fill="#52BA60"/>
<path d="M444.52 58.5601C440.75 59.4801 436.5 62.5501 434.8 66.1201C434.71 66.3201 435.01 66.4701 435.13 66.2901C437.42 62.9801 440.6 59.9801 444.56 58.8301C444.74 58.7801 444.7 58.5101 444.52 58.5601Z" fill="#52BA60"/>
<path d="M440.7 61.9401C440.27 62.1401 439.96 62.4501 439.67 62.8201C439.58 62.9301 439.74 63.0701 439.85 62.9801C440.17 62.7201 440.49 62.4601 440.84 62.2501C441.03 62.1401 440.9 61.8401 440.7 61.9401Z" fill="#52BA60"/>
<path d="M434.47 70.08C435.25 69.01 435.78 67.76 436.51 66.65C437.31 65.43 438.27 64.35 439.41 63.44C439.54 63.34 439.38 63.16 439.25 63.25C437.02 64.88 435.24 67.39 434.22 69.95C434.15 70.1 434.37 70.21 434.47 70.08Z" fill="#52BA60"/>
<path d="M434.05 67.8501C433.92 68.4701 433.64 69.0201 433.44 69.6201C433.39 69.7701 433.58 69.8601 433.68 69.7501C434.1 69.2401 434.27 68.5301 434.39 67.8901C434.43 67.6601 434.09 67.6401 434.05 67.8501Z" fill="#52BA60"/>
<path d="M466.72 82.9001C469.33 80.1301 468.3 75.6901 468.23 72.2601C468.23 72.0901 467.97 72.0501 467.96 72.2301C467.62 76.0101 468.58 79.2201 466.51 82.7101C466.43 82.8401 466.6 83.0301 466.72 82.9001Z" fill="#52BA60"/>
<path d="M465.48 83.7501C465.42 83.9201 465.35 84.1001 465.27 84.2601C465.18 84.4401 465.04 84.5901 464.95 84.7701C464.89 84.8801 465.04 85.0101 465.14 84.9501C465.52 84.7201 465.67 84.2601 465.78 83.8701C465.84 83.6701 465.55 83.5501 465.48 83.7501Z" fill="#52BA60"/>
<path d="M466.61 75.4801C466.55 75.2801 466.26 75.3201 466.29 75.5401C466.68 78.6601 465.7 82.0901 463.42 84.2801C463.31 84.3901 463.42 84.5801 463.57 84.5101C466.18 83.2601 467.35 78.0501 466.61 75.4801Z" fill="#52BA60"/>
<path d="M462.47 83.8301C463.5 82.8201 464.19 81.2101 463.97 79.7601C463.94 79.5401 463.61 79.6001 463.63 79.8201C463.8 81.3201 462.96 82.4101 462.27 83.6501C462.2 83.7701 462.35 83.9401 462.47 83.8301Z" fill="#52BA60"/>
<path d="M454.53 58.1001C454.33 58.0701 454.3 58.3801 454.5 58.4101C457.75 58.9901 460.96 60.5201 462.86 63.3001C462.95 63.4301 463.15 63.2901 463.09 63.1501C461.69 60.1201 457.62 58.5601 454.53 58.1001Z" fill="#52BA60"/>
<path d="M464.23 64.5301C464.17 64.2101 463.99 64.0001 463.77 63.7801C463.63 63.6401 463.39 63.8401 463.53 63.9801C463.72 64.1701 463.86 64.3601 463.99 64.6001C464.05 64.7301 464.26 64.6801 464.23 64.5301Z" fill="#52BA60"/>
<path d="M465 65.0101C464.87 64.8901 464.65 65.0601 464.78 65.2001C465.14 65.5701 465.5 65.9301 465.82 66.3301C466.14 66.7301 466.32 67.1701 466.57 67.6101C466.65 67.7601 466.86 67.6901 466.85 67.5201C466.78 66.5301 465.66 65.6401 465 65.0101Z" fill="#52BA60"/>
<path d="M461.01 62.9202C460 62.0302 458.81 61.3602 457.64 60.6902C457.49 60.6002 457.33 60.8202 457.48 60.9102C458.63 61.6102 459.74 62.3702 460.88 63.1002C461.01 63.1902 461.12 63.0202 461.01 62.9202Z" fill="#52BA60"/>
<path d="M462.38 64.2401C462.25 64.1401 462.11 64.3401 462.24 64.4501C463.7 65.7201 464.81 67.2601 465.25 69.1601C465.28 69.3001 465.52 69.3101 465.52 69.1501C465.5 67.2301 463.77 65.3801 462.38 64.2401Z" fill="#52BA60"/>
<path d="M440.85 64.4401C440.67 64.6101 440.4 64.8301 440.32 65.0701C440.28 65.2001 440.4 65.2901 440.52 65.2501C440.74 65.1801 440.94 64.9301 441.1 64.7501C441.11 64.7401 441.13 64.7301 441.13 64.7101C441.22 64.5501 441.05 64.2601 440.85 64.4401Z" fill="#52BA60"/>
<path d="M436.29 71.8201C436.55 70.6801 436.79 69.6601 437.4 68.6501C437.99 67.6801 438.77 66.8301 439.54 66.0101C439.65 65.9001 439.49 65.7101 439.38 65.8201C437.8 67.4001 435.99 69.3701 436.02 71.7601C436.03 71.9001 436.25 71.9801 436.29 71.8201Z" fill="#52BA60"/>
<path d="M437.32 72.3701C438.12 70.7901 438.34 68.9801 439.8 67.8001C439.94 67.6901 439.76 67.4901 439.62 67.5901C438.16 68.6501 437.55 70.6001 437.03 72.2601C436.97 72.4601 437.23 72.5401 437.32 72.3701Z" fill="#52BA60"/>
<path d="M441.39 67.7801C440.01 69.1901 438.32 71.2201 438.27 73.3101C438.27 73.4701 438.5 73.5402 438.55 73.3702C438.88 72.3702 439.07 71.4201 439.62 70.5001C440.16 69.5901 440.88 68.8102 441.61 68.0502C441.76 67.8802 441.54 67.6201 441.39 67.7801Z" fill="#52BA60"/>
<path d="M439.49 72.2401C439.35 72.6101 439.1 73.0001 439.07 73.4101C439.06 73.5401 439.24 73.6101 439.31 73.5001C439.53 73.1601 439.68 72.7401 439.78 72.3501C439.84 72.1601 439.57 72.0501 439.49 72.2401Z" fill="#52BA60"/>
<path d="M459.78 83.6301C461.61 81.8701 461.19 78.1401 460.87 75.8701C460.85 75.7001 460.6 75.7501 460.61 75.9201C460.84 78.4301 461.14 81.2901 459.58 83.4501C459.49 83.5701 459.66 83.7501 459.78 83.6301Z" fill="#52BA60"/>
<path d="M461 83.0601C461.53 82.7101 461.84 82.0001 461.95 81.4001C461.98 81.2201 461.68 81.1501 461.64 81.3301C461.5 81.9501 461.12 82.3601 460.8 82.8901C460.72 83.0201 460.88 83.1401 461 83.0601Z" fill="#52BA60"/>
<path d="M458.77 83.3101C459.26 82.9701 459.5 82.3201 459.6 81.7601C459.64 81.5701 459.34 81.5501 459.3 81.7301C459.24 82.0001 459.15 82.2601 459.02 82.5001C458.89 82.7301 458.71 82.9101 458.57 83.1301C458.48 83.2601 458.64 83.3901 458.77 83.3101Z" fill="#52BA60"/>
<path d="M449.35 93.5301C453 94.1901 457.37 93.2001 460.45 91.1901C460.67 91.0501 460.4 90.7301 460.18 90.8801C456.94 92.9901 453.13 93.3301 449.37 93.2401C449.19 93.2201 449.16 93.4901 449.35 93.5301Z" fill="#52BA60"/>
<path d="M450.03 92.0101C449.88 92.1701 450.08 92.4201 450.25 92.2801C450.45 92.1101 450.55 92.1901 450.76 92.2801C450.87 92.3301 451 92.1901 450.94 92.0801C450.74 91.6901 450.3 91.7301 450.03 92.0101Z" fill="#52BA60"/>
<path d="M452.29 92.1401C454.52 92.0401 456.67 91.5501 458.72 90.6601C458.94 90.5601 458.78 90.2201 458.56 90.3201C456.54 91.2101 454.43 91.6501 452.25 91.8701C452.06 91.8901 452.12 92.1501 452.29 92.1401Z" fill="#52BA60"/>
<path d="M455.19 90.5701C455.59 90.4501 456.02 90.5301 456.42 90.4201C456.54 90.3901 456.59 90.1901 456.44 90.1501C456.02 90.0401 455.5 90.1201 455.09 90.2601C454.92 90.3201 455.02 90.6201 455.19 90.5701Z" fill="#52BA60"/>
<path d="M432.74 76.9101C431.83 79.4301 433.27 82.3901 434.4 84.6001C434.46 84.7201 434.65 84.6401 434.6 84.5101C433.64 82.1701 432.23 79.5901 432.97 77.0001C433 76.8501 432.79 76.7701 432.74 76.9101Z" fill="#52BA60"/>
<path d="M435.04 83.1901C434.81 81.3601 433.93 79.7501 434.13 77.8601C434.15 77.6701 433.87 77.6501 433.83 77.8301C433.5 79.6201 434.27 81.5801 434.82 83.2601C434.87 83.3901 435.05 83.3101 435.04 83.1901Z" fill="#52BA60"/>
<path d="M435.16 84.4602C435.29 85.2802 435.65 86.2402 436.21 86.8602C436.3 86.9602 436.48 86.8602 436.42 86.7302C436.05 85.9502 435.57 85.2902 435.39 84.4202C435.36 84.2702 435.13 84.3102 435.16 84.4602Z" fill="#52BA60"/>
<path d="M436.95 85.2802C435.87 83.3702 435.43 81.0302 435.57 78.8502C435.58 78.6902 435.33 78.6602 435.32 78.8302C435.12 81.0702 435.62 83.4302 436.76 85.3702C436.82 85.4802 437.01 85.3902 436.95 85.2802Z" fill="#52BA60"/>
<path d="M436.92 80.6302C436.95 80.3702 437.05 80.1102 437.04 79.8502C437.04 79.6902 436.8 79.6602 436.79 79.8302C436.77 80.1102 436.69 80.3702 436.7 80.6502C436.7 80.7702 436.9 80.7502 436.92 80.6302Z" fill="#52BA60"/>
<path d="M438.07 85.04C437.67 84.06 437.23 83.11 437.06 82.05C437.03 81.88 436.77 81.93 436.79 82.1C436.92 83.16 437.31 84.22 437.86 85.14C437.94 85.25 438.13 85.17 438.07 85.04Z" fill="#52BA60"/>
<path d="M438.1 87.9001C438.33 88.1301 438.56 88.4201 438.85 88.5701C438.96 88.6201 439.07 88.4801 439.02 88.3801C438.87 88.0801 438.53 87.8401 438.29 87.6101C438.03 87.3601 437.76 87.1301 437.5 86.9001C437.39 86.8001 437.23 86.9801 437.33 87.0901C437.59 87.3601 437.83 87.6401 438.1 87.9001Z" fill="#52BA60"/>
<path d="M439.46 87.3601C439.64 86.9701 439.4 86.6801 439.12 86.4301C438.97 86.3001 438.73 86.4801 438.88 86.6401C439.06 86.8301 439.24 87.0201 439.22 87.3101C439.2 87.4501 439.4 87.4901 439.46 87.3601Z" fill="#52BA60"/>
<path d="M443.79 90.1501C442.34 89.7101 441.18 88.8901 439.99 87.9801C439.84 87.8701 439.69 88.1001 439.83 88.2101C440.99 89.1401 442.23 90.1601 443.73 90.4501C443.89 90.4801 443.95 90.2001 443.79 90.1501Z" fill="#52BA60"/>
<path d="M441.8 90.2001C441.66 90.0801 441.5 90.3101 441.64 90.4301C441.8 90.5701 442.05 90.6801 442.24 90.7601C442.33 90.8001 442.46 90.6801 442.4 90.5901C442.26 90.3901 441.98 90.3501 441.8 90.2001Z" fill="#52BA60"/>
<path d="M443.36 91.2001C444.64 91.8001 445.93 92.3601 447.33 92.6401C447.49 92.6701 447.55 92.4001 447.39 92.3601C446.03 92.0001 444.74 91.5001 443.45 90.9601C443.3 90.9001 443.22 91.1301 443.36 91.2001Z" fill="#52BA60"/>
<path d="M449.28 62.2601C449.16 62.4001 449.37 62.5601 449.5 62.4601C449.8 62.2301 450.16 62.1101 450.54 62.1401C451.01 62.1801 451.27 62.4501 451.51 62.8301C451.59 62.9701 451.83 62.9201 451.8 62.7401C451.58 61.6501 449.93 61.4901 449.28 62.2601Z" fill="#52BA60"/>
<path d="M451.99 63.1402C451.88 63.2602 452.07 63.4102 452.19 63.3202C452.42 63.1402 452.72 63.0202 453.02 63.0402C453.29 63.0502 453.51 63.1802 453.77 63.2302C453.89 63.2502 453.97 63.0802 453.89 63.0002C453.38 62.4602 452.43 62.6302 451.99 63.1402Z" fill="#52BA60"/>
<path d="M462.61 70.4301C462.8 70.8701 462.7 71.2701 462.69 71.7301C462.69 71.7801 462.72 71.8201 462.75 71.8401C462.77 71.8201 462.8 71.8101 462.84 71.8201C462.86 71.8201 462.88 71.8301 462.91 71.8401C462.92 71.8301 462.93 71.8301 462.94 71.8201C463.54 70.8301 462.73 69.7001 461.84 69.2701C461.71 69.2101 461.59 69.4301 461.72 69.5001C462.1 69.7101 462.43 70.0201 462.61 70.4301Z" fill="#52BA60"/>
<path d="M462.75 71.8401C462.67 71.9001 462.66 72.0601 462.78 72.1001C463.15 72.2301 463.44 72.4901 463.58 72.8601C463.71 73.2001 463.64 73.5401 463.71 73.8801C463.74 74.0201 463.93 74.0301 463.98 73.9001C464.16 73.5101 464.04 72.9401 463.86 72.5701C463.66 72.1601 463.33 71.9401 462.9 71.8401C462.88 71.8301 462.86 71.8201 462.83 71.8201C462.8 71.8101 462.77 71.8201 462.75 71.8401Z" fill="#52BA60"/>
<path d="M464.08 76.7601C464.32 76.5601 464.45 76.1301 464.42 75.8201C464.38 75.4701 464.12 75.2701 463.81 75.1701C463.63 75.1101 463.53 75.3801 463.71 75.4501C463.95 75.5501 464.11 75.7101 464.08 75.9801C464.05 76.2101 463.9 76.4101 463.86 76.6401C463.83 76.7701 463.99 76.8401 464.08 76.7601Z" fill="#52BA60"/>
<path d="M443.42 70.2701C443.32 70.4201 443.54 70.5801 443.65 70.4301C443.86 70.1501 444.11 69.8501 444.44 69.7101C444.8 69.5501 445.14 69.7001 445.5 69.7901C445.51 69.7601 445.52 69.7201 445.54 69.6901C445.57 69.6501 445.61 69.6201 445.65 69.5801C445.64 69.5701 445.64 69.5601 445.63 69.5501C444.77 68.9401 443.91 69.5301 443.42 70.2701Z" fill="#52BA60"/>
<path d="M445.52 69.7901C445.54 69.8801 445.67 69.9601 445.76 69.8801C445.94 69.7201 446.14 69.5501 446.36 69.4801C446.62 69.3901 446.82 69.4901 447.07 69.5501C447.18 69.5801 447.32 69.4401 447.22 69.3401C446.71 68.8601 446.08 69.1801 445.66 69.5901C445.62 69.6301 445.59 69.6601 445.55 69.7001C445.52 69.7201 445.51 69.7601 445.52 69.7901Z" fill="#52BA60"/>
<path d="M438.67 82.4801C438.5 82.4301 438.4 82.6701 438.57 82.7401C438.82 82.8501 439.08 83.0301 439.18 83.2901C439.3 83.5701 439.2 83.8701 439.17 84.1601C439.16 84.3001 439.34 84.3601 439.42 84.2501C439.66 83.9301 439.69 83.4901 439.53 83.1301C439.36 82.7801 439.04 82.5801 438.67 82.4801Z" fill="#52BA60"/>
<path d="M439.39 84.3601C439.22 84.3701 439.24 84.6401 439.4 84.6501C439.58 84.6701 439.76 84.7301 439.88 84.8701C439.99 85.0001 440.02 85.1801 440.09 85.3301C440.13 85.4301 440.29 85.4201 440.33 85.3201C440.42 85.0601 440.3 84.8001 440.11 84.6101C439.92 84.4201 439.67 84.3501 439.39 84.3601Z" fill="#52BA60"/>
<path d="M443.83 74.92C443.83 74.9 443.82 74.87 443.8 74.85C443.62 74.66 443.39 74.53 443.23 74.31C443.08 74.09 443 73.83 442.92 73.58C442.87 73.41 442.62 73.44 442.65 73.63C442.72 74.18 443.08 74.89 443.65 75.07C443.67 75.05 443.67 75.02 443.68 75C443.7 74.94 443.77 74.92 443.83 74.92Z" fill="#52BA60"/>
<path d="M444.45 76.5201C444.57 76.5501 444.69 76.4201 444.6 76.3101C444.43 76.1301 444.19 76.0301 444.04 75.8201C443.87 75.5901 443.9 75.3301 443.96 75.0701C443.98 74.9801 443.91 74.9301 443.84 74.9201C443.78 74.9101 443.71 74.9401 443.69 75.0001C443.68 75.0201 443.68 75.0401 443.67 75.0701C443.47 75.6701 443.81 76.3601 444.45 76.5201Z" fill="#52BA60"/>
<path d="M442.79 60.9301C443.13 60.4301 443.63 60.2801 444.19 60.5001C444.2 60.5001 444.21 60.5001 444.22 60.5001C444.14 60.4901 444.07 60.3901 444.13 60.3101C444.16 60.2801 444.18 60.2501 444.21 60.2201C443.61 59.8801 442.89 60.1801 442.55 60.7501C442.45 60.9201 442.68 61.0901 442.79 60.9301Z" fill="#52BA60"/>
<path d="M444.29 60.4801C444.27 60.4901 444.26 60.5001 444.24 60.5001C444.26 60.4901 444.28 60.4901 444.29 60.4801Z" fill="#52BA60"/>
<path d="M444.22 60.5001C444.23 60.5001 444.24 60.5001 444.25 60.5001C444.27 60.5001 444.28 60.4901 444.3 60.4801C444.51 60.2901 444.72 60.1001 444.89 59.8901C444.98 59.7701 444.81 59.6301 444.7 59.7201C444.52 59.8701 444.36 60.0501 444.2 60.2301C444.17 60.2601 444.15 60.2901 444.12 60.3201C444.06 60.3801 444.13 60.4801 444.22 60.5001Z" fill="#52BA60"/>
<path d="M450.03 57.8901C450.03 57.8701 450.02 57.8601 450 57.8601C449.55 57.6101 449.1 57.5201 448.63 57.7601C448.49 57.8301 448.59 58.0501 448.74 57.9901C449.16 57.8101 449.48 57.9501 449.87 58.1101C449.94 58.1401 450 58.1001 450.03 58.0501C449.99 58.0001 449.98 57.9401 450.03 57.8901Z" fill="#52BA60"/>
<path d="M450.03 57.8801C449.98 57.9401 449.99 58.0001 450.03 58.0401C450.08 58.0901 450.16 58.1201 450.23 58.0701C450.58 57.8001 451.01 57.7101 451.44 57.8401C451.56 57.8801 451.67 57.7001 451.55 57.6301C451.05 57.3301 450.42 57.4401 450.03 57.8801Z" fill="#52BA60"/>
<path d="M466.49 70.8801C466.84 70.5101 466.86 69.9901 466.48 69.6001C466.37 69.4901 466.19 69.6401 466.3 69.7601C466.64 70.1301 466.44 70.4901 466.2 70.8501C466.23 70.8101 466.28 70.7801 466.34 70.8001C466.39 70.8301 466.44 70.8601 466.49 70.8801Z" fill="#52BA60"/>
<path d="M466.49 70.8801C466.44 70.8501 466.39 70.8201 466.33 70.8001C466.27 70.7701 466.22 70.8001 466.19 70.8501C466.16 70.9001 466.15 70.98 466.22 71.02C466.41 71.14 466.59 71.3101 466.69 71.5101C466.79 71.7001 466.78 71.9 466.86 72.09C466.9 72.19 467.06 72.1801 467.09 72.0801C467.17 71.8401 467.06 71.5401 466.94 71.3301C466.82 71.1301 466.68 70.9901 466.49 70.8801Z" fill="#52BA60"/>
<path d="M483.76 91.45C483.71 91.12 483.64 90.78 483.56 90.44C483.39 89.7 483.15 88.96 482.82 88.29C482.79 88.22 482.72 88.21 482.66 88.23C482.6 88.25 482.55 88.32 482.59 88.39C482.66 88.53 482.72 88.67 482.77 88.82C483.09 89.63 483.24 90.48 483.46 91.32C483.47 91.38 483.49 91.43 483.5 91.49C483.55 91.66 483.78 91.62 483.76 91.45Z" fill="#52BA60"/>
<path d="M465.28 90.5501C465.32 90.6301 465.36 90.7001 465.4 90.7801C465.58 91.1301 466.01 91.0601 466.17 90.7501C466.19 90.7101 466.21 90.6801 466.23 90.6401C466.25 90.6101 466.26 90.5801 466.27 90.5501C466.37 90.2901 466.3 89.9901 466.06 89.8501C465.99 89.8101 465.92 89.7801 465.83 89.7701C465.52 89.7601 465.27 89.9801 465.23 90.2401C465.21 90.3401 465.22 90.4401 465.28 90.5501Z" fill="#D7AE70"/>
<path d="M170.64 820.86C169.05 820.87 167.49 822.59 168.13 824.21C168.5 825.14 168.83 826 169.75 826.52C170.84 827.15 172.29 826.84 173.14 825.97C173.98 825.11 173.87 823.95 173.19 823.14C173 821.88 172.07 820.85 170.64 820.86ZM172.37 822.51C172.23 822.44 172.09 822.36 171.93 822.31C171.47 822.16 171.96 822.16 172.37 822.51Z" fill="#6B93B4"/>
<path d="M464.94 758.28C464.32 758.55 463.92 759.07 463.49 759.57C462.52 760.69 462.54 762.33 463.77 763.26C465.05 764.23 466.51 763.71 467.4 762.54C467.81 762 468.18 761.52 468.32 760.84C468.75 758.74 466.75 757.48 464.94 758.28Z" fill="white"/>
<path opacity="0.53" d="M478.3 224.44C478.34 224.44 478.37 224.42 478.39 224.4C478.49 224.39 478.58 224.25 478.5 224.16C477.95 223.52 477.4 222.9 476.88 222.23C476.46 221.69 476.03 221.07 475.49 220.64C475.76 219.75 476.18 218.92 476.54 218.06C476.78 217.49 477.12 216.77 477.05 216.12C477.15 216.03 477.08 215.83 476.92 215.86C475.33 216.13 473.78 216.81 472.29 217.43C471 216.39 469.72 215.22 468.27 214.43C468.25 214.28 468.06 214.28 468.06 214.39C468.08 215.99 467.98 217.77 468.37 219.33C467.66 219.65 467.01 220.17 466.37 220.61C465.64 221.12 464.9 221.65 464.23 222.24C464.13 222.33 464.22 222.45 464.32 222.44C465.13 222.82 466.05 222.94 466.91 223.15C467.62 223.33 468.32 223.5 469.04 223.58C469.25 224.86 469.51 226.14 469.86 227.4C469.87 227.49 469.89 227.57 469.93 227.65C470 227.89 470.07 228.14 470.14 228.38C470.19 228.55 470.42 228.47 470.43 228.32C470.55 228.23 470.67 228.14 470.78 228.04C470.86 228 470.91 227.95 470.94 227.87C471.88 226.93 472.49 225.57 473.34 224.58C474.93 224.77 476.76 224.58 478.3 224.44Z" fill="#D57275"/>
<path d="M94.04 291.92C94.07 291.92 94.08 291.91 94.1 291.89C94.16 291.88 94.22 291.8 94.16 291.74C93.82 291.35 93.48 290.97 93.17 290.56C92.91 290.23 92.65 289.85 92.32 289.59C92.49 289.04 92.74 288.54 92.97 288.01C93.12 287.66 93.32 287.22 93.28 286.82C93.34 286.77 93.3 286.64 93.2 286.66C92.23 286.83 91.28 287.24 90.37 287.62C89.58 286.98 88.79 286.27 87.91 285.78C87.9 285.69 87.78 285.69 87.78 285.76C87.79 286.74 87.73 287.83 87.97 288.78C87.54 288.97 87.13 289.29 86.75 289.57C86.3 289.88 85.85 290.2 85.44 290.57C85.38 290.62 85.43 290.7 85.49 290.69C85.99 290.92 86.55 290.99 87.08 291.13C87.51 291.24 87.94 291.34 88.38 291.39C88.51 292.18 88.67 292.96 88.88 293.73C88.88 293.78 88.9 293.83 88.93 293.88C88.97 294.03 89.01 294.18 89.06 294.33C89.09 294.43 89.23 294.38 89.24 294.29C89.31 294.24 89.39 294.18 89.46 294.12C89.51 294.1 89.54 294.06 89.56 294.02C90.13 293.44 90.51 292.61 91.03 292.01C91.98 292.12 93.1 292.01 94.04 291.92Z" fill="#98C860"/>
<path d="M539.01 51.63C539.04 51.63 539.05 51.62 539.07 51.6C539.13 51.59 539.19 51.51 539.13 51.45C538.79 51.06 538.45 50.68 538.14 50.27C537.88 49.94 537.62 49.56 537.29 49.3C537.46 48.75 537.71 48.25 537.94 47.72C538.09 47.37 538.29 46.93 538.25 46.53C538.31 46.48 538.27 46.35 538.17 46.37C537.2 46.54 536.25 46.95 535.34 47.33C534.55 46.69 533.76 45.98 532.88 45.49C532.87 45.4 532.75 45.4 532.75 45.47C532.76 46.45 532.7 47.54 532.94 48.49C532.51 48.68 532.1 49 531.72 49.28C531.27 49.59 530.82 49.91 530.41 50.28C530.35 50.33 530.4 50.41 530.46 50.4C530.96 50.63 531.52 50.7 532.05 50.84C532.48 50.95 532.91 51.05 533.35 51.1C533.48 51.89 533.64 52.67 533.85 53.44C533.85 53.49 533.87 53.54 533.9 53.59C533.94 53.74 533.98 53.89 534.03 54.04C534.06 54.14 534.2 54.09 534.21 54C534.28 53.95 534.36 53.89 534.43 53.83C534.48 53.81 534.51 53.77 534.53 53.73C535.1 53.15 535.48 52.32 536 51.72C536.95 51.84 538.06 51.72 539.01 51.63Z" fill="#D9B175"/>
<path d="M413.07 28.0301C413.1 28.0301 413.11 28.0201 413.13 28.0001C413.19 27.9901 413.25 27.9101 413.19 27.8501C412.85 27.4601 412.51 27.0801 412.2 26.6701C411.94 26.3401 411.68 25.9601 411.35 25.7001C411.52 25.1501 411.77 24.6501 412 24.1201C412.15 23.7701 412.35 23.3301 412.31 22.9301C412.37 22.8801 412.33 22.7501 412.23 22.7701C411.26 22.9401 410.31 23.3501 409.4 23.7301C408.61 23.0901 407.82 22.3801 406.94 21.8901C406.93 21.8001 406.81 21.8001 406.81 21.8701C406.82 22.8501 406.76 23.9401 407 24.8901C406.57 25.0801 406.16 25.4001 405.78 25.6801C405.33 25.9901 404.88 26.3101 404.47 26.6801C404.41 26.7301 404.46 26.8101 404.52 26.8001C405.02 27.0301 405.58 27.1001 406.11 27.2401C406.54 27.3501 406.97 27.4501 407.41 27.5001C407.54 28.2901 407.7 29.0701 407.91 29.8401C407.91 29.8901 407.93 29.9401 407.96 29.9901C408 30.1401 408.04 30.2901 408.09 30.4401C408.12 30.5401 408.26 30.4901 408.27 30.4001C408.34 30.3501 408.42 30.2901 408.49 30.2301C408.54 30.2101 408.57 30.1701 408.59 30.1301C409.16 29.5501 409.54 28.7201 410.06 28.1201C411.01 28.2401 412.13 28.1201 413.07 28.0301Z" fill="#366495"/>
<path opacity="0.53" d="M527.06 556.43C526.35 555.8 524.44 552.48 523.41 552.35C523.3 552.19 523 552.2 522.99 552.44C522.91 555.19 524.79 560.26 525.35 562.94C524.19 563.82 522.97 564.6 521.74 565.37C520.6 566.08 519.32 566.8 518.44 567.85C518.2 567.84 518.17 568.12 518.37 568.16C520.87 568.72 523.56 570.1 526.16 570.06C526.28 572.03 526.84 574.14 527.1 576.11C527.34 577.94 527.46 579.98 528.28 581.67C528.37 581.86 528.64 581.76 528.63 581.58C529.79 579.81 530.6 577.71 531.5 575.79C532.34 573.99 533.29 572.17 533.92 570.28C537.01 570.45 540.19 570.58 543.27 570.29C543.54 570.26 543.51 569.89 543.29 569.83C542.77 568.69 541.41 567.75 540.5 567C539.11 565.86 537.53 564.82 536.4 563.4C536.84 562.1 536.99 560.63 537.27 559.32C537.6 557.73 537.97 556.14 538.15 554.52C538.16 554.45 538.14 554.39 538.1 554.35C538.1 554.19 537.96 554.04 537.79 554.13C536.47 554.83 535.27 555.96 534.09 556.87C533.02 557.69 531.61 558.48 530.66 559.48C529.31 558.66 528.23 557.48 527.06 556.43Z" fill="#546F84"/>
<path d="M503.39 786.83C503.14 786.94 503.32 787.3 503.57 787.21C505.89 786.36 507.97 786.85 509.78 788.35C507.58 787.39 504.96 787.28 502.96 788.49C499.07 790.84 498.54 798.29 502.92 800.2C504.99 803.58 507.15 807.09 509.73 810.14C509.72 810.15 509.72 810.16 509.72 810.17C509.71 810.18 509.71 810.19 509.71 810.2C509.7 810.22 509.69 810.24 509.68 810.27C509.69 810.26 509.69 810.25 509.7 810.23C509.69 810.26 509.69 810.29 509.7 810.33C509.66 810.36 509.63 810.39 509.6 810.42C509.59 810.43 509.58 810.43 509.57 810.43C509.55 810.44 509.53 810.46 509.52 810.47C509.51 810.48 509.49 810.49 509.48 810.5C509.46 810.52 509.44 810.55 509.42 810.57C509.41 810.58 509.4 810.6 509.4 810.61C509.39 810.63 509.38 810.66 509.37 810.68C509.37 810.7 509.37 810.71 509.37 810.73C509.37 810.76 509.36 810.8 509.36 810.83C509.37 810.95 509.46 811.07 509.56 811.18C509.62 811.28 509.71 811.38 509.8 811.45C509.83 811.47 509.86 811.49 509.89 811.51C509.98 811.63 510.08 811.74 510.2 811.83C510.24 811.86 510.29 811.88 510.34 811.9C510.45 811.97 510.58 812.01 510.71 812.01C510.88 812 511.01 811.9 511.08 811.76C511.27 811.7 511.44 811.57 511.54 811.35C511.79 810.81 511.52 810.15 511.3 809.65C511.26 809.56 511.14 809.46 511.03 809.46C510.7 809.47 510.42 809.57 510.14 809.75C508.29 806.75 506.26 803.84 504.27 800.93C506.31 801.37 508.73 801.25 510.62 800.41C511.7 801.71 512.94 802.94 513.95 804.09C515.72 806.12 517.47 808.16 519.16 810.25C519.08 810.28 519.02 810.33 518.97 810.43C518.9 810.58 518.89 810.78 518.9 810.94C518.91 811.11 518.98 811.33 519.1 811.51C519.21 811.81 519.63 812.11 519.9 812.23C519.94 812.25 519.98 812.27 520.02 812.28C520.12 812.38 520.22 812.47 520.33 812.54C520.52 812.65 520.7 812.58 520.8 812.39C520.81 812.38 520.81 812.36 520.82 812.35C521.01 812.27 521.12 812.09 521.12 811.89C521.13 811.85 521.14 811.8 521.14 811.75C521.17 811.69 521.2 811.63 521.23 811.57C521.32 811.52 521.36 811.41 521.35 811.3C521.37 811.13 521.28 810.96 521.06 810.95C521.03 810.85 521.01 810.76 520.98 810.68C520.85 810.3 520.53 810.06 520.12 810.05C520 810.04 519.88 810.06 519.77 810.08C518.41 807.97 516.69 806.09 515.05 804.2C513.87 802.84 512.75 801.34 511.59 799.89C512.85 799.06 513.71 797.8 513.78 796.06C513.93 795.66 514.03 795.28 514.09 794.89C514.87 795.83 515.71 796.73 516.5 797.64C517.99 799.36 519.38 801.2 520.91 802.88C520.89 802.93 520.89 802.98 520.88 803.03C520.86 803.08 520.83 803.13 520.81 803.19C520.74 803.37 520.68 803.57 520.73 803.77C520.77 803.95 520.88 804.08 521.02 804.19C521.18 804.37 521.41 804.5 521.65 804.57C521.74 804.6 521.85 804.58 521.94 804.53C522.04 804.55 522.15 804.57 522.23 804.58C522.38 804.6 522.55 804.46 522.56 804.31C522.56 803.98 522.57 803.64 522.59 803.31C522.6 803.2 522.55 803.07 522.45 803.01C522.3 802.92 522.13 802.81 521.96 802.75C521.85 802.68 521.72 802.68 521.61 802.73C521.58 802.74 521.55 802.76 521.51 802.77C519.47 799.63 516.73 796.81 514.16 794.1C514.16 791.73 512.53 789.75 510.37 788.61C510.42 788.57 510.45 788.5 510.4 788.42C509.03 786.15 505.64 785.82 503.39 786.83ZM510.9 810.5C510.87 810.48 510.86 810.46 510.84 810.44C510.82 810.41 510.8 810.39 510.8 810.39C510.79 810.35 510.77 810.32 510.74 810.29C510.72 810.27 510.7 810.25 510.68 810.24C510.72 810.22 510.75 810.21 510.79 810.2C510.84 810.3 510.87 810.4 510.9 810.5ZM500.73 795.99C500.86 795.99 500.98 796 501.11 796C501.16 796.29 501.21 796.57 501.29 796.82C501.29 796.83 501.3 796.84 501.31 796.85C501.2 796.85 501.09 796.86 500.97 796.86C500.87 796.59 500.79 796.29 500.73 795.99ZM513.25 794.99C512.84 796.79 512.43 798.37 511.17 799.4C510.45 798.52 509.71 797.67 508.92 796.9C508.73 796.72 508.43 796.9 508.53 797.15C508.92 798.14 509.54 799.08 510.24 799.98C509.98 800.11 509.69 800.22 509.37 800.31C507.64 800.81 505.92 800.63 504.18 800.43C504.24 800.31 504.21 800.13 504.06 800.08C503.86 800.01 503.67 799.92 503.49 799.83C503.43 799.74 503.34 799.71 503.25 799.71C502.26 799.15 501.56 798.29 501.12 797.29C505.5 797.26 509.61 795.03 512.35 791.65C512.91 792.64 513.15 793.76 513.25 794.99ZM512.08 791.18C509.33 794.35 505.88 796.57 501.67 796.84C501.68 796.81 501.68 796.79 501.67 796.75C501.62 796.49 501.6 796.23 501.58 795.98C504.92 795.83 508.51 794.1 510.82 791.65C510.89 791.87 511.03 792.04 511.32 791.94C511.44 791.89 511.46 791.7 511.35 791.63C511.21 791.54 511.23 791.46 511.22 791.3C511.22 791.27 511.21 791.25 511.2 791.22C511.36 791.03 511.52 790.84 511.66 790.64C511.82 790.82 511.95 791 512.08 791.18ZM510.48 789.57C510.8 789.8 511.09 790.05 511.35 790.3C508.4 793.25 505.49 794.73 501.56 795.46C501.55 794.74 501.62 794.04 501.65 793.3C501.66 793.11 501.41 793.05 501.33 793.23C501.04 793.89 500.99 794.75 501.06 795.56C500.93 795.58 500.8 795.6 500.67 795.62C500.32 793.05 501.41 790.17 503.79 788.98C505.92 787.9 508.55 788.19 510.48 789.57ZM500.58 799.21C498.49 796.19 498.61 792.92 500.59 789.87C500.69 789.71 500.46 789.55 500.35 789.7C498.31 792.55 497.69 796.71 500.36 799.39C500.5 799.53 500.69 799.36 500.58 799.21ZM524.15 807.66C524.82 808.33 525.45 809.09 526.19 809.68C526.31 809.78 526.47 809.6 526.37 809.48C525.79 808.75 525.04 808.12 524.38 807.47C524.25 807.33 524.02 807.52 524.15 807.66ZM515.4 811.87C517.44 815.17 519.85 818.26 522.41 821.18C522.53 821.31 522.73 821.14 522.62 821C520.22 817.96 517.69 815.05 515.61 811.77C515.53 811.65 515.31 811.74 515.4 811.87ZM511.85 816.24C510.02 813.49 508.15 810.78 506.37 808C506.27 807.85 506.01 807.97 506.11 808.12C507.89 810.92 509.69 813.73 511.65 816.41C511.75 816.56 511.94 816.39 511.85 816.24ZM517.35 801.97C517.25 801.84 517.06 802 517.16 802.13C520.5 806.43 524.69 809.97 528.17 814.16C528.29 814.3 528.49 814.12 528.38 813.98C525.13 809.61 520.74 806.24 517.35 801.97ZM504.91 789.12C504.74 789.21 504.82 789.48 505.01 789.45C506.71 789.12 507.93 789.62 509.39 790.42C509.56 790.51 509.72 790.34 509.61 790.17C508.81 788.94 506.17 788.46 504.91 789.12ZM503.2 790.36C502.84 790.47 502.26 790.84 502.26 791.26C502.25 791.55 502.65 791.58 502.71 791.3C502.73 791.2 503 791.05 503.07 790.98C503.2 790.87 503.34 790.75 503.4 790.59C503.44 790.48 503.33 790.32 503.2 790.36ZM511.34 793.42C511.52 793.64 511.49 793.87 511.59 794.11C511.65 794.25 511.85 794.22 511.9 794.1C512.04 793.77 511.89 793.4 511.65 793.16C511.47 792.97 511.17 793.21 511.34 793.42ZM518.91 797.13C522.39 801.55 526.51 805.4 530.17 809.66C530.29 809.8 530.5 809.62 530.39 809.48C526.83 805.13 522.62 801.36 519.11 796.96C519 796.83 518.81 797 518.91 797.13ZM504.21 799.22C505.31 799.25 506.5 799.32 507.56 798.97C507.77 798.9 507.65 798.59 507.45 798.61C506.37 798.76 505.33 798.85 504.24 798.88C504.03 798.89 503.99 799.21 504.21 799.22Z" fill="#546F84"/>
<path d="M486.74 647.4C485.73 647.83 484.72 648.08 483.64 648.11C483.69 647.76 483.78 647.4 483.85 647.06C483.9 646.82 484.06 646.41 483.91 646.17C483.82 646.02 483.67 645.99 483.52 646.09C483.45 646.14 483.42 646.23 483.39 646.3C483.37 646.35 483.37 646.4 483.38 646.44C483.37 646.48 483.37 646.53 483.36 646.56C483.31 646.75 483.28 646.95 483.23 647.15C483.14 647.56 483.03 647.98 483.02 648.4C483.01 648.61 483.17 648.73 483.37 648.72C484.62 648.66 485.79 648.29 486.88 647.7C487.06 647.59 486.93 647.32 486.74 647.4ZM517.71 625.74C514.91 625.67 512.57 626.62 510.27 628.15C510.07 628.28 510.29 628.63 510.5 628.5C511.82 627.68 516.84 625.01 517.08 627.23C517.18 628.14 515.13 629.89 514.59 630.43C512.33 632.7 509.68 634.62 507.06 636.44C506.22 637.02 505.37 637.6 504.51 638.17C503.57 637.51 502.65 636.84 501.73 636.15C502.11 630.04 502.23 623.4 500.73 617.49C500.68 617.29 500.46 617.26 500.33 617.4C496.92 621.17 497.37 627.05 497.15 631.78C497.14 631.98 497.45 632.01 497.46 631.81C497.66 629.09 497.64 626.32 498.11 623.62C498.15 623.37 499.36 617.82 500.41 618.05C500.61 618.09 500.81 620.36 500.84 620.59C501.43 625.07 501.47 629.65 501.31 634.15C501.29 634.69 501.27 635.24 501.24 635.78C497.27 632.81 493.33 629.73 488.91 627.58C488.74 627.5 488.64 627.77 488.81 627.85C493.26 630.05 497.21 633.18 501.22 636.16C501.15 637.59 501.05 639.04 500.9 640.48C499.96 641.06 499.02 641.62 498.06 642.17C496.83 641.28 495.63 640.37 494.41 639.47C491.96 637.65 489.41 635.96 487.05 634.02C486.3 633.4 485.56 632.76 484.84 632.09C484.84 632.04 484.84 631.98 484.82 631.93C484.85 631.52 484.92 631.06 484.75 630.71C484.53 630.26 483.92 630.01 483.52 629.76C483.34 629.65 483.17 629.7 483.07 629.81C482.96 629.78 482.84 629.81 482.79 629.92C482.58 629.67 482.37 629.43 482.17 629.16C481.64 628.44 480.26 626.98 480.8 626.03C481.49 624.82 482.94 626.08 484.38 626.99C484.57 627.11 484.76 626.83 484.58 626.71C483.09 625.76 481.6 625.11 479.88 624.64C479.76 624.61 479.59 624.7 479.63 624.85C480.2 626.98 481.3 628.84 482.69 630.52C482.63 630.89 482.57 631.27 482.72 631.59C482.92 632.04 483.43 632.23 483.92 632.33C484.08 632.51 484.31 632.63 484.53 632.49C487.46 635.3 491.11 637.59 494.14 639.86C495.23 640.67 496.37 641.57 497.56 642.47C495.17 643.84 492.72 645.11 490.23 646.25C490.06 646.33 490.18 646.59 490.35 646.51C492.9 645.37 495.41 644.09 497.87 642.71C498.67 643.31 499.49 643.9 500.32 644.48C500.08 645.81 499.78 647.12 499.4 648.41C499.05 649.57 497.96 654.05 496.07 652.8C494.65 651.86 495.23 646.28 495.12 644.9C495.11 644.7 494.78 644.72 494.77 644.91C494.58 647.62 494.28 652.22 496.55 654.16C496.63 654.23 496.78 654.21 496.86 654.15C499.26 651.99 500.35 648.46 500.92 644.89C502.11 645.68 503.34 646.42 504.6 647.05C504.55 647.11 504.5 647.15 504.46 647.22C504.29 647.54 504.33 647.86 504.48 648.16C504.5 648.53 504.6 648.9 504.84 649.24C505.43 650.07 506.85 650.85 507.84 650.24C507.97 650.16 508.07 650.06 508.17 649.95C508.6 649.62 509 649.21 509.1 648.7C510.49 649 511.9 649.11 513.33 648.94C513.44 648.93 513.53 648.8 513.5 648.69C513.08 646.49 511.66 644.66 509.91 643.32C509.71 643.16 509.48 643.49 509.68 643.65C511.58 645.14 513.9 648.29 510.22 648.48C509.87 648.5 509.5 648.46 509.12 648.38C509.09 647.7 508.53 647.25 507.96 646.97C507.86 646.92 507.73 646.87 507.6 646.82C507.12 646.48 506.53 646.31 505.92 646.27C505.87 646.15 505.75 646.07 505.59 646.16C505.36 646.29 505.17 646.46 505 646.65C504.24 646.22 503.54 645.8 502.96 645.47C502.29 645.09 501.64 644.68 500.99 644.26C501.16 643.04 501.28 641.83 501.37 640.67C502.45 640.01 503.51 639.33 504.56 638.65C505.29 639.15 506.03 639.64 506.78 640.11C506.93 640.2 507.09 639.98 506.94 639.88C506.23 639.43 505.53 638.95 504.83 638.47C505.81 637.82 506.79 637.17 507.75 636.5C510.98 634.26 517.45 630.52 517.88 626.03C517.94 625.88 517.84 625.74 517.71 625.74ZM483.32 631.28C483.31 631.29 483.31 631.31 483.3 631.32C483.3 631.3 483.31 631.29 483.32 631.28ZM500.45 643.85C499.75 643.39 499.07 642.91 498.39 642.42C499.22 641.95 500.04 641.47 500.85 640.98C500.74 641.95 500.61 642.9 500.45 643.85ZM507.65 648.29C507.68 648.3 507.71 648.31 507.75 648.32C507.83 648.59 507.83 648.89 507.74 649.15C507.7 649.18 507.66 649.21 507.62 649.25C507.61 649.23 507.61 649.22 507.6 649.2C507.62 649.15 507.64 649.1 507.64 649.04C507.64 648.89 507.61 648.76 507.57 648.65C507.62 648.53 507.65 648.41 507.65 648.29ZM506.01 649.06C506.1 649.11 506.2 649.15 506.29 649.19C506.36 649.31 506.5 649.36 506.63 649.35C506.66 649.37 506.67 649.36 506.68 649.37C506.68 649.39 506.69 649.4 506.69 649.42C506.72 649.51 506.76 649.58 506.8 649.66C506.47 649.59 506.14 649.4 505.89 649.22C505.95 649.18 505.99 649.13 506.01 649.06ZM501.45 640.15C501.52 639.23 501.67 636.87 501.69 636.54C502.53 637.16 503.37 637.77 504.23 638.36C503.31 638.97 502.39 639.57 501.45 640.15ZM487.87 641.58C487.21 642.01 486.67 642.76 486.12 643.33C485.97 643.48 486.18 643.74 486.34 643.59C486.92 643.03 487.68 642.49 488.12 641.81C488.23 641.64 488.02 641.48 487.87 641.58ZM519.12 623.62C519 623.48 518.89 623.33 518.77 623.19C518.54 622.9 518.16 623.26 518.35 623.55C518.41 623.72 518.56 623.89 518.66 624.02C518.9 624.32 519.36 623.93 519.12 623.62ZM495.7 639.69C495.76 638.22 495.73 636.78 496 635.32C496.04 635.12 495.73 635.1 495.69 635.29C495.42 636.74 495.34 638.23 495.4 639.7C495.41 639.87 495.69 639.86 495.7 639.69ZM506.52 631.96C506.62 631.92 506.72 631.87 506.82 631.81C506.9 631.81 506.99 631.81 507.07 631.81C507.12 631.84 507.18 631.86 507.25 631.85C507.36 631.83 507.45 631.75 507.52 631.64C507.83 631.68 508.11 631.56 508.27 631.15C508.7 630.04 507.22 629.22 506.41 628.95C506.24 628.89 506 629.04 506.06 629.24C506.11 629.41 506.15 629.59 506.19 629.76C506.16 629.82 506.14 629.89 506.12 629.96C505.9 629.98 505.79 630.11 505.74 630.28C505.5 630.27 505.34 630.58 505.42 630.8C505.61 631.37 505.69 632.28 506.52 631.96ZM506.84 629.68C506.89 629.7 506.95 629.73 507 629.76C506.96 629.79 506.92 629.84 506.89 629.89C506.87 629.92 506.85 629.95 506.84 629.99C506.83 630.03 506.81 630.06 506.8 630.1C506.78 630.02 506.76 629.94 506.75 629.87C506.78 629.8 506.81 629.74 506.84 629.68Z" fill="#723E64"/>
<path d="M59.44 782.6C59.47 782.59 59.49 782.58 59.52 782.56C59.63 782.49 59.58 782.34 59.47 782.34C59.44 782.27 59.41 782.21 59.4 782.12C59.38 781.96 59.38 781.81 59.3 781.66C59.25 781.56 59.08 781.55 59.04 781.67C58.96 781.92 58.98 782.37 59.17 782.58C59.25 782.66 59.36 782.67 59.44 782.6ZM55.73 810.54C55.42 810.41 55.09 810.27 54.8 810.09C54.6 809.96 54.43 810.23 54.6 810.38C54.84 810.59 55.14 810.72 55.43 810.85C55.69 810.97 55.97 811.14 56.25 811.2C56.41 811.24 56.61 811.05 56.46 810.9C56.26 810.72 55.96 810.64 55.73 810.54ZM49.29 779.29C48.99 779.69 48.88 780.14 48.79 780.61C48.75 780.8 49.07 780.87 49.12 780.69C49.22 780.27 49.34 779.86 49.61 779.51C49.75 779.31 49.43 779.09 49.29 779.29ZM55.79 770.7C56.11 770.29 56.54 769.93 57.04 769.77C57.67 769.56 57.98 769.86 58.5 770.15C58.63 770.22 58.79 770.11 58.72 769.96C58.48 769.38 57.72 769.2 57.15 769.32C56.46 769.47 55.93 769.97 55.56 770.54C55.46 770.69 55.68 770.84 55.79 770.7ZM57.06 770.1C56.88 770.13 56.89 770.43 57.07 770.42C57.26 770.42 57.45 770.44 57.63 770.49C57.8 770.53 57.96 770.63 58.13 770.63C58.23 770.63 58.34 770.53 58.27 770.43C58.05 770.07 57.44 770.04 57.06 770.1ZM92.98 799.41C92.91 799.4 92.85 799.43 92.8 799.48C92.01 799.71 91.31 800.17 90.56 800.5C89.6 800.92 88.69 800.89 87.71 801.12C87.63 801.14 87.58 801.19 87.54 801.25C86.97 801.47 86.46 801.77 85.81 801.7C85.14 801.62 84.71 801.23 84.16 800.91C84.07 800.86 83.96 800.88 83.89 800.94C81.47 800.34 77.17 800.3 75.94 797.95C75.92 797.91 75.89 797.88 75.86 797.86C75.47 797.51 74.93 797.35 74.48 797.13C74.35 797.06 74.24 797.13 74.2 797.23C74.01 797.25 73.83 797.29 73.64 797.3C73.49 797.31 73.33 797.31 73.18 797.31C70.49 795.53 68 793.76 65.9 791.27C63.77 788.73 62.57 785.94 61.19 782.99C61.17 782.95 61.15 782.93 61.12 782.91C60.98 782.63 60.83 782.41 60.59 782.21C60.42 782.06 60.18 781.89 59.94 781.85C59.81 781.51 59.67 781.16 59.57 780.8C59.51 780.58 59.48 780.35 59.4 780.13C59.68 779.81 59.92 779.4 59.87 778.99C59.86 778.95 59.84 778.92 59.82 778.89C59.67 777.96 59.43 777.06 59.21 776.14C59.01 775.3 58.95 774.49 58.9 773.65C59.15 772.59 59.37 771.53 59.63 770.47C59.8 769.77 60.12 768.65 59.45 768.1C58.62 767.42 57.18 768.21 56.42 768.62C55.45 769.14 54.31 769.81 53.53 770.69C50.57 773 47.86 776.8 46.7 780.2C46.68 780.25 46.7 780.3 46.73 780.33C46.57 780.88 46.64 781.51 46.43 782.07C46.2 782.68 45.65 783.14 45.47 783.73C43.62 789.63 44 796.02 46.88 801.49C46.9 801.52 46.92 801.54 46.94 801.55C47.35 802.63 47.92 804.07 48.79 804.74C49.28 805.12 49.94 805.22 50.44 805.59C51.55 806.41 52.43 807.89 52.36 809.3C52.35 809.45 52.45 809.54 52.56 809.56C57.5 813.87 64.11 816.97 70.8 816.41C71.56 816.48 72.26 816.92 73.02 816.9C73.65 816.88 74.12 816.41 74.63 816.1C77.38 816 79.95 814.85 82.34 813.53C84.62 812.27 87.17 810.89 89.01 809.01C89.97 808.06 96.37 799.74 92.98 799.41ZM90.65 805.82C89.32 807.94 87.74 809.5 85.61 810.84C82.02 813.11 78.55 814.84 74.38 815.77C73.84 815.9 73.47 816.46 72.86 816.44C72.23 816.41 71.65 816.04 71.03 816.08C63.95 815.9 58.5 813.39 52.87 809.27C52.9 807.86 52.19 806.49 51.15 805.54C50.58 805.02 50.05 804.91 49.43 804.53C48.27 803.83 47.79 802.18 47.08 801.08C44.86 795.46 44.33 789.78 45.83 783.92C45.83 783.9 45.83 783.89 45.83 783.87C46.84 783.36 47.65 781.08 47.1 780.18C48.09 778.5 48.96 776.79 50.12 775.22C51.02 774.02 52.05 772.97 53.09 771.92C53.16 771.92 53.23 771.9 53.28 771.85C54.24 770.76 55.44 769.92 56.72 769.25C57.35 768.92 59.06 767.96 59.11 769.21C59.17 770.61 58.09 772.09 58.26 773.51C58.22 773.67 58.19 773.83 58.2 774.01C58.2 774.07 58.23 774.11 58.26 774.13C58.24 774.76 58.41 775.42 58.56 776.03C58.81 777.04 59.06 778.05 59.4 779.04C59.34 779.18 59.3 779.33 59.24 779.47C59.19 779.6 59.13 779.73 59.07 779.86C59.01 779.88 58.95 779.92 58.94 779.98C58.85 780.33 58.99 780.68 59.11 781.01C59.24 781.38 59.41 781.7 59.64 782.01C59.64 782.06 59.64 782.11 59.68 782.15C59.83 782.34 60.1 782.41 60.29 782.55C60.47 782.69 60.64 782.86 60.78 783.05C60.78 783.07 60.78 783.09 60.78 783.11C62.13 789.09 67.39 795.09 72.94 797.6C72.95 797.61 72.96 797.62 72.97 797.63C72.98 797.63 73 797.64 73.01 797.64C73.03 797.65 73.05 797.66 73.06 797.67C73.1 797.69 73.13 797.69 73.16 797.68C73.53 797.76 73.99 797.76 74.31 797.59C74.67 797.77 75.06 797.96 75.45 798.08C75.45 798.11 75.46 798.14 75.47 798.17C76.11 799.65 77.11 799.89 78.61 800.28C80.36 800.73 82.18 801.22 83.98 801.34C84.37 801.82 85.08 802.12 85.66 802.2C86.42 802.31 87.09 802.03 87.72 801.63C89.33 802.19 91.71 800.89 92.91 799.86C94.04 800.33 90.96 805.33 90.65 805.82ZM48.04 795.34C49.79 795.89 49.67 792.57 49.56 791.71C49.54 791.52 49.28 791.56 49.25 791.72C49.14 792.29 49.18 792.84 49.14 793.42C49.14 793.52 49.13 793.62 49.13 793.72C49.2 794.22 48.98 794.47 48.46 794.46C48.11 794.79 47.88 794.79 47.76 794.46C47.66 794.32 47.58 794.17 47.52 794.01C47.11 793.01 47.21 791.87 47.29 790.82C47.31 790.58 46.96 790.55 46.92 790.78C46.75 791.72 46.67 792.69 46.9 793.63C47.04 794.24 47.37 795.13 48.04 795.34ZM47.35 789.83C47.6 789.68 47.79 789.45 47.98 789.23C48.46 789.4 48.77 789.82 48.8 790.34C48.81 790.5 49.09 790.49 49.09 790.33C49.06 789.64 48.63 789.06 48 788.81C47.94 788.79 47.85 788.8 47.8 788.84C47.56 789.09 47.29 789.33 47.14 789.64C47.08 789.76 47.24 789.9 47.35 789.83ZM49.1 796.45C49.92 796.12 50.26 794.85 50.1 794.06C50.07 793.94 49.88 793.91 49.84 794.04C49.64 794.68 49.78 795.44 49.24 795.96C48.85 796.34 47.94 796.36 47.8 795.72C47.76 795.55 47.5 795.59 47.53 795.77C47.64 796.49 48.49 796.7 49.1 796.45ZM49.72 789.79C49.65 790.8 49.86 791.9 49.98 792.91C50 793.11 50.29 793.05 50.28 792.86C50.22 791.86 50.24 790.75 49.99 789.78C49.95 789.64 49.73 789.64 49.72 789.79ZM54.47 782.61C54.56 782.27 54.73 781.95 54.82 781.61C54.95 781.13 55.01 780.66 54.83 780.18C54.54 779.39 53.71 779.07 53.03 779.63C52.06 780.41 52.38 782.14 52.62 783.16C52.66 783.35 52.96 783.3 52.92 783.11C52.81 782.49 52.73 781.85 52.76 781.22C52.77 780.97 52.8 780.73 52.88 780.49C53.4 780.41 53.92 780.32 54.43 780.24C54.73 780.47 54.47 781.42 54.4 781.66C54.28 782.07 54.09 782.46 54.01 782.88C53.96 783.16 54.11 785.26 53.19 784.75C52.98 784.63 52.76 784.93 52.97 785.06C53.66 785.5 54.2 784.9 54.34 784.23C54.45 783.68 54.32 783.17 54.47 782.61ZM54.77 784.16C55.14 783.53 55.49 782.77 55.47 782.02C55.47 781.88 55.25 781.79 55.2 781.96C54.99 782.67 54.86 783.36 54.53 784.04C54.46 784.17 54.69 784.29 54.77 784.16ZM61.73 797.17C62.34 796.38 62.17 795.29 61.79 794.37C62.25 794.98 62.57 795.63 62.45 796.46C62.32 797.37 61.7 798.11 60.9 798.55C60.74 798.64 60.85 798.88 61.02 798.81C62.94 797.97 63.62 795.06 61.7 793.79C61.63 793.75 61.56 793.76 61.51 793.81C61.46 793.72 61.42 793.63 61.37 793.55C60.85 792.66 59.82 791.22 58.65 791.67C58.45 791.75 58.56 792.07 58.77 792.03C59.89 791.8 60.85 793.47 61.2 794.26C61.64 795.26 61.99 796.8 60.72 797.37C58.43 798.39 57.48 795.24 57.24 793.69C57.21 793.47 56.89 793.54 56.91 793.75C57.03 795.22 57.47 796.91 58.87 797.66C59.8 798.15 61.05 798.04 61.73 797.17ZM57.9 790.89C57.7 790.95 57.51 791.04 57.4 791.23C57.29 791.42 57.35 791.53 57.48 791.67C57.57 791.77 57.74 791.67 57.69 791.55C57.72 791.5 57.76 791.45 57.81 791.41C57.94 791.32 58.13 791.3 58.28 791.29C58.57 791.28 58.82 791.44 59.09 791.44C59.21 791.44 59.32 791.32 59.26 791.2C59.03 790.79 58.32 790.77 57.9 790.89ZM57.37 793.03C57.36 793.25 57.66 793.27 57.7 793.06C57.76 792.74 57.98 792.6 58.22 792.41C58.31 792.34 58.27 792.14 58.14 792.15C57.69 792.16 57.38 792.61 57.37 793.03ZM66.84 796.64C67.13 797.99 68.79 799.19 70.15 799.14C70.63 799.12 71 798.85 71.05 798.35C71.12 797.67 70.53 797.14 69.97 796.88C69.84 796.82 69.69 797.01 69.8 797.12C70.12 797.42 70.79 797.81 70.67 798.32C70.49 799.15 69.22 798.61 68.83 798.41C67.95 797.96 67.54 797.26 67.06 796.45C67.05 796.44 67.04 796.43 67.02 796.42C67.02 796.28 67.02 796.14 67.02 796C67.2 796 67.36 796.05 67.55 796.06C67.67 796.07 67.79 795.9 67.69 795.8C67.46 795.58 67.11 795.57 66.81 795.64C66.71 795.66 66.64 795.75 66.66 795.86C66.69 796.09 66.72 796.32 66.75 796.55C66.76 796.6 66.8 796.62 66.84 796.64ZM65.17 809.66C65.03 809.62 64.89 809.82 65.04 809.91C65.59 810.22 66.21 810.41 66.74 810.75C67.83 811.45 67.9 813.32 66.55 813.57C66.09 813.65 65.59 813.62 65.13 813.56C63.18 813.3 61.47 812.35 60.14 810.91C60 810.76 59.76 810.96 59.89 811.12C61.46 812.96 64.73 814.91 67.24 813.84C68.08 813.48 68.54 812.77 68.3 811.85C67.95 810.49 66.33 810.01 65.17 809.66ZM59.72 810.15C59.69 810.35 59.99 810.37 60.03 810.18C60.23 809.27 61.14 808.76 62.03 808.81C62.81 808.85 63.45 809.27 64.11 809.63C64.31 809.74 64.5 809.49 64.31 809.34C62.93 808.21 60.11 807.86 59.72 810.15ZM56.07 801.26C55.94 801.23 55.79 801.38 55.91 801.49C56.15 801.73 56.37 801.91 56.44 802.26C56.51 802.6 56.44 803 56.19 803.25C55.63 803.8 54.62 803.44 54.38 802.76C54.33 802.63 54.1 802.7 54.14 802.84C54.41 803.75 55.62 804.2 56.37 803.55C56.99 803.01 57 801.51 56.07 801.26ZM82.35 805.36C81.55 804.95 80.23 805.41 79.47 805.71C79.29 805.78 79.4 806.02 79.57 806.01C80.18 805.96 80.75 805.74 81.35 805.65C82.42 805.49 83.13 806.45 82.76 807.45C82.08 809.27 79.78 808.65 78.45 808.12C78.31 808.07 78.2 808.28 78.33 808.35C79.81 809.21 82.88 809.6 83.27 807.23C83.38 806.52 83.01 805.7 82.35 805.36ZM77.78 807.6C77.86 807.81 78.15 807.66 78.08 807.46C77.97 807.12 78.1 806.76 78.33 806.51C78.43 806.39 78.56 806.3 78.71 806.24C78.85 806.19 79.01 806.19 79.15 806.13C79.25 806.09 79.28 805.91 79.17 805.86C78.76 805.64 78.25 805.98 77.99 806.3C77.69 806.66 77.61 807.15 77.78 807.6ZM71.65 806.64C70.7 806.38 69.61 806.85 69.19 807.74C69.1 807.93 69.38 808.05 69.5 807.9C70.03 807.25 70.84 806.78 71.69 807.11C72.48 807.42 72.66 808.11 72.9 808.83C72.94 808.96 73.17 808.95 73.2 808.82C73.42 807.86 72.53 806.88 71.65 806.64ZM77.37 801.51C77.57 801.84 77.13 801.86 76.93 801.83C76.51 801.77 76.13 801.5 75.92 801.14C75.83 800.99 75.59 801.1 75.67 801.26C75.98 801.86 76.84 802.45 77.53 802.12C78.29 801.76 77.45 800.97 76.95 800.91C76.75 800.88 76.71 801.16 76.87 801.24C77.02 801.31 77.28 801.37 77.37 801.51ZM67.42 814.23C64.46 814.34 62.16 813.91 59.96 811.74C59.82 811.6 59.6 811.78 59.73 811.94C61.45 814.05 64.79 815.44 67.47 814.51C67.6 814.47 67.56 814.23 67.42 814.23ZM68.72 811.23C68.99 811.88 69.15 812.55 68.81 813.21C68.71 813.4 68.97 813.6 69.09 813.41C69.54 812.71 69.63 811.67 68.97 811.07C68.85 810.97 68.65 811.07 68.72 811.23ZM63.52 808.27C64.38 808.85 65.42 809.22 66.39 809.56C66.56 809.62 66.65 809.37 66.49 809.3C65.53 808.92 64.61 808.41 63.64 808.04C63.5 807.99 63.4 808.18 63.52 808.27ZM60.63 791.93C60.74 792.24 60.92 792.51 61.13 792.76C61.27 792.93 61.55 792.75 61.45 792.55C61.3 792.26 61.14 791.98 60.9 791.76C60.76 791.63 60.57 791.75 60.63 791.93ZM65.23 792.25C63.64 790.04 62.49 787.75 61.19 785.39C61.11 785.25 60.84 785.31 60.9 785.48C61.63 787.98 63.3 790.49 65.01 792.44C65.13 792.6 65.35 792.41 65.23 792.25ZM60.03 784.72C60.02 785.06 60.21 785.42 60.32 785.73C60.38 785.9 60.66 785.81 60.61 785.64C60.53 785.31 60.48 784.92 60.29 784.64C60.21 784.53 60.03 784.6 60.03 784.72ZM60.78 784.19C60.56 783.83 60.36 783.39 60.05 783.11C59.96 783.03 59.78 783.14 59.82 783.26C59.95 783.66 60.27 784.03 60.51 784.38C60.61 784.53 60.88 784.35 60.78 784.19ZM67.17 797.95C67.06 797.82 66.83 797.96 66.92 798.11C67.71 799.5 69.85 800.51 71.4 799.91C71.52 799.86 71.48 799.66 71.36 799.66C70.57 799.65 69.88 799.71 69.12 799.43C68.3 799.13 67.73 798.59 67.17 797.95ZM69.78 796.59C69.92 796.6 69.99 796.42 69.87 796.34C69.7 796.22 69.51 796.15 69.34 796.04C69.15 795.92 68.99 795.77 68.84 795.61C68.7 795.46 68.47 795.65 68.6 795.82C68.87 796.16 69.32 796.56 69.78 796.59ZM75.49 802.15C75.61 802.3 75.82 802.11 75.72 801.96C75.43 801.54 75.15 801.12 74.9 800.68C75.13 800.36 75.48 800.34 75.86 800.4C76.03 800.43 76.11 800.18 75.97 800.09C75.53 799.82 74.9 800.04 74.63 800.45C74.44 800.73 74.65 800.92 74.81 801.18C75.02 801.52 75.24 801.85 75.49 802.15ZM75.73 800.8C75.96 800.88 76.2 800.97 76.44 800.94C76.55 800.93 76.59 800.76 76.49 800.7C76.28 800.57 76.03 800.55 75.79 800.53C75.64 800.51 75.58 800.75 75.73 800.8ZM81.88 804.43C80.61 804.23 79.65 805.27 78.42 805.31C78.24 805.32 78.2 805.58 78.39 805.6C79.14 805.7 79.71 805.36 80.39 805.08C81.65 804.56 82.66 804.89 83.44 805.98C83.56 806.14 83.8 805.97 83.73 805.79C83.4 805.06 82.67 804.56 81.88 804.43ZM80.85 809.22C78.94 809.62 77.46 808.69 77.23 806.71C77.21 806.55 76.96 806.56 76.95 806.72C76.8 808.74 79.08 810.42 80.94 809.49C81.07 809.42 81.01 809.19 80.85 809.22ZM86.6 806.36C86.42 806.29 86.32 806.56 86.49 806.64C87.09 806.91 87.84 806.31 87.64 805.66C87.55 805.37 87.3 805.16 87.01 805.09C86.76 805.02 86.29 805.06 86.21 805.37C86.18 805.49 86.26 805.6 86.39 805.59C86.56 805.57 86.67 805.45 86.86 805.47C87.01 805.49 87.19 805.56 87.28 805.7C87.54 806.11 86.96 806.5 86.6 806.36ZM73.52 813.22C73.28 813.37 73.45 813.77 73.71 813.62C74.07 813.42 76.07 812.39 76.31 813.19C76.59 814.14 74.33 814.21 73.84 814.21C73.63 814.21 73.59 814.54 73.81 814.54C74.64 814.56 76.96 814.5 76.7 813.11C76.46 811.85 74.13 812.83 73.52 813.22ZM48.21 799.8C47.64 799.75 47.61 800.37 47.67 800.78C47.78 801.64 48.18 802.48 48.79 803.1C48.96 803.27 49.22 803.05 49.08 802.86C48.78 802.45 48.5 802.02 48.32 801.53C48.3 801.47 48.06 800.83 48.12 800.71C48.34 800.18 48.67 800.7 48.79 800.86C49.45 801.68 49.74 802.67 49.8 803.7C49.81 803.93 50.2 803.91 50.2 803.68C50.22 802.83 50.02 802.01 49.61 801.27C49.35 800.81 48.81 799.86 48.21 799.8ZM88.44 807.52C87.77 808.06 87.25 808.77 86.59 809.32C85.86 809.92 85.09 810.46 84.26 810.89C84.09 810.98 84.21 811.24 84.39 811.16C85.95 810.43 87.91 809.31 88.72 807.71C88.79 807.55 88.56 807.43 88.44 807.52ZM89.46 806.23C89.27 806.31 89.17 806.47 89.04 806.63C88.85 806.87 89.24 807.14 89.43 806.9C89.56 806.74 89.67 806.61 89.71 806.4C89.73 806.27 89.57 806.18 89.46 806.23ZM91.19 803.32C90.91 803.6 90.75 803.96 90.56 804.31C90.37 804.66 90.19 805.01 90.01 805.37C89.91 805.57 90.23 805.73 90.35 805.55C90.56 805.21 90.76 804.86 90.96 804.51C91.14 804.19 91.35 803.87 91.44 803.51C91.48 803.36 91.32 803.19 91.19 803.32ZM91.21 801.26C91.02 801.33 91.12 801.63 91.32 801.59C91.62 801.52 91.6 801.91 91.66 802.08C91.7 802.17 91.82 802.21 91.9 802.17C92.18 802.03 92.1 801.67 91.95 801.46C91.76 801.2 91.49 801.16 91.21 801.26ZM87.62 802.43C87.74 802.28 87.55 802.13 87.41 802.18C86.92 802.34 86.5 802.61 85.98 802.69C85.41 802.77 84.86 802.72 84.32 802.52C84.13 802.45 84.03 802.73 84.21 802.81C85.22 803.27 86.84 803.39 87.62 802.43ZM88.01 802.35C88.15 802.28 88.24 802.22 88.34 802.11C88.45 801.99 88.3 801.76 88.14 801.8C87.99 801.84 87.9 801.9 87.78 802C87.6 802.15 87.8 802.46 88.01 802.35ZM83.21 801.41C82.84 801.26 82.37 801.3 82.03 801.52C81.89 801.61 81.99 801.86 82.15 801.77C82.45 801.6 82.74 801.63 83.05 801.78C83.33 801.92 83.42 802.17 83.62 802.39C83.72 802.5 83.89 802.44 83.91 802.3C83.96 801.88 83.56 801.56 83.21 801.41ZM58.08 776.68C58.17 777.07 58.32 777.44 58.36 777.84C58.41 778.33 58.32 778.79 58.19 779.26C58.12 779.49 58.44 779.61 58.54 779.39C58.9 778.55 58.93 777.31 58.34 776.56C58.25 776.45 58.05 776.54 58.08 776.68ZM47.88 781.46C47.8 780.49 48.06 779.66 48.52 778.82C48.82 778.27 49.24 777.79 49.48 777.22C49.54 777.06 49.34 776.92 49.21 777.03C48.05 778.04 47.24 780 47.55 781.52C47.59 781.73 47.9 781.67 47.88 781.46ZM46.51 783.89C45.77 784.3 45.47 785.27 45.55 786.06C45.57 786.28 45.89 786.21 45.88 786C45.83 785.22 46.18 784.7 46.69 784.16C46.81 784.04 46.69 783.79 46.51 783.89Z" fill="#FFC940"/>
</g>
</svg>
