<svg width="363" height="108" viewBox="0 0 363 108" fill="none" xmlns="http://www.w3.org/2000/svg">
<path d="M110.9 8.58002C112.01 12.84 110.58 17.16 107.56 19.95C106.32 21.09 104.8 21.98 103.08 22.49C102.96 22.53 102.83 22.56 102.71 22.6C96.5801 24.21 90.3101 20.54 88.7001 14.41C87.1001 8.28002 90.7601 2.01001 96.8901 0.400013C103.02 -1.20999 109.3 2.46002 110.9 8.58002Z" fill="#F48385"/>
<path d="M141.1 70.38C142.54 75.9 139.25 81.54 133.73 82.98C128.22 84.42 122.58 81.12 121.14 75.61C120.15 71.84 121.38 68 124.03 65.5C125.24 64.34 126.76 63.47 128.51 63.01C128.52 63.01 128.52 63.01 128.53 63.01C134.03 61.57 139.66 64.87 141.1 70.38Z" fill="#7EC460"/>
<path d="M187.06 43.81C191.942 43.81 195.9 39.8522 195.9 34.97C195.9 30.0878 191.942 26.13 187.06 26.13C182.178 26.13 178.22 30.0878 178.22 34.97C178.22 39.8522 182.178 43.81 187.06 43.81Z" fill="#EB78AF"/>
<path d="M217.07 98.51C221.234 98.51 224.61 95.1342 224.61 90.97C224.61 86.8058 221.234 83.43 217.07 83.43C212.906 83.43 209.53 86.8058 209.53 90.97C209.53 95.1342 212.906 98.51 217.07 98.51Z" fill="#748ABE"/>
<path d="M256.43 64.14C260.169 64.14 263.2 61.109 263.2 57.37C263.2 53.6311 260.169 50.6 256.43 50.6C252.691 50.6 249.66 53.6311 249.66 57.37C249.66 61.109 252.691 64.14 256.43 64.14Z" fill="#F6AE2A"/>
<path d="M126.68 60.57C126.67 60.57 126.67 60.57 126.66 60.57C124.93 60.89 123.39 61.59 122.11 62.56L103.72 24.71C105.43 24.35 106.97 23.63 108.28 22.68L126.68 60.57Z" fill="#F1E0C4"/>
<path d="M215.31 81.07C215.3 81.07 215.3 81.07 215.29 81.07C213.5 81.44 211.89 82.19 210.58 83.2L190.91 46.01C192.69 45.59 194.29 44.83 195.63 43.84L215.31 81.07Z" fill="#F1E0C4"/>
<path d="M144.25 69.03C144.25 69.02 144.25 69.02 144.24 69.02C143.64 67.35 142.7 65.93 141.53 64.81L175.65 40.54C176.29 42.18 177.25 43.6 178.4 44.75L144.25 69.03Z" fill="#F1E0C4"/>
<path d="M226.36 86.73C226.36 86.72 226.36 86.72 226.35 86.72C225.68 85.08 224.76 83.67 223.7 82.54L247.62 60.37C248.33 61.98 249.25 63.4 250.31 64.55L226.36 86.73Z" fill="#F1E0C4"/>
<path d="M0.310059 11.7401L3.48006 4.74005H4.47006L7.65006 11.7401H6.60006L3.77006 5.30005H4.17006L1.34006 11.7401H0.310059ZM1.66006 9.99005L1.93006 9.19005H5.87006L6.16006 9.99005H1.66006Z" fill="#F48385"/>
<path d="M10.8601 11.8001C10.3201 11.8001 9.84006 11.6801 9.42006 11.4501C9.00006 11.2201 8.66006 10.9001 8.42006 10.4901C8.18006 10.0801 8.06006 9.62006 8.06006 9.09006C8.06006 8.56006 8.18006 8.10006 8.42006 7.69006C8.66006 7.28006 8.99006 6.96006 9.42006 6.73006C9.84006 6.50006 10.3201 6.38007 10.8601 6.38007C11.3401 6.38007 11.7701 6.48006 12.1501 6.67006C12.5301 6.86006 12.8201 7.14006 13.0301 7.51006L12.3001 7.98006C12.1301 7.72006 11.9101 7.53005 11.6601 7.40005C11.4101 7.28005 11.1401 7.22006 10.8601 7.22006C10.5101 7.22006 10.2001 7.30006 9.93006 7.45006C9.66006 7.60006 9.44006 7.82007 9.28006 8.10007C9.12006 8.38007 9.04006 8.70006 9.04006 9.08006C9.04006 9.46006 9.12006 9.79007 9.28006 10.0701C9.44006 10.3501 9.66006 10.5701 9.93006 10.7201C10.2001 10.8701 10.5101 10.9501 10.8601 10.9501C11.1501 10.9501 11.4101 10.8901 11.6601 10.7601C11.9101 10.6401 12.1201 10.4501 12.3001 10.1801L13.0301 10.6401C12.8201 11.0101 12.5301 11.2901 12.1501 11.4901C11.7701 11.6901 11.3401 11.8001 10.8601 11.8001Z" fill="#F48385"/>
<path d="M13.5 7.23003V6.44003H16.88V7.23003H13.5ZM16.08 11.8C15.55 11.8 15.13 11.66 14.84 11.37C14.55 11.08 14.4 10.67 14.4 10.14V5.28003H15.36V10.1C15.36 10.39 15.43 10.61 15.57 10.76C15.71 10.91 15.92 10.99 16.19 10.99C16.49 10.99 16.74 10.91 16.94 10.74L17.24 11.43C17.09 11.56 16.92 11.65 16.72 11.71C16.51 11.77 16.3 11.8 16.08 11.8Z" fill="#F48385"/>
<path d="M18.8801 5.42004C18.6901 5.42004 18.5401 5.36005 18.4201 5.24005C18.3001 5.12005 18.2401 4.97005 18.2401 4.80005C18.2401 4.62005 18.3001 4.47005 18.4201 4.35005C18.5401 4.23005 18.7001 4.17004 18.8801 4.17004C19.0601 4.17004 19.2201 4.23004 19.3501 4.34004C19.4701 4.46004 19.5301 4.60004 19.5301 4.78004C19.5301 4.96004 19.4701 5.11005 19.3501 5.24005C19.2301 5.37005 19.0801 5.42004 18.8801 5.42004ZM18.4001 11.7401V6.44005H19.3601V11.7401H18.4001Z" fill="#F48385"/>
<path d="M22.58 11.7401L20.26 6.44006H21.26L23.32 11.2401H22.84L24.94 6.44006H25.88L23.56 11.7401H22.58Z" fill="#F48385"/>
<path d="M29.14 11.8001C28.57 11.8001 28.08 11.6801 27.65 11.4501C27.22 11.2201 26.89 10.9001 26.65 10.4901C26.41 10.0801 26.29 9.62006 26.29 9.09006C26.29 8.56006 26.4101 8.10006 26.6301 7.69006C26.8601 7.28006 27.18 6.96006 27.58 6.73006C27.98 6.50006 28.44 6.38007 28.95 6.38007C29.46 6.38007 29.92 6.49006 30.31 6.72006C30.7 6.95006 31.01 7.26006 31.23 7.67006C31.45 8.08006 31.56 8.56006 31.56 9.11006C31.56 9.15006 31.56 9.20006 31.56 9.25006C31.56 9.30006 31.55 9.35005 31.54 9.40005H27.03V8.71007H31.04L30.65 8.95006C30.66 8.61006 30.59 8.31005 30.44 8.04005C30.29 7.77005 30.09 7.56006 29.83 7.42006C29.57 7.27006 29.28 7.19006 28.94 7.19006C28.61 7.19006 28.31 7.27006 28.05 7.42006C27.79 7.57006 27.59 7.78006 27.44 8.05006C27.29 8.32006 27.22 8.63006 27.22 8.98006V9.14006C27.22 9.49006 27.3 9.81006 27.47 10.0901C27.63 10.3701 27.86 10.5801 28.15 10.7401C28.44 10.8901 28.78 10.9701 29.16 10.9701C29.47 10.9701 29.7601 10.9201 30.0201 10.8101C30.2801 10.7001 30.5 10.5401 30.69 10.3301L31.22 10.9501C30.98 11.2301 30.6801 11.4401 30.3201 11.5901C29.9801 11.7301 29.58 11.8001 29.14 11.8001Z" fill="#F48385"/>
<path d="M35.7301 11.7401V4.74005H36.7301V10.87H40.5201V11.7401H35.7301Z" fill="#F48385"/>
<path d="M43.89 11.8001C43.32 11.8001 42.83 11.6801 42.4 11.4501C41.97 11.2201 41.64 10.9001 41.4 10.4901C41.16 10.0801 41.04 9.62006 41.04 9.09006C41.04 8.56006 41.1601 8.10006 41.3801 7.69006C41.6101 7.28006 41.93 6.96006 42.33 6.73006C42.73 6.50006 43.19 6.38007 43.7 6.38007C44.21 6.38007 44.67 6.49006 45.06 6.72006C45.45 6.95006 45.76 7.26006 45.98 7.67006C46.2 8.08006 46.31 8.56006 46.31 9.11006C46.31 9.15006 46.31 9.20006 46.31 9.25006C46.31 9.30006 46.3 9.35005 46.29 9.40005H41.78V8.71007H45.79L45.4 8.95006C45.41 8.61006 45.34 8.31005 45.19 8.04005C45.04 7.77005 44.84 7.56006 44.58 7.42006C44.32 7.27006 44.03 7.19006 43.69 7.19006C43.36 7.19006 43.06 7.27006 42.8 7.42006C42.54 7.57006 42.34 7.78006 42.19 8.05006C42.04 8.32006 41.97 8.63006 41.97 8.98006V9.14006C41.97 9.49006 42.05 9.81006 42.22 10.0901C42.38 10.3701 42.61 10.5801 42.9 10.7401C43.19 10.8901 43.53 10.9701 43.91 10.9701C44.22 10.9701 44.5101 10.9201 44.7701 10.8101C45.0301 10.7001 45.25 10.5401 45.44 10.3301L45.97 10.9501C45.73 11.2301 45.4301 11.4401 45.0701 11.5901C44.7301 11.7301 44.33 11.8001 43.89 11.8001Z" fill="#F48385"/>
<path d="M49.2001 11.8C48.8101 11.8 48.4601 11.73 48.1601 11.6C47.8601 11.47 47.6401 11.28 47.4801 11.05C47.3201 10.81 47.2401 10.54 47.2401 10.24C47.2401 9.95004 47.3101 9.69004 47.4501 9.46004C47.5901 9.23004 47.8101 9.04002 48.1201 8.90002C48.4301 8.76002 48.8501 8.69003 49.3701 8.69003H51.0501V9.38004H49.4101C48.9301 9.38004 48.6101 9.46003 48.4401 9.62003C48.2701 9.78003 48.1901 9.97003 48.1901 10.2C48.1901 10.46 48.2901 10.67 48.5001 10.82C48.7101 10.98 48.9901 11.05 49.3601 11.05C49.7201 11.05 50.0301 10.97 50.3101 10.81C50.5801 10.65 50.7701 10.42 50.8901 10.11L51.0801 10.77C50.9501 11.08 50.7301 11.33 50.4101 11.52C50.0901 11.71 49.6901 11.8 49.2001 11.8ZM50.9401 11.74V10.62L50.8901 10.41V8.50003C50.8901 8.09003 50.7701 7.78003 50.5301 7.56003C50.2901 7.34003 49.9401 7.23003 49.4701 7.23003C49.1601 7.23003 48.8501 7.28004 48.5501 7.38004C48.2501 7.48004 48.0001 7.62003 47.7901 7.80003L47.3901 7.08003C47.6601 6.86003 47.9901 6.69003 48.3701 6.58003C48.7501 6.46003 49.1601 6.40002 49.5801 6.40002C50.3101 6.40002 50.8701 6.58002 51.2601 6.93002C51.6501 7.28002 51.8501 7.82003 51.8501 8.55003V11.75H50.9401V11.74Z" fill="#F48385"/>
<path d="M53.6301 11.74V6.44002H54.5501V7.88002L54.4601 7.52002C54.6101 7.15002 54.8501 6.87001 55.2001 6.68001C55.5501 6.49001 55.9701 6.39001 56.4801 6.39001V7.32002C56.4401 7.31002 56.4001 7.31001 56.3601 7.31001C56.3201 7.31001 56.2901 7.31001 56.2601 7.31001C55.7501 7.31001 55.3401 7.46002 55.0401 7.77002C54.7401 8.08002 54.5901 8.52002 54.5901 9.10002V11.74H53.6301Z" fill="#F48385"/>
<path d="M60.5601 6.39001C60.9901 6.39001 61.3701 6.47001 61.7001 6.64001C62.0301 6.81001 62.2901 7.06001 62.4801 7.40001C62.6701 7.74001 62.7601 8.17002 62.7601 8.69002V11.74H61.8001V8.80002C61.8001 8.29002 61.6801 7.90001 61.4201 7.64001C61.1701 7.38001 60.8201 7.25002 60.3601 7.25002C60.0201 7.25002 59.7201 7.32001 59.4701 7.45001C59.2201 7.58001 59.0201 7.78001 58.8901 8.04001C58.7501 8.30001 58.6801 8.62001 58.6801 9.01001V11.74H57.7201V6.44002H58.6401V7.87001L58.4901 7.49002C58.6601 7.14002 58.9301 6.87001 59.2901 6.68001C59.6601 6.49001 60.0801 6.39001 60.5601 6.39001Z" fill="#F48385"/>
<path d="M65.0201 5.42004C64.8301 5.42004 64.6801 5.36005 64.5601 5.24005C64.4401 5.12005 64.3801 4.97005 64.3801 4.80005C64.3801 4.62005 64.4401 4.47005 64.5601 4.35005C64.6801 4.23005 64.8401 4.17004 65.0201 4.17004C65.2001 4.17004 65.3601 4.23004 65.4901 4.34004C65.6101 4.46004 65.6701 4.60004 65.6701 4.78004C65.6701 4.96004 65.6101 5.11005 65.4901 5.24005C65.3701 5.37005 65.2101 5.42004 65.0201 5.42004ZM64.5401 11.7401V6.44005H65.5001V11.7401H64.5401Z" fill="#F48385"/>
<path d="M70.1601 6.39001C70.5901 6.39001 70.9701 6.47001 71.3001 6.64001C71.6301 6.81001 71.8901 7.06001 72.0801 7.40001C72.2701 7.74001 72.3601 8.17002 72.3601 8.69002V11.74H71.4001V8.80002C71.4001 8.29002 71.2801 7.90001 71.0201 7.64001C70.7701 7.38001 70.4201 7.25002 69.9601 7.25002C69.6201 7.25002 69.3201 7.32001 69.0701 7.45001C68.8201 7.58001 68.6201 7.78001 68.4901 8.04001C68.3501 8.30001 68.2801 8.62001 68.2801 9.01001V11.74H67.3201V6.44002H68.2401V7.87001L68.0901 7.49002C68.2601 7.14002 68.5301 6.87001 68.8901 6.68001C69.2601 6.49001 69.6801 6.39001 70.1601 6.39001Z" fill="#F48385"/>
<path d="M76.34 11.52C75.83 11.52 75.37 11.41 74.96 11.2C74.55 10.99 74.24 10.68 74 10.29C73.76 9.90001 73.64 9.46001 73.64 8.95001C73.64 8.44001 73.76 7.99002 74 7.61002C74.24 7.23002 74.56 6.93002 74.96 6.71002C75.36 6.49002 75.82 6.39001 76.34 6.39001C76.79 6.39001 77.21 6.48002 77.58 6.66002C77.95 6.84002 78.25 7.13001 78.48 7.51001C78.71 7.89001 78.81 8.37001 78.81 8.95001C78.81 9.52001 78.7 10 78.48 10.38C78.26 10.76 77.96 11.05 77.58 11.23C77.21 11.43 76.79 11.52 76.34 11.52ZM76.46 13.74C75.97 13.74 75.5 13.67 75.04 13.53C74.58 13.39 74.21 13.2 73.92 12.95L74.38 12.21C74.63 12.42 74.93 12.59 75.29 12.71C75.65 12.83 76.03 12.9 76.42 12.9C77.05 12.9 77.51 12.75 77.8 12.46C78.09 12.17 78.24 11.72 78.24 11.12V10L78.34 8.95001L78.29 7.89001V6.44002H79.2V11.02C79.2 11.95 78.97 12.64 78.5 13.08C78.04 13.52 77.36 13.74 76.46 13.74ZM76.45 10.68C76.8 10.68 77.12 10.61 77.39 10.46C77.66 10.31 77.88 10.11 78.03 9.85002C78.19 9.59002 78.27 9.29001 78.27 8.95001C78.27 8.61001 78.19 8.31002 78.03 8.05002C77.87 7.79002 77.66 7.59001 77.39 7.45001C77.12 7.31001 76.8 7.24002 76.45 7.24002C76.1 7.24002 75.78 7.31001 75.51 7.45001C75.23 7.59001 75.02 7.79002 74.86 8.05002C74.7 8.31002 74.62 8.61001 74.62 8.95001C74.62 9.29001 74.7 9.59002 74.86 9.85002C75.02 10.11 75.23 10.31 75.51 10.46C75.78 10.61 76.1 10.68 76.45 10.68Z" fill="#F48385"/>
<path d="M59.8701 82.88V75.88H62.6001C63.2101 75.88 63.7401 75.98 64.1701 76.17C64.6001 76.36 64.9401 76.64 65.1701 77.01C65.4001 77.38 65.5201 77.81 65.5201 78.32C65.5201 78.83 65.4001 79.26 65.1701 79.63C64.9401 80 64.6001 80.27 64.1701 80.47C63.7401 80.67 63.2101 80.76 62.6001 80.76H60.4201L60.8701 80.29V82.88H59.8701ZM60.8701 80.39L60.4201 79.89H62.5701C63.2101 79.89 63.6901 79.75 64.0301 79.48C64.3701 79.21 64.5301 78.82 64.5301 78.32C64.5301 77.82 64.3601 77.43 64.0301 77.16C63.7001 76.89 63.2101 76.75 62.5701 76.75H60.4201L60.8701 76.25V80.39Z" fill="#7EC460"/>
<path d="M69.3101 82.94C68.7401 82.94 68.2501 82.82 67.8201 82.59C67.3901 82.36 67.0601 82.04 66.8201 81.63C66.5801 81.22 66.4601 80.76 66.4601 80.23C66.4601 79.7 66.5801 79.24 66.8001 78.83C67.0301 78.42 67.3501 78.1 67.7501 77.87C68.1501 77.64 68.6101 77.52 69.1201 77.52C69.6301 77.52 70.0901 77.63 70.4801 77.86C70.8701 78.09 71.1801 78.4 71.4001 78.81C71.6201 79.22 71.7301 79.7 71.7301 80.25C71.7301 80.29 71.7301 80.34 71.7301 80.39C71.7301 80.44 71.7201 80.49 71.7101 80.54H67.2001V79.85H71.2101L70.8201 80.09C70.8301 79.75 70.7601 79.45 70.6101 79.18C70.4601 78.91 70.2601 78.7 70.0001 78.56C69.7401 78.41 69.4501 78.33 69.1101 78.33C68.7801 78.33 68.4801 78.41 68.2201 78.56C67.9601 78.71 67.7601 78.92 67.6101 79.19C67.4601 79.46 67.3901 79.77 67.3901 80.12V80.28C67.3901 80.63 67.4701 80.95 67.6401 81.23C67.8001 81.51 68.0301 81.72 68.3201 81.88C68.6101 82.03 68.9501 82.11 69.3301 82.11C69.6401 82.11 69.9301 82.06 70.1901 81.95C70.4501 81.84 70.6701 81.68 70.8601 81.47L71.3901 82.09C71.1501 82.37 70.8501 82.58 70.4901 82.73C70.1501 82.86 69.7501 82.94 69.3101 82.94Z" fill="#7EC460"/>
<path d="M73.0701 82.88V77.58H73.9901V79.02L73.9001 78.66C74.0501 78.29 74.2901 78.01 74.6401 77.82C74.9901 77.63 75.4101 77.53 75.9201 77.53V78.46C75.8801 78.45 75.8401 78.45 75.8001 78.45C75.7601 78.45 75.7301 78.45 75.7001 78.45C75.1901 78.45 74.7801 78.6 74.4801 78.91C74.1801 79.22 74.0301 79.66 74.0301 80.24V82.88H73.0701Z" fill="#7EC460"/>
<path d="M78.6901 82.94C78.2501 82.94 77.8301 82.88 77.4401 82.76C77.0501 82.64 76.7301 82.49 76.5101 82.32L76.9101 81.56C77.1401 81.71 77.4201 81.84 77.7501 81.95C78.0801 82.06 78.4201 82.11 78.7701 82.11C79.2201 82.11 79.5401 82.05 79.7301 81.92C79.9201 81.79 80.0201 81.62 80.0201 81.39C80.0201 81.22 79.9601 81.09 79.8401 81C79.7201 80.91 79.5601 80.84 79.3701 80.79C79.1701 80.74 78.9501 80.7 78.7101 80.67C78.4701 80.64 78.2301 80.59 77.9901 80.53C77.7501 80.47 77.5301 80.39 77.3301 80.29C77.1301 80.19 76.9701 80.04 76.8501 79.86C76.7301 79.68 76.6701 79.43 76.6701 79.13C76.6701 78.81 76.7601 78.53 76.9401 78.29C77.1201 78.05 77.3801 77.87 77.7101 77.74C78.0401 77.61 78.4301 77.54 78.8801 77.54C79.2301 77.54 79.5801 77.58 79.9301 77.66C80.2901 77.74 80.5801 77.86 80.8101 78.01L80.4001 78.77C80.1601 78.61 79.9101 78.5 79.6501 78.44C79.3901 78.38 79.1301 78.35 78.8701 78.35C78.4501 78.35 78.1401 78.42 77.9301 78.55C77.7201 78.69 77.6201 78.86 77.6201 79.08C77.6201 79.26 77.6801 79.4 77.8001 79.5C77.9201 79.6 78.0801 79.67 78.2801 79.72C78.4801 79.77 78.7001 79.82 78.9301 79.86C79.1701 79.9 79.4101 79.94 79.6501 80C79.8901 80.06 80.1101 80.13 80.3001 80.23C80.5001 80.33 80.6601 80.47 80.7801 80.65C80.9001 80.83 80.9601 81.07 80.9601 81.37C80.9601 81.69 80.8701 81.97 80.6801 82.2C80.4901 82.43 80.2301 82.62 79.8901 82.75C79.5701 82.87 79.1601 82.94 78.6901 82.94Z" fill="#7EC460"/>
<path d="M84.4101 82.94C83.9601 82.94 83.5601 82.86 83.2201 82.69C82.8801 82.52 82.6101 82.27 82.4201 81.92C82.2301 81.58 82.1401 81.15 82.1401 80.63V77.58H83.1001V80.52C83.1001 81.04 83.2201 81.43 83.4801 81.69C83.7301 81.95 84.0801 82.08 84.5301 82.08C84.8601 82.08 85.1501 82.01 85.4001 81.87C85.6501 81.73 85.8401 81.53 85.9701 81.27C86.1001 81.01 86.1701 80.69 86.1701 80.31V77.57H87.1301V82.87H86.2201V81.44L86.3701 81.82C86.2001 82.17 85.9401 82.45 85.5901 82.64C85.2401 82.83 84.8401 82.94 84.4101 82.94Z" fill="#7EC460"/>
<path d="M90.5002 82.94C90.1102 82.94 89.7602 82.87 89.4602 82.74C89.1602 82.61 88.9402 82.42 88.7802 82.19C88.6202 81.95 88.5402 81.68 88.5402 81.38C88.5402 81.09 88.6102 80.83 88.7502 80.6C88.8902 80.37 89.1102 80.18 89.4202 80.04C89.7302 79.9 90.1502 79.83 90.6702 79.83H92.3502V80.52H90.7102C90.2302 80.52 89.9102 80.6 89.7402 80.76C89.5702 80.92 89.4902 81.11 89.4902 81.34C89.4902 81.6 89.5902 81.81 89.8002 81.96C90.0102 82.12 90.2902 82.19 90.6602 82.19C91.0202 82.19 91.3302 82.11 91.6102 81.95C91.8802 81.79 92.0702 81.56 92.1902 81.25L92.3802 81.91C92.2502 82.22 92.0302 82.47 91.7102 82.66C91.3902 82.84 90.9802 82.94 90.5002 82.94ZM92.2402 82.88V81.76L92.1902 81.55V79.64C92.1902 79.23 92.0702 78.92 91.8302 78.7C91.5902 78.48 91.2402 78.37 90.7702 78.37C90.4602 78.37 90.1502 78.42 89.8502 78.52C89.5502 78.62 89.3002 78.76 89.0902 78.94L88.6902 78.22C88.9602 78 89.2902 77.83 89.6702 77.72C90.0502 77.6 90.4602 77.54 90.8802 77.54C91.6102 77.54 92.1702 77.72 92.5602 78.07C92.9502 78.42 93.1502 78.96 93.1502 79.69V82.89H92.2402V82.88Z" fill="#7EC460"/>
<path d="M96.4501 82.94C96.0101 82.94 95.5901 82.88 95.2001 82.76C94.8101 82.64 94.4901 82.49 94.2701 82.32L94.6701 81.56C94.9001 81.71 95.1801 81.84 95.5101 81.95C95.8401 82.06 96.1801 82.11 96.5301 82.11C96.9801 82.11 97.3001 82.05 97.4901 81.92C97.6801 81.79 97.7801 81.62 97.7801 81.39C97.7801 81.22 97.7201 81.09 97.6001 81C97.4801 80.91 97.3201 80.84 97.1301 80.79C96.9301 80.74 96.7101 80.7 96.4701 80.67C96.2301 80.64 95.9901 80.59 95.7501 80.53C95.5101 80.47 95.2901 80.39 95.0901 80.29C94.8901 80.19 94.7301 80.04 94.6101 79.86C94.4901 79.68 94.4301 79.43 94.4301 79.13C94.4301 78.81 94.5201 78.53 94.7001 78.29C94.8801 78.05 95.1401 77.87 95.4701 77.74C95.8001 77.61 96.1901 77.54 96.6401 77.54C96.9901 77.54 97.3401 77.58 97.6901 77.66C98.0501 77.74 98.3401 77.86 98.5701 78.01L98.1601 78.77C97.9201 78.61 97.6701 78.5 97.4101 78.44C97.1501 78.38 96.8901 78.35 96.6301 78.35C96.2101 78.35 95.9001 78.42 95.6901 78.55C95.4801 78.69 95.3801 78.86 95.3801 79.08C95.3801 79.26 95.4401 79.4 95.5601 79.5C95.6801 79.6 95.8401 79.67 96.0401 79.72C96.2401 79.77 96.4601 79.82 96.6901 79.86C96.9301 79.9 97.1701 79.94 97.4101 80C97.6501 80.06 97.8701 80.13 98.0601 80.23C98.2601 80.33 98.4201 80.47 98.5401 80.65C98.6601 80.83 98.7201 81.07 98.7201 81.37C98.7201 81.69 98.6301 81.97 98.4401 82.2C98.2501 82.43 97.9901 82.62 97.6501 82.75C97.3301 82.87 96.9201 82.94 96.4501 82.94Z" fill="#7EC460"/>
<path d="M100.42 76.56C100.23 76.56 100.08 76.5 99.9602 76.38C99.8402 76.26 99.7802 76.11 99.7802 75.94C99.7802 75.76 99.8402 75.61 99.9602 75.49C100.08 75.37 100.24 75.31 100.42 75.31C100.6 75.31 100.76 75.37 100.89 75.48C101.01 75.6 101.07 75.74 101.07 75.92C101.07 76.1 101.01 76.25 100.89 76.38C100.77 76.51 100.61 76.56 100.42 76.56ZM99.9402 82.88V77.58H100.9V82.88H99.9402Z" fill="#7EC460"/>
<path d="M105 82.94C104.47 82.94 104 82.82 103.58 82.59C103.16 82.36 102.83 82.03 102.6 81.63C102.36 81.22 102.24 80.75 102.24 80.23C102.24 79.7 102.36 79.24 102.6 78.83C102.84 78.43 103.17 78.11 103.58 77.87C103.99 77.63 104.47 77.52 105 77.52C105.53 77.52 106 77.64 106.42 77.87C106.84 78.1 107.16 78.42 107.4 78.83C107.64 79.24 107.75 79.7 107.75 80.23C107.75 80.76 107.63 81.22 107.4 81.63C107.16 82.04 106.84 82.36 106.42 82.59C105.99 82.82 105.52 82.94 105 82.94ZM105 82.1C105.34 82.1 105.65 82.02 105.92 81.87C106.19 81.72 106.4 81.5 106.56 81.21C106.71 80.93 106.79 80.6 106.79 80.23C106.79 79.85 106.71 79.52 106.56 79.25C106.41 78.97 106.19 78.76 105.92 78.6C105.65 78.45 105.34 78.37 105 78.37C104.66 78.37 104.36 78.45 104.09 78.6C103.82 78.75 103.61 78.97 103.45 79.25C103.29 79.53 103.21 79.85 103.21 80.23C103.21 80.6 103.29 80.93 103.45 81.21C103.61 81.49 103.82 81.71 104.09 81.87C104.36 82.03 104.66 82.1 105 82.1Z" fill="#7EC460"/>
<path d="M111.91 77.53C112.34 77.53 112.72 77.61 113.05 77.78C113.38 77.95 113.64 78.2 113.83 78.54C114.02 78.88 114.11 79.31 114.11 79.83V82.88H113.15V79.94C113.15 79.43 113.03 79.04 112.77 78.78C112.52 78.52 112.17 78.39 111.71 78.39C111.37 78.39 111.07 78.46 110.82 78.59C110.57 78.72 110.37 78.92 110.24 79.18C110.1 79.44 110.03 79.76 110.03 80.15V82.88H109.07V77.58H110V79.01L109.85 78.63C110.02 78.28 110.29 78.01 110.65 77.82C111 77.62 111.42 77.53 111.91 77.53Z" fill="#7EC460"/>
<path d="M195.04 20.7001C194.63 20.7001 194.24 20.6101 193.88 20.4401C193.52 20.2701 193.23 20.0201 193 19.6901L193.58 19.0101C193.77 19.2801 193.99 19.4801 194.23 19.6201C194.47 19.7601 194.74 19.8401 195.04 19.8401C195.84 19.8401 196.24 19.3701 196.24 18.4201V14.4901H193.71V13.6201H197.23V18.3701C197.23 19.1501 197.05 19.7301 196.68 20.1201C196.31 20.5101 195.76 20.7001 195.04 20.7001Z" fill="#EB78AF"/>
<path d="M201.36 20.6801C200.91 20.6801 200.51 20.6001 200.17 20.4301C199.83 20.2601 199.56 20.0101 199.37 19.6601C199.18 19.3201 199.09 18.8901 199.09 18.3701V15.3201H200.05V18.2601C200.05 18.7801 200.17 19.1701 200.43 19.4301C200.68 19.6901 201.03 19.8201 201.48 19.8201C201.81 19.8201 202.1 19.7501 202.35 19.6101C202.6 19.4701 202.79 19.2701 202.92 19.0101C203.05 18.7501 203.12 18.4301 203.12 18.0501V15.3101H204.08V20.6101H203.17V19.1801L203.32 19.5601C203.15 19.9101 202.89 20.1901 202.54 20.3801C202.19 20.5701 201.79 20.6801 201.36 20.6801Z" fill="#EB78AF"/>
<path d="M208.09 20.6801C207.58 20.6801 207.12 20.5701 206.71 20.3401C206.3 20.1101 205.99 19.8001 205.75 19.3901C205.51 18.9801 205.4 18.5101 205.4 17.9701C205.4 17.4301 205.52 16.9601 205.75 16.5501C205.98 16.1401 206.3 15.8301 206.71 15.6101C207.12 15.3901 207.57 15.2701 208.09 15.2701C208.54 15.2701 208.94 15.3701 209.3 15.5701C209.66 15.7701 209.95 16.0701 210.17 16.4701C210.39 16.8701 210.5 17.3701 210.5 17.9701C210.5 18.5701 210.39 19.0701 210.18 19.4701C209.97 19.8701 209.69 20.1701 209.33 20.3701C208.96 20.5801 208.55 20.6801 208.09 20.6801ZM208.17 19.8401C208.5 19.8401 208.81 19.7601 209.08 19.6101C209.35 19.4601 209.56 19.2401 209.72 18.9501C209.88 18.6701 209.96 18.3401 209.96 17.9701C209.96 17.5901 209.88 17.2601 209.72 16.9901C209.56 16.7101 209.35 16.5001 209.08 16.3401C208.81 16.1901 208.51 16.1101 208.17 16.1101C207.83 16.1101 207.53 16.1901 207.26 16.3401C206.99 16.4901 206.78 16.7101 206.62 16.9901C206.46 17.2701 206.38 17.5901 206.38 17.9701C206.38 18.3401 206.46 18.6701 206.62 18.9501C206.78 19.2301 206.99 19.4501 207.26 19.6101C207.53 19.7701 207.83 19.8401 208.17 19.8401ZM209.98 20.6201V19.1901L210.04 17.9601L209.94 16.7301V13.2001H210.9V20.6201H209.98Z" fill="#EB78AF"/>
<path d="M214.92 20.4C214.41 20.4 213.95 20.29 213.54 20.08C213.13 19.87 212.82 19.56 212.58 19.17C212.34 18.78 212.22 18.34 212.22 17.83C212.22 17.32 212.34 16.87 212.58 16.49C212.82 16.11 213.14 15.81 213.54 15.59C213.94 15.37 214.4 15.27 214.92 15.27C215.37 15.27 215.79 15.36 216.16 15.54C216.53 15.72 216.83 16.01 217.06 16.39C217.29 16.77 217.39 17.25 217.39 17.83C217.39 18.4 217.28 18.88 217.06 19.26C216.84 19.64 216.54 19.93 216.16 20.11C215.79 20.31 215.38 20.4 214.92 20.4ZM215.04 22.62C214.55 22.62 214.08 22.55 213.62 22.41C213.16 22.27 212.79 22.08 212.5 21.83L212.96 21.09C213.21 21.3 213.51 21.47 213.87 21.59C214.23 21.71 214.61 21.78 215 21.78C215.63 21.78 216.09 21.63 216.38 21.34C216.67 21.05 216.82 20.6 216.82 20V18.88L216.92 17.83L216.87 16.77V15.32H217.78V19.9C217.78 20.83 217.55 21.52 217.08 21.96C216.62 22.4 215.94 22.62 215.04 22.62ZM215.03 19.56C215.38 19.56 215.7 19.49 215.97 19.34C216.24 19.19 216.46 18.99 216.61 18.73C216.77 18.47 216.85 18.17 216.85 17.83C216.85 17.49 216.77 17.19 216.61 16.93C216.45 16.67 216.24 16.47 215.97 16.33C215.7 16.19 215.38 16.12 215.03 16.12C214.68 16.12 214.36 16.19 214.09 16.33C213.81 16.47 213.6 16.67 213.44 16.93C213.28 17.19 213.2 17.49 213.2 17.83C213.2 18.17 213.28 18.47 213.44 18.73C213.6 18.99 213.81 19.19 214.09 19.34C214.36 19.49 214.68 19.56 215.03 19.56Z" fill="#EB78AF"/>
<path d="M221.98 20.68C221.41 20.68 220.92 20.56 220.49 20.33C220.06 20.1 219.73 19.78 219.49 19.37C219.25 18.96 219.13 18.5 219.13 17.97C219.13 17.44 219.25 16.98 219.47 16.57C219.7 16.16 220.02 15.84 220.42 15.61C220.82 15.38 221.28 15.26 221.79 15.26C222.3 15.26 222.76 15.37 223.15 15.6C223.54 15.83 223.85 16.14 224.07 16.55C224.29 16.96 224.4 17.44 224.4 17.99C224.4 18.03 224.4 18.08 224.4 18.13C224.4 18.18 224.39 18.23 224.38 18.28H219.87V17.59H223.88L223.49 17.83C223.5 17.49 223.43 17.19 223.28 16.92C223.13 16.65 222.93 16.44 222.67 16.3C222.41 16.15 222.12 16.07 221.78 16.07C221.45 16.07 221.15 16.15 220.89 16.3C220.63 16.45 220.43 16.66 220.28 16.93C220.13 17.2 220.06 17.51 220.06 17.86V18.02C220.06 18.37 220.14 18.69 220.31 18.97C220.47 19.25 220.7 19.46 220.99 19.62C221.28 19.77 221.62 19.85 222 19.85C222.31 19.85 222.6 19.8 222.86 19.69C223.12 19.58 223.34 19.42 223.53 19.21L224.06 19.83C223.82 20.11 223.52 20.32 223.16 20.47C222.82 20.61 222.42 20.68 221.98 20.68Z" fill="#EB78AF"/>
<path d="M232.37 15.27C232.8 15.27 233.17 15.35 233.5 15.52C233.83 15.69 234.08 15.94 234.26 16.28C234.44 16.62 234.54 17.05 234.54 17.57V20.62H233.58V17.68C233.58 17.17 233.46 16.78 233.22 16.52C232.98 16.26 232.64 16.13 232.21 16.13C231.89 16.13 231.61 16.2 231.37 16.33C231.13 16.46 230.95 16.66 230.82 16.92C230.69 17.18 230.62 17.5 230.62 17.89V20.62H229.66V17.68C229.66 17.17 229.54 16.78 229.3 16.52C229.06 16.26 228.73 16.13 228.29 16.13C227.98 16.13 227.7 16.2 227.46 16.33C227.22 16.46 227.03 16.66 226.9 16.92C226.77 17.18 226.7 17.5 226.7 17.89V20.62H225.74V15.32H226.66V16.73L226.51 16.37C226.68 16.02 226.93 15.75 227.28 15.56C227.63 15.37 228.03 15.27 228.49 15.27C229 15.27 229.43 15.39 229.8 15.65C230.17 15.9 230.41 16.28 230.52 16.79L230.13 16.63C230.29 16.22 230.57 15.9 230.97 15.65C231.37 15.39 231.84 15.27 232.37 15.27Z" fill="#EB78AF"/>
<path d="M238.67 20.68C238.1 20.68 237.61 20.56 237.18 20.33C236.75 20.1 236.42 19.78 236.18 19.37C235.94 18.96 235.82 18.5 235.82 17.97C235.82 17.44 235.94 16.98 236.16 16.57C236.39 16.16 236.71 15.84 237.11 15.61C237.51 15.38 237.97 15.26 238.48 15.26C238.99 15.26 239.45 15.37 239.84 15.6C240.23 15.83 240.54 16.14 240.76 16.55C240.98 16.96 241.09 17.44 241.09 17.99C241.09 18.03 241.09 18.08 241.09 18.13C241.09 18.18 241.08 18.23 241.07 18.28H236.56V17.59H240.57L240.18 17.83C240.19 17.49 240.12 17.19 239.97 16.92C239.82 16.65 239.62 16.44 239.36 16.3C239.1 16.15 238.81 16.07 238.47 16.07C238.14 16.07 237.84 16.15 237.58 16.3C237.32 16.45 237.12 16.66 236.97 16.93C236.82 17.2 236.75 17.51 236.75 17.86V18.02C236.75 18.37 236.83 18.69 237 18.97C237.16 19.25 237.39 19.46 237.68 19.62C237.97 19.77 238.31 19.85 238.69 19.85C239 19.85 239.29 19.8 239.55 19.69C239.81 19.58 240.03 19.42 240.22 19.21L240.75 19.83C240.51 20.11 240.21 20.32 239.85 20.47C239.51 20.61 239.11 20.68 238.67 20.68Z" fill="#EB78AF"/>
<path d="M245.26 15.27C245.69 15.27 246.07 15.35 246.4 15.52C246.73 15.69 246.99 15.94 247.18 16.28C247.37 16.62 247.46 17.05 247.46 17.57V20.62H246.5V17.68C246.5 17.17 246.38 16.78 246.12 16.52C245.87 16.26 245.52 16.13 245.06 16.13C244.72 16.13 244.42 16.2 244.17 16.33C243.92 16.46 243.72 16.66 243.59 16.92C243.45 17.18 243.38 17.5 243.38 17.89V20.62H242.42V15.32H243.34V16.75L243.19 16.37C243.36 16.02 243.63 15.75 243.99 15.56C244.36 15.37 244.78 15.27 245.26 15.27Z" fill="#EB78AF"/>
<path d="M248.48 16.11V15.32H251.86V16.11H248.48ZM251.06 20.68C250.53 20.68 250.11 20.54 249.82 20.25C249.53 19.96 249.38 19.55 249.38 19.02V14.16H250.34V18.98C250.34 19.27 250.41 19.49 250.55 19.64C250.69 19.79 250.9 19.87 251.17 19.87C251.47 19.87 251.72 19.79 251.92 19.62L252.22 20.31C252.07 20.44 251.9 20.53 251.7 20.59C251.49 20.65 251.28 20.68 251.06 20.68Z" fill="#EB78AF"/>
<path d="M257.62 20.68C257.23 20.68 256.88 20.61 256.58 20.48C256.28 20.35 256.06 20.16 255.9 19.93C255.74 19.69 255.66 19.42 255.66 19.12C255.66 18.83 255.73 18.57 255.87 18.34C256.01 18.11 256.23 17.92 256.54 17.78C256.85 17.64 257.27 17.57 257.79 17.57H259.47V18.26H257.83C257.35 18.26 257.03 18.34 256.86 18.5C256.69 18.66 256.61 18.85 256.61 19.08C256.61 19.34 256.71 19.55 256.92 19.7C257.13 19.86 257.41 19.93 257.78 19.93C258.14 19.93 258.45 19.85 258.73 19.69C259 19.53 259.19 19.3 259.31 18.99L259.5 19.65C259.37 19.96 259.15 20.21 258.83 20.4C258.51 20.59 258.11 20.68 257.62 20.68ZM259.36 20.62V19.5L259.31 19.29V17.38C259.31 16.97 259.19 16.66 258.95 16.44C258.71 16.22 258.36 16.11 257.89 16.11C257.58 16.11 257.27 16.16 256.97 16.26C256.67 16.36 256.42 16.5 256.21 16.68L255.81 15.96C256.08 15.74 256.41 15.57 256.79 15.46C257.17 15.34 257.58 15.28 258 15.28C258.73 15.28 259.29 15.46 259.68 15.81C260.07 16.16 260.27 16.7 260.27 17.43V20.63H259.36V20.62Z" fill="#EB78AF"/>
<path d="M264.88 15.27C265.31 15.27 265.69 15.35 266.02 15.52C266.35 15.69 266.61 15.94 266.8 16.28C266.99 16.62 267.08 17.05 267.08 17.57V20.62H266.12V17.68C266.12 17.17 266 16.78 265.74 16.52C265.49 16.26 265.14 16.13 264.68 16.13C264.34 16.13 264.04 16.2 263.79 16.33C263.54 16.46 263.34 16.66 263.21 16.92C263.07 17.18 263 17.5 263 17.89V20.62H262.04V15.32H262.96V16.75L262.81 16.37C262.98 16.02 263.25 15.75 263.61 15.56C263.98 15.37 264.4 15.27 264.88 15.27Z" fill="#EB78AF"/>
<path d="M271.05 20.6801C270.54 20.6801 270.08 20.5701 269.67 20.3401C269.26 20.1101 268.95 19.8001 268.71 19.3901C268.47 18.9801 268.36 18.5101 268.36 17.9701C268.36 17.4301 268.48 16.9601 268.71 16.5501C268.94 16.1401 269.26 15.8301 269.67 15.6101C270.08 15.3901 270.53 15.2701 271.05 15.2701C271.5 15.2701 271.9 15.3701 272.26 15.5701C272.62 15.7701 272.91 16.0701 273.13 16.4701C273.35 16.8701 273.46 17.3701 273.46 17.9701C273.46 18.5701 273.35 19.0701 273.14 19.4701C272.93 19.8701 272.65 20.1701 272.29 20.3701C271.92 20.5801 271.51 20.6801 271.05 20.6801ZM271.13 19.8401C271.46 19.8401 271.77 19.7601 272.04 19.6101C272.31 19.4601 272.52 19.2401 272.68 18.9501C272.84 18.6701 272.92 18.3401 272.92 17.9701C272.92 17.5901 272.84 17.2601 272.68 16.9901C272.52 16.7101 272.31 16.5001 272.04 16.3401C271.77 16.1901 271.47 16.1101 271.13 16.1101C270.79 16.1101 270.49 16.1901 270.22 16.3401C269.95 16.4901 269.74 16.7101 269.58 16.9901C269.42 17.2701 269.34 17.5901 269.34 17.9701C269.34 18.3401 269.42 18.6701 269.58 18.9501C269.74 19.2301 269.95 19.4501 270.22 19.6101C270.49 19.7701 270.79 19.8401 271.13 19.8401ZM272.94 20.6201V19.1901L273 17.9601L272.9 16.7301V13.2001H273.86V20.6201H272.94Z" fill="#EB78AF"/>
<path d="M278.51 20.6201V13.6201H281.46C282.21 13.6201 282.87 13.7701 283.43 14.0601C284 14.3501 284.44 14.7601 284.76 15.2901C285.08 15.8201 285.24 16.4301 285.24 17.1201C285.24 17.8101 285.08 18.4201 284.76 18.9501C284.44 19.4801 284 19.8901 283.43 20.1801C282.86 20.4701 282.2 20.6201 281.46 20.6201H278.51ZM279.51 19.7501H281.4C281.98 19.7501 282.48 19.6401 282.9 19.4201C283.32 19.2001 283.65 18.8901 283.88 18.5001C284.11 18.1101 284.23 17.6501 284.23 17.1201C284.23 16.5901 284.11 16.1301 283.88 15.7401C283.65 15.3501 283.32 15.0401 282.9 14.8201C282.48 14.6001 281.97 14.4901 281.4 14.4901H279.51V19.7501Z" fill="#EB78AF"/>
<path d="M288.99 20.68C288.42 20.68 287.93 20.56 287.5 20.33C287.07 20.1 286.74 19.78 286.5 19.37C286.26 18.96 286.14 18.5 286.14 17.97C286.14 17.44 286.26 16.98 286.48 16.57C286.71 16.16 287.03 15.84 287.43 15.61C287.83 15.38 288.29 15.26 288.8 15.26C289.31 15.26 289.77 15.37 290.16 15.6C290.55 15.83 290.86 16.14 291.08 16.55C291.3 16.96 291.41 17.44 291.41 17.99C291.41 18.03 291.41 18.08 291.41 18.13C291.41 18.18 291.4 18.23 291.39 18.28H286.88V17.59H290.89L290.5 17.83C290.51 17.49 290.44 17.19 290.29 16.92C290.14 16.65 289.94 16.44 289.68 16.3C289.42 16.15 289.13 16.07 288.79 16.07C288.46 16.07 288.16 16.15 287.9 16.3C287.64 16.45 287.44 16.66 287.29 16.93C287.14 17.2 287.07 17.51 287.07 17.86V18.02C287.07 18.37 287.15 18.69 287.32 18.97C287.48 19.25 287.71 19.46 288 19.62C288.29 19.77 288.63 19.85 289.01 19.85C289.32 19.85 289.61 19.8 289.87 19.69C290.13 19.58 290.35 19.42 290.54 19.21L291.07 19.83C290.83 20.11 290.53 20.32 290.17 20.47C289.83 20.61 289.43 20.68 288.99 20.68Z" fill="#EB78AF"/>
<path d="M295.06 20.68C294.52 20.68 294.04 20.56 293.62 20.33C293.2 20.1 292.86 19.78 292.62 19.37C292.38 18.96 292.26 18.5 292.26 17.97C292.26 17.44 292.38 16.98 292.62 16.57C292.86 16.16 293.19 15.84 293.62 15.61C294.04 15.38 294.52 15.26 295.06 15.26C295.54 15.26 295.97 15.36 296.35 15.55C296.73 15.74 297.02 16.02 297.23 16.39L296.5 16.86C296.33 16.6 296.11 16.41 295.86 16.28C295.61 16.16 295.34 16.1 295.06 16.1C294.71 16.1 294.4 16.18 294.13 16.33C293.86 16.48 293.64 16.7 293.48 16.98C293.32 17.26 293.24 17.58 293.24 17.96C293.24 18.34 293.32 18.67 293.48 18.95C293.64 19.23 293.86 19.45 294.13 19.6C294.4 19.75 294.71 19.83 295.06 19.83C295.35 19.83 295.61 19.77 295.86 19.64C296.11 19.52 296.32 19.33 296.5 19.06L297.23 19.52C297.02 19.89 296.73 20.17 296.35 20.37C295.97 20.57 295.54 20.68 295.06 20.68Z" fill="#EB78AF"/>
<path d="M298.94 14.3C298.75 14.3 298.6 14.24 298.48 14.12C298.36 14 298.3 13.85 298.3 13.68C298.3 13.5 298.36 13.35 298.48 13.23C298.6 13.11 298.76 13.05 298.94 13.05C299.12 13.05 299.28 13.11 299.41 13.22C299.53 13.34 299.59 13.48 299.59 13.66C299.59 13.84 299.53 13.99 299.41 14.12C299.29 14.25 299.13 14.3 298.94 14.3ZM298.46 20.62V15.3201H299.42V20.62H298.46Z" fill="#EB78AF"/>
<path d="M302.77 20.68C302.33 20.68 301.91 20.62 301.52 20.5C301.13 20.38 300.81 20.23 300.59 20.06L300.99 19.3C301.22 19.45 301.5 19.58 301.83 19.69C302.16 19.8 302.5 19.85 302.85 19.85C303.3 19.85 303.62 19.79 303.81 19.66C304 19.53 304.1 19.36 304.1 19.13C304.1 18.96 304.04 18.83 303.92 18.74C303.8 18.65 303.64 18.58 303.45 18.53C303.25 18.48 303.03 18.44 302.79 18.41C302.55 18.38 302.31 18.33 302.07 18.27C301.83 18.21 301.61 18.13 301.41 18.03C301.21 17.93 301.05 17.78 300.93 17.6C300.81 17.42 300.75 17.17 300.75 16.87C300.75 16.55 300.84 16.27 301.02 16.03C301.2 15.79 301.46 15.61 301.79 15.48C302.12 15.35 302.51 15.28 302.96 15.28C303.31 15.28 303.66 15.32 304.01 15.4C304.37 15.48 304.66 15.6 304.89 15.75L304.48 16.51C304.24 16.35 303.99 16.24 303.73 16.18C303.47 16.12 303.21 16.09 302.95 16.09C302.53 16.09 302.22 16.16 302.01 16.29C301.8 16.43 301.7 16.6 301.7 16.82C301.7 17 301.76 17.14 301.88 17.24C302 17.34 302.16 17.41 302.36 17.46C302.56 17.51 302.78 17.56 303.01 17.6C303.25 17.64 303.49 17.68 303.73 17.74C303.97 17.8 304.19 17.87 304.38 17.97C304.58 18.07 304.74 18.21 304.86 18.39C304.98 18.57 305.04 18.81 305.04 19.11C305.04 19.43 304.95 19.71 304.76 19.94C304.57 20.17 304.31 20.36 303.97 20.49C303.65 20.62 303.24 20.68 302.77 20.68Z" fill="#EB78AF"/>
<path d="M306.74 14.3C306.55 14.3 306.4 14.24 306.28 14.12C306.16 14 306.1 13.85 306.1 13.68C306.1 13.5 306.16 13.35 306.28 13.23C306.4 13.11 306.56 13.05 306.74 13.05C306.92 13.05 307.08 13.11 307.21 13.22C307.33 13.34 307.39 13.48 307.39 13.66C307.39 13.84 307.33 13.99 307.21 14.12C307.09 14.25 306.93 14.3 306.74 14.3ZM306.26 20.62V15.3201H307.22V20.62H306.26Z" fill="#EB78AF"/>
<path d="M311.32 20.68C310.79 20.68 310.32 20.56 309.9 20.33C309.48 20.1 309.15 19.77 308.92 19.37C308.68 18.96 308.56 18.49 308.56 17.97C308.56 17.44 308.68 16.98 308.92 16.57C309.16 16.17 309.49 15.85 309.9 15.61C310.31 15.37 310.79 15.26 311.32 15.26C311.85 15.26 312.32 15.38 312.74 15.61C313.16 15.84 313.48 16.16 313.72 16.57C313.96 16.98 314.07 17.44 314.07 17.97C314.07 18.5 313.95 18.96 313.72 19.37C313.48 19.78 313.16 20.1 312.74 20.33C312.32 20.56 311.85 20.68 311.32 20.68ZM311.32 19.84C311.66 19.84 311.97 19.76 312.24 19.61C312.51 19.46 312.72 19.24 312.88 18.95C313.03 18.67 313.11 18.34 313.11 17.97C313.11 17.59 313.03 17.26 312.88 16.99C312.73 16.71 312.51 16.5 312.24 16.34C311.97 16.19 311.66 16.11 311.32 16.11C310.98 16.11 310.68 16.19 310.41 16.34C310.14 16.49 309.93 16.71 309.77 16.99C309.61 17.27 309.53 17.59 309.53 17.97C309.53 18.34 309.61 18.67 309.77 18.95C309.93 19.23 310.14 19.45 310.41 19.61C310.68 19.77 310.98 19.84 311.32 19.84Z" fill="#EB78AF"/>
<path d="M318.23 15.27C318.66 15.27 319.04 15.35 319.37 15.52C319.7 15.69 319.96 15.94 320.15 16.28C320.34 16.62 320.43 17.05 320.43 17.57V20.62H319.47V17.68C319.47 17.17 319.35 16.78 319.09 16.52C318.84 16.26 318.49 16.13 318.03 16.13C317.69 16.13 317.39 16.2 317.14 16.33C316.89 16.46 316.69 16.66 316.56 16.92C316.42 17.18 316.35 17.5 316.35 17.89V20.62H315.39V15.32H316.31V16.75L316.16 16.37C316.33 16.02 316.6 15.75 316.96 15.56C317.33 15.37 317.75 15.27 318.23 15.27Z" fill="#EB78AF"/>
<path d="M331.53 15.27C331.96 15.27 332.33 15.35 332.66 15.52C332.99 15.69 333.24 15.94 333.42 16.28C333.6 16.62 333.7 17.05 333.7 17.57V20.62H332.74V17.68C332.74 17.17 332.62 16.78 332.38 16.52C332.14 16.26 331.8 16.13 331.37 16.13C331.05 16.13 330.77 16.2 330.53 16.33C330.29 16.46 330.11 16.66 329.98 16.92C329.85 17.18 329.78 17.5 329.78 17.89V20.62H328.82V17.68C328.82 17.17 328.7 16.78 328.46 16.52C328.22 16.26 327.89 16.13 327.45 16.13C327.14 16.13 326.86 16.2 326.62 16.33C326.38 16.46 326.19 16.66 326.06 16.92C325.93 17.18 325.86 17.5 325.86 17.89V20.62H324.9V15.32H325.82V16.73L325.67 16.37C325.84 16.02 326.09 15.75 326.44 15.56C326.79 15.37 327.19 15.27 327.65 15.27C328.16 15.27 328.59 15.39 328.96 15.65C329.33 15.9 329.57 16.28 329.68 16.79L329.29 16.63C329.45 16.22 329.73 15.9 330.13 15.65C330.53 15.39 331 15.27 331.53 15.27Z" fill="#EB78AF"/>
<path d="M337.02 20.68C336.63 20.68 336.28 20.61 335.98 20.48C335.68 20.35 335.46 20.16 335.3 19.93C335.14 19.69 335.06 19.42 335.06 19.12C335.06 18.83 335.13 18.57 335.27 18.34C335.41 18.11 335.63 17.92 335.94 17.78C336.25 17.64 336.67 17.57 337.19 17.57H338.87V18.26H337.23C336.75 18.26 336.43 18.34 336.26 18.5C336.09 18.66 336.01 18.85 336.01 19.08C336.01 19.34 336.11 19.55 336.32 19.7C336.53 19.86 336.81 19.93 337.18 19.93C337.54 19.93 337.85 19.85 338.13 19.69C338.4 19.53 338.59 19.3 338.71 18.99L338.9 19.65C338.77 19.96 338.55 20.21 338.23 20.4C337.91 20.59 337.51 20.68 337.02 20.68ZM338.76 20.62V19.5L338.71 19.29V17.38C338.71 16.97 338.59 16.66 338.35 16.44C338.11 16.22 337.76 16.11 337.29 16.11C336.98 16.11 336.67 16.16 336.37 16.26C336.07 16.36 335.82 16.5 335.61 16.68L335.21 15.96C335.48 15.74 335.81 15.57 336.19 15.46C336.57 15.34 336.98 15.28 337.4 15.28C338.13 15.28 338.69 15.46 339.08 15.81C339.47 16.16 339.67 16.7 339.67 17.43V20.63H338.76V20.62Z" fill="#EB78AF"/>
<path d="M341.45 20.6201V13.2001H342.41V20.6201H341.45ZM342.23 19.3401L342.25 18.1101L345.3 15.3201H346.46L344.12 17.6201L343.6 18.0601L342.23 19.3401ZM345.5 20.6201L343.42 18.0401L344.04 17.2701L346.68 20.6201H345.5Z" fill="#EB78AF"/>
<path d="M348.09 14.3C347.9 14.3 347.75 14.24 347.63 14.12C347.51 14 347.45 13.85 347.45 13.68C347.45 13.5 347.51 13.35 347.63 13.23C347.75 13.11 347.91 13.05 348.09 13.05C348.27 13.05 348.43 13.11 348.56 13.22C348.68 13.34 348.74 13.48 348.74 13.66C348.74 13.84 348.68 13.99 348.56 14.12C348.44 14.25 348.28 14.3 348.09 14.3ZM347.61 20.62V15.3201H348.57V20.62H347.61Z" fill="#EB78AF"/>
<path d="M353.23 15.27C353.66 15.27 354.04 15.35 354.37 15.52C354.7 15.69 354.96 15.94 355.15 16.28C355.34 16.62 355.43 17.05 355.43 17.57V20.62H354.47V17.68C354.47 17.17 354.35 16.78 354.09 16.52C353.84 16.26 353.49 16.13 353.03 16.13C352.69 16.13 352.39 16.2 352.14 16.33C351.89 16.46 351.69 16.66 351.56 16.92C351.42 17.18 351.35 17.5 351.35 17.89V20.62H350.39V15.32H351.31V16.75L351.16 16.37C351.33 16.02 351.6 15.75 351.96 15.56C352.33 15.37 352.75 15.27 353.23 15.27Z" fill="#EB78AF"/>
<path d="M359.41 20.4C358.9 20.4 358.44 20.29 358.03 20.08C357.62 19.87 357.31 19.56 357.07 19.17C356.83 18.78 356.71 18.34 356.71 17.83C356.71 17.32 356.83 16.87 357.07 16.49C357.31 16.11 357.63 15.81 358.03 15.59C358.43 15.37 358.89 15.27 359.41 15.27C359.86 15.27 360.28 15.36 360.65 15.54C361.02 15.72 361.32 16.01 361.55 16.39C361.78 16.77 361.88 17.25 361.88 17.83C361.88 18.4 361.77 18.88 361.55 19.26C361.33 19.64 361.03 19.93 360.65 20.11C360.28 20.31 359.86 20.4 359.41 20.4ZM359.53 22.62C359.04 22.62 358.57 22.55 358.11 22.41C357.65 22.27 357.28 22.08 356.99 21.83L357.45 21.09C357.7 21.3 358 21.47 358.36 21.59C358.72 21.71 359.1 21.78 359.49 21.78C360.12 21.78 360.58 21.63 360.87 21.34C361.16 21.05 361.31 20.6 361.31 20V18.88L361.41 17.83L361.36 16.77V15.32H362.27V19.9C362.27 20.83 362.04 21.52 361.57 21.96C361.11 22.4 360.43 22.62 359.53 22.62ZM359.52 19.56C359.87 19.56 360.19 19.49 360.46 19.34C360.73 19.19 360.95 18.99 361.1 18.73C361.26 18.47 361.34 18.17 361.34 17.83C361.34 17.49 361.26 17.19 361.1 16.93C360.94 16.67 360.73 16.47 360.46 16.33C360.19 16.19 359.87 16.12 359.52 16.12C359.17 16.12 358.85 16.19 358.58 16.33C358.3 16.47 358.09 16.67 357.93 16.93C357.77 17.19 357.69 17.49 357.69 17.83C357.69 18.17 357.77 18.47 357.93 18.73C358.09 18.99 358.3 19.19 358.58 19.34C358.85 19.49 359.17 19.56 359.52 19.56Z" fill="#EB78AF"/>
<path d="M225.38 107.68V100.68H226.2L229.34 105.97H228.9L232 100.68H232.82L232.83 107.68H231.87L231.86 102.19H232.09L229.33 106.83H228.87L226.09 102.19H226.34V107.68H225.38Z" fill="#748ABE"/>
<path d="M237.14 107.74C236.57 107.74 236.08 107.62 235.65 107.39C235.22 107.16 234.89 106.84 234.65 106.43C234.41 106.02 234.29 105.56 234.29 105.03C234.29 104.5 234.41 104.04 234.63 103.63C234.86 103.22 235.18 102.9 235.58 102.67C235.98 102.44 236.44 102.32 236.95 102.32C237.46 102.32 237.92 102.43 238.31 102.66C238.7 102.89 239.01 103.2 239.23 103.61C239.45 104.02 239.56 104.5 239.56 105.05C239.56 105.09 239.56 105.14 239.56 105.19C239.56 105.24 239.55 105.29 239.54 105.34H235.03V104.65H239.04L238.65 104.89C238.66 104.55 238.59 104.25 238.44 103.98C238.29 103.71 238.09 103.5 237.83 103.36C237.57 103.21 237.28 103.13 236.94 103.13C236.61 103.13 236.31 103.21 236.05 103.36C235.79 103.51 235.59 103.72 235.44 103.99C235.29 104.26 235.22 104.57 235.22 104.92V105.08C235.22 105.43 235.3 105.75 235.47 106.03C235.63 106.31 235.86 106.52 236.15 106.68C236.44 106.83 236.78 106.91 237.16 106.91C237.47 106.91 237.76 106.86 238.02 106.75C238.28 106.64 238.5 106.48 238.69 106.27L239.22 106.89C238.98 107.17 238.68 107.38 238.32 107.53C237.98 107.66 237.58 107.74 237.14 107.74Z" fill="#748ABE"/>
<path d="M247.54 102.33C247.97 102.33 248.34 102.41 248.67 102.58C249 102.75 249.25 103 249.43 103.34C249.61 103.68 249.71 104.11 249.71 104.63V107.68H248.75V104.74C248.75 104.23 248.63 103.84 248.39 103.58C248.15 103.32 247.81 103.19 247.38 103.19C247.06 103.19 246.78 103.26 246.54 103.39C246.3 103.52 246.12 103.72 245.99 103.98C245.86 104.24 245.79 104.56 245.79 104.95V107.68H244.83V104.74C244.83 104.23 244.71 103.84 244.47 103.58C244.23 103.32 243.9 103.19 243.46 103.19C243.15 103.19 242.87 103.26 242.63 103.39C242.39 103.52 242.2 103.72 242.07 103.98C241.94 104.24 241.87 104.56 241.87 104.95V107.68H240.91V102.38H241.83V103.79L241.68 103.43C241.85 103.08 242.1 102.81 242.45 102.62C242.8 102.43 243.2 102.33 243.66 102.33C244.17 102.33 244.6 102.45 244.97 102.71C245.34 102.96 245.58 103.34 245.69 103.85L245.3 103.69C245.46 103.28 245.74 102.96 246.14 102.71C246.54 102.45 247 102.33 247.54 102.33Z" fill="#748ABE"/>
<path d="M253.75 107.74C253.22 107.74 252.75 107.62 252.33 107.39C251.91 107.16 251.58 106.83 251.35 106.43C251.11 106.02 250.99 105.55 250.99 105.03C250.99 104.5 251.11 104.04 251.35 103.63C251.59 103.23 251.92 102.91 252.33 102.67C252.74 102.43 253.22 102.32 253.75 102.32C254.28 102.32 254.75 102.44 255.17 102.67C255.59 102.9 255.91 103.22 256.15 103.63C256.39 104.04 256.5 104.5 256.5 105.03C256.5 105.56 256.38 106.02 256.15 106.43C255.91 106.84 255.59 107.16 255.17 107.39C254.74 107.62 254.27 107.74 253.75 107.74ZM253.75 106.9C254.09 106.9 254.4 106.82 254.67 106.67C254.94 106.52 255.15 106.3 255.31 106.01C255.46 105.73 255.54 105.4 255.54 105.03C255.54 104.65 255.46 104.32 255.31 104.05C255.16 103.77 254.94 103.56 254.67 103.4C254.4 103.25 254.09 103.17 253.75 103.17C253.41 103.17 253.11 103.25 252.84 103.4C252.57 103.55 252.36 103.77 252.2 104.05C252.04 104.33 251.96 104.65 251.96 105.03C251.96 105.4 252.04 105.73 252.2 106.01C252.36 106.29 252.57 106.51 252.84 106.67C253.11 106.83 253.41 106.9 253.75 106.9Z" fill="#748ABE"/>
<path d="M257.83 107.68V102.38H258.75V103.82L258.66 103.46C258.81 103.09 259.05 102.81 259.4 102.62C259.75 102.43 260.17 102.33 260.68 102.33V103.26C260.64 103.25 260.6 103.25 260.56 103.25C260.52 103.25 260.49 103.25 260.46 103.25C259.95 103.25 259.54 103.4 259.24 103.71C258.94 104.02 258.79 104.46 258.79 105.04V107.68H257.83Z" fill="#748ABE"/>
<path d="M262.4 101.36C262.21 101.36 262.06 101.3 261.94 101.18C261.82 101.06 261.76 100.91 261.76 100.74C261.76 100.56 261.82 100.41 261.94 100.29C262.06 100.17 262.22 100.11 262.4 100.11C262.58 100.11 262.74 100.17 262.87 100.28C262.99 100.4 263.05 100.54 263.05 100.72C263.05 100.9 262.99 101.05 262.87 101.18C262.75 101.31 262.6 101.36 262.4 101.36ZM261.92 107.68V102.38H262.88V107.68H261.92Z" fill="#748ABE"/>
<path d="M264.21 107.68V107.06L267.61 102.84L267.8 103.17H264.27V102.38H268.57V103.01L265.17 107.22L264.95 106.89H268.65V107.68H264.21Z" fill="#748ABE"/>
<path d="M271.47 107.74C271.08 107.74 270.73 107.67 270.43 107.54C270.13 107.41 269.91 107.22 269.75 106.99C269.59 106.75 269.51 106.48 269.51 106.18C269.51 105.89 269.58 105.63 269.72 105.4C269.86 105.17 270.08 104.98 270.39 104.84C270.7 104.7 271.12 104.63 271.64 104.63H273.32V105.32H271.68C271.2 105.32 270.88 105.4 270.71 105.56C270.54 105.72 270.46 105.91 270.46 106.14C270.46 106.4 270.56 106.61 270.77 106.76C270.98 106.92 271.26 106.99 271.63 106.99C271.99 106.99 272.3 106.91 272.58 106.75C272.85 106.59 273.04 106.36 273.16 106.05L273.35 106.71C273.22 107.02 273 107.27 272.68 107.46C272.36 107.64 271.96 107.74 271.47 107.74ZM273.21 107.68V106.56L273.16 106.35V104.44C273.16 104.03 273.04 103.72 272.8 103.5C272.56 103.28 272.21 103.17 271.74 103.17C271.43 103.17 271.12 103.22 270.82 103.32C270.52 103.42 270.27 103.56 270.06 103.74L269.66 103.02C269.93 102.8 270.26 102.63 270.64 102.52C271.02 102.4 271.43 102.34 271.85 102.34C272.58 102.34 273.14 102.52 273.53 102.87C273.92 103.22 274.12 103.76 274.12 104.49V107.69H273.21V107.68Z" fill="#748ABE"/>
<path d="M275.14 103.17V102.38H278.52V103.17H275.14ZM277.72 107.74C277.19 107.74 276.77 107.6 276.48 107.31C276.19 107.02 276.04 106.61 276.04 106.08V101.22H277V106.04C277 106.33 277.07 106.55 277.21 106.7C277.35 106.85 277.56 106.93 277.83 106.93C278.13 106.93 278.38 106.85 278.58 106.68L278.88 107.37C278.73 107.5 278.56 107.59 278.36 107.65C278.16 107.71 277.94 107.74 277.72 107.74Z" fill="#748ABE"/>
<path d="M280.52 101.36C280.33 101.36 280.18 101.3 280.06 101.18C279.94 101.06 279.88 100.91 279.88 100.74C279.88 100.56 279.94 100.41 280.06 100.29C280.18 100.17 280.34 100.11 280.52 100.11C280.7 100.11 280.86 100.17 280.99 100.28C281.11 100.4 281.17 100.54 281.17 100.72C281.17 100.9 281.11 101.05 280.99 101.18C280.87 101.31 280.72 101.36 280.52 101.36ZM280.04 107.68V102.38H281V107.68H280.04Z" fill="#748ABE"/>
<path d="M285.1 107.74C284.57 107.74 284.1 107.62 283.68 107.39C283.26 107.16 282.93 106.83 282.7 106.43C282.46 106.02 282.34 105.55 282.34 105.03C282.34 104.5 282.46 104.04 282.7 103.63C282.94 103.23 283.27 102.91 283.68 102.67C284.09 102.43 284.57 102.32 285.1 102.32C285.63 102.32 286.1 102.44 286.52 102.67C286.94 102.9 287.26 103.22 287.5 103.63C287.74 104.04 287.85 104.5 287.85 105.03C287.85 105.56 287.73 106.02 287.5 106.43C287.26 106.84 286.94 107.16 286.52 107.39C286.1 107.62 285.63 107.74 285.1 107.74ZM285.1 106.9C285.44 106.9 285.75 106.82 286.02 106.67C286.29 106.52 286.5 106.3 286.66 106.01C286.81 105.73 286.89 105.4 286.89 105.03C286.89 104.65 286.81 104.32 286.66 104.05C286.51 103.77 286.29 103.56 286.02 103.4C285.75 103.25 285.44 103.17 285.1 103.17C284.76 103.17 284.46 103.25 284.19 103.4C283.92 103.55 283.71 103.77 283.55 104.05C283.39 104.33 283.31 104.65 283.31 105.03C283.31 105.4 283.39 105.73 283.55 106.01C283.71 106.29 283.92 106.51 284.19 106.67C284.46 106.83 284.76 106.9 285.1 106.9Z" fill="#748ABE"/>
<path d="M292.01 102.33C292.44 102.33 292.82 102.41 293.15 102.58C293.48 102.75 293.74 103 293.93 103.34C294.12 103.68 294.21 104.11 294.21 104.63V107.68H293.25V104.74C293.25 104.23 293.13 103.84 292.87 103.58C292.62 103.32 292.27 103.19 291.81 103.19C291.47 103.19 291.17 103.26 290.92 103.39C290.67 103.52 290.47 103.72 290.34 103.98C290.2 104.24 290.13 104.56 290.13 104.95V107.68H289.17V102.38H290.09V103.81L289.94 103.43C290.11 103.08 290.38 102.81 290.74 102.62C291.11 102.42 291.53 102.33 292.01 102.33Z" fill="#748ABE"/>
<path d="M269.2 61.53V54.53H270.02L273.16 59.82H272.72L275.82 54.53H276.64L276.65 61.53H275.69L275.68 56.04H275.91L273.15 60.68H272.69L269.91 56.04H270.16V61.53H269.2Z" fill="#F6AE2A"/>
<path d="M280.16 61.5901C279.77 61.5901 279.42 61.5201 279.12 61.3901C278.82 61.2601 278.6 61.0701 278.44 60.8401C278.28 60.6001 278.2 60.3301 278.2 60.0301C278.2 59.7401 278.27 59.4801 278.41 59.2501C278.55 59.0201 278.77 58.8301 279.08 58.6901C279.39 58.5501 279.81 58.4801 280.33 58.4801H282.01V59.1701H280.37C279.89 59.1701 279.57 59.2501 279.4 59.4101C279.23 59.5701 279.15 59.7601 279.15 59.9901C279.15 60.2501 279.25 60.46 279.46 60.61C279.67 60.77 279.95 60.8401 280.32 60.8401C280.68 60.8401 280.99 60.7601 281.27 60.6001C281.54 60.4401 281.73 60.2101 281.85 59.9001L282.04 60.5601C281.91 60.8701 281.69 61.1201 281.37 61.3101C281.05 61.5001 280.65 61.5901 280.16 61.5901ZM281.9 61.5301V60.4101L281.85 60.2001V58.2901C281.85 57.8801 281.73 57.5701 281.49 57.3501C281.25 57.1301 280.9 57.0201 280.43 57.0201C280.12 57.0201 279.81 57.0701 279.51 57.1701C279.21 57.2701 278.96 57.4101 278.75 57.5901L278.35 56.8701C278.62 56.6501 278.95 56.4801 279.33 56.3701C279.71 56.2501 280.12 56.1901 280.54 56.1901C281.27 56.1901 281.83 56.3701 282.22 56.7201C282.61 57.0701 282.81 57.6101 282.81 58.3401V61.5401H281.9V61.5301Z" fill="#F6AE2A"/>
<path d="M283.83 57.0201V56.2301H287.21V57.0201H283.83ZM286.41 61.5901C285.88 61.5901 285.46 61.4501 285.17 61.1601C284.88 60.8701 284.73 60.4601 284.73 59.9301V55.0701H285.69V59.8901C285.69 60.1801 285.76 60.4 285.9 60.55C286.04 60.7 286.25 60.7801 286.52 60.7801C286.82 60.7801 287.07 60.7001 287.27 60.5301L287.57 61.2201C287.42 61.3501 287.25 61.4401 287.05 61.5001C286.84 61.5601 286.63 61.5901 286.41 61.5901Z" fill="#F6AE2A"/>
<path d="M291.56 56.18C291.99 56.18 292.37 56.26 292.7 56.43C293.03 56.6 293.29 56.85 293.48 57.19C293.67 57.53 293.76 57.96 293.76 58.48V61.53H292.8V58.59C292.8 58.08 292.68 57.69 292.42 57.43C292.17 57.17 291.82 57.04 291.36 57.04C291.02 57.04 290.72 57.11 290.47 57.24C290.22 57.37 290.02 57.57 289.89 57.83C289.75 58.09 289.68 58.41 289.68 58.8V61.53H288.72V54.11H289.68V57.66L289.49 57.28C289.66 56.93 289.93 56.66 290.29 56.47C290.66 56.28 291.08 56.18 291.56 56.18Z" fill="#F6AE2A"/>
<path d="M297.9 61.59C297.33 61.59 296.84 61.47 296.41 61.24C295.98 61.01 295.65 60.69 295.41 60.28C295.17 59.87 295.05 59.41 295.05 58.88C295.05 58.35 295.17 57.89 295.39 57.48C295.62 57.07 295.94 56.75 296.34 56.52C296.74 56.29 297.2 56.17 297.71 56.17C298.22 56.17 298.68 56.28 299.07 56.51C299.46 56.74 299.77 57.05 299.99 57.46C300.21 57.87 300.32 58.35 300.32 58.9C300.32 58.94 300.32 58.99 300.32 59.04C300.32 59.09 300.31 59.14 300.3 59.19H295.79V58.5H299.8L299.41 58.74C299.42 58.4 299.35 58.1 299.2 57.83C299.05 57.56 298.85 57.35 298.59 57.21C298.33 57.06 298.04 56.98 297.7 56.98C297.37 56.98 297.07 57.06 296.81 57.21C296.55 57.36 296.35 57.57 296.2 57.84C296.05 58.11 295.98 58.42 295.98 58.77V58.93C295.98 59.28 296.06 59.6 296.23 59.88C296.39 60.16 296.62 60.37 296.91 60.53C297.2 60.68 297.54 60.76 297.92 60.76C298.23 60.76 298.52 60.71 298.78 60.6C299.04 60.49 299.26 60.33 299.45 60.12L299.98 60.74C299.74 61.02 299.44 61.23 299.08 61.38C298.74 61.52 298.34 61.59 297.9 61.59Z" fill="#F6AE2A"/>
<path d="M308.29 56.1801C308.72 56.1801 309.09 56.2601 309.42 56.4301C309.75 56.6001 310 56.8501 310.18 57.1901C310.36 57.5301 310.46 57.9601 310.46 58.4801V61.5301H309.5V58.5901C309.5 58.0801 309.38 57.6901 309.14 57.4301C308.9 57.1701 308.56 57.0401 308.13 57.0401C307.81 57.0401 307.53 57.1101 307.29 57.2401C307.05 57.3701 306.87 57.57 306.74 57.83C306.61 58.09 306.54 58.41 306.54 58.8V61.5301H305.58V58.5901C305.58 58.0801 305.46 57.6901 305.22 57.4301C304.98 57.1701 304.65 57.0401 304.21 57.0401C303.9 57.0401 303.62 57.1101 303.38 57.2401C303.14 57.3701 302.95 57.57 302.82 57.83C302.69 58.09 302.62 58.41 302.62 58.8V61.5301H301.66V56.2301H302.58V57.6401L302.43 57.2801C302.6 56.9301 302.85 56.6601 303.2 56.4701C303.55 56.2801 303.95 56.1801 304.41 56.1801C304.92 56.1801 305.35 56.3001 305.72 56.5601C306.09 56.8101 306.33 57.1901 306.44 57.7001L306.05 57.5401C306.21 57.1301 306.49 56.8101 306.89 56.5601C307.29 56.3001 307.76 56.1801 308.29 56.1801Z" fill="#F6AE2A"/>
<path d="M313.78 61.5901C313.39 61.5901 313.04 61.5201 312.74 61.3901C312.44 61.2601 312.22 61.0701 312.06 60.8401C311.9 60.6001 311.82 60.3301 311.82 60.0301C311.82 59.7401 311.89 59.4801 312.03 59.2501C312.17 59.0201 312.39 58.8301 312.7 58.6901C313.01 58.5501 313.43 58.4801 313.95 58.4801H315.63V59.1701H313.99C313.51 59.1701 313.19 59.2501 313.02 59.4101C312.85 59.5701 312.77 59.7601 312.77 59.9901C312.77 60.2501 312.87 60.46 313.08 60.61C313.29 60.77 313.57 60.8401 313.94 60.8401C314.3 60.8401 314.61 60.7601 314.89 60.6001C315.16 60.4401 315.35 60.2101 315.47 59.9001L315.66 60.5601C315.53 60.8701 315.31 61.1201 314.99 61.3101C314.67 61.5001 314.27 61.5901 313.78 61.5901ZM315.52 61.5301V60.4101L315.47 60.2001V58.2901C315.47 57.8801 315.35 57.5701 315.11 57.3501C314.87 57.1301 314.52 57.0201 314.05 57.0201C313.74 57.0201 313.43 57.0701 313.13 57.1701C312.83 57.2701 312.58 57.4101 312.37 57.5901L311.97 56.8701C312.24 56.6501 312.57 56.4801 312.95 56.3701C313.33 56.2501 313.74 56.1901 314.16 56.1901C314.89 56.1901 315.45 56.3701 315.84 56.7201C316.23 57.0701 316.43 57.6101 316.43 58.3401V61.5401H315.52V61.5301Z" fill="#F6AE2A"/>
<path d="M317.45 57.0201V56.2301H320.83V57.0201H317.45ZM320.03 61.5901C319.5 61.5901 319.08 61.4501 318.79 61.1601C318.5 60.8701 318.35 60.4601 318.35 59.9301V55.0701H319.31V59.8901C319.31 60.1801 319.38 60.4 319.52 60.55C319.66 60.7 319.87 60.7801 320.14 60.7801C320.44 60.7801 320.69 60.7001 320.89 60.5301L321.19 61.2201C321.04 61.3501 320.87 61.4401 320.67 61.5001C320.46 61.5601 320.25 61.5901 320.03 61.5901Z" fill="#F6AE2A"/>
<path d="M322.83 55.21C322.64 55.21 322.49 55.15 322.37 55.03C322.25 54.91 322.19 54.76 322.19 54.59C322.19 54.41 322.25 54.26 322.37 54.14C322.49 54.02 322.65 53.96 322.83 53.96C323.01 53.96 323.17 54.02 323.3 54.13C323.42 54.25 323.48 54.39 323.48 54.57C323.48 54.75 323.42 54.9 323.3 55.03C323.18 55.16 323.03 55.21 322.83 55.21ZM322.35 61.53V56.23H323.31V61.53H322.35Z" fill="#F6AE2A"/>
<path d="M327.45 61.59C326.91 61.59 326.43 61.47 326.01 61.24C325.59 61.01 325.25 60.69 325.01 60.28C324.77 59.87 324.65 59.41 324.65 58.88C324.65 58.35 324.77 57.89 325.01 57.48C325.25 57.07 325.58 56.75 326.01 56.52C326.43 56.29 326.91 56.17 327.45 56.17C327.93 56.17 328.36 56.27 328.74 56.46C329.12 56.65 329.41 56.93 329.62 57.3L328.89 57.77C328.72 57.51 328.5 57.32 328.25 57.19C328 57.07 327.73 57.01 327.45 57.01C327.1 57.01 326.79 57.09 326.52 57.24C326.25 57.39 326.03 57.61 325.87 57.89C325.71 58.17 325.63 58.49 325.63 58.87C325.63 59.25 325.71 59.58 325.87 59.86C326.03 60.14 326.25 60.36 326.52 60.51C326.79 60.66 327.1 60.74 327.45 60.74C327.74 60.74 328 60.68 328.25 60.55C328.5 60.43 328.71 60.24 328.89 59.97L329.62 60.43C329.41 60.8 329.12 61.08 328.74 61.28C328.36 61.48 327.93 61.59 327.45 61.59Z" fill="#F6AE2A"/>
<path d="M332.37 61.5901C331.93 61.5901 331.51 61.5301 331.12 61.4101C330.73 61.2901 330.41 61.1401 330.19 60.9701L330.59 60.2101C330.82 60.3601 331.1 60.4901 331.43 60.6001C331.76 60.7101 332.1 60.7601 332.45 60.7601C332.9 60.7601 333.22 60.7001 333.41 60.5701C333.6 60.4401 333.7 60.2701 333.7 60.0401C333.7 59.8701 333.64 59.7401 333.52 59.6501C333.4 59.5601 333.24 59.4901 333.05 59.4401C332.85 59.3901 332.63 59.3501 332.39 59.3201C332.15 59.2901 331.91 59.2401 331.67 59.1801C331.43 59.1201 331.21 59.0401 331.01 58.9401C330.81 58.8401 330.65 58.6901 330.53 58.5101C330.41 58.3301 330.35 58.0801 330.35 57.7801C330.35 57.4601 330.44 57.1801 330.62 56.9401C330.8 56.7001 331.06 56.5201 331.39 56.3901C331.72 56.2601 332.11 56.1901 332.56 56.1901C332.91 56.1901 333.26 56.2301 333.61 56.3101C333.97 56.3901 334.26 56.5101 334.49 56.6601L334.08 57.4201C333.84 57.2601 333.59 57.1501 333.33 57.0901C333.07 57.0301 332.81 57.0001 332.55 57.0001C332.13 57.0001 331.82 57.0701 331.61 57.2001C331.4 57.3401 331.3 57.5101 331.3 57.7301C331.3 57.9101 331.36 58.0501 331.48 58.1501C331.6 58.2501 331.76 58.3201 331.96 58.3701C332.16 58.4201 332.38 58.4701 332.61 58.5101C332.85 58.5501 333.09 58.5901 333.33 58.6501C333.57 58.7101 333.79 58.7801 333.98 58.8801C334.18 58.9801 334.34 59.12 334.46 59.3C334.58 59.48 334.64 59.7201 334.64 60.0201C334.64 60.3401 334.55 60.6201 334.36 60.8501C334.17 61.0801 333.91 61.2701 333.57 61.4001C333.25 61.5301 332.85 61.5901 332.37 61.5901Z" fill="#F6AE2A"/>
</svg>
