<svg width="294" height="281" viewBox="0 0 294 281" fill="none" xmlns="http://www.w3.org/2000/svg">
<path d="M62.261 262.776C61.6469 262.795 61.0171 262.814 60.403 262.833L60.3715 259.226C89.1873 258.775 116.806 243.726 136.096 217.875L138.347 220.28C118.901 246.3 91.2658 261.724 62.261 262.776Z" fill="#486099"/>
<path d="M142.284 215.113L140.032 212.709C156.771 190.277 165.132 162.434 164.203 132.168L167.226 132.036C168.171 163.242 159.558 191.968 142.284 215.113Z" fill="#F5A61D"/>
<path d="M164.124 129.124C163.085 95.1195 149.228 65.1539 124.081 42.5154L125.908 39.6409C151.81 62.9746 166.061 93.8608 167.147 129.012L164.124 129.124Z" fill="#498A40"/>
<path d="M122.444 40.9185C100.903 21.5301 74.4015 13.0008 47.8217 16.9085L47.4438 13.3201C74.8109 9.29967 102.099 18.0733 124.254 38.0253L122.444 40.9185Z" fill="#B71F25"/>
<path d="M121.058 41.219C123.171 41.219 124.884 39.1751 124.884 36.6538C124.884 34.1324 123.171 32.0885 121.058 32.0885C118.945 32.0885 117.232 34.1324 117.232 36.6538C117.232 39.1751 118.945 41.219 121.058 41.219Z" fill="#B71F25"/>
<path d="M165.526 129.726C167.639 129.726 169.352 127.682 169.352 125.16C169.352 122.639 167.639 120.595 165.526 120.595C163.412 120.595 161.699 122.639 161.699 125.16C161.699 127.682 163.412 129.726 165.526 129.726Z" fill="#498A40"/>
<path d="M142.882 215.47C144.996 215.47 146.709 213.426 146.709 210.905C146.709 208.384 144.996 206.34 142.882 206.34C140.769 206.34 139.056 208.384 139.056 210.905C139.056 213.426 140.769 215.47 142.882 215.47Z" fill="#F5A61D"/>
<path d="M63.6467 264.956C65.76 264.956 67.4731 262.912 67.4731 260.39C67.4731 257.869 65.76 255.825 63.6467 255.825C61.5335 255.825 59.8204 257.869 59.8204 260.39C59.8204 262.912 61.5335 264.956 63.6467 264.956Z" fill="#486099"/>
<path d="M5.27504 144.567C4.22003 144.567 3.21226 144.38 2.26748 143.985C1.30695 143.609 0.551122 143.102 0 142.501L0.72433 140.66C1.24396 141.205 1.92106 141.655 2.73987 142.031C3.55868 142.388 4.39324 142.576 5.27504 142.576C6.0781 142.576 6.7237 142.463 7.22758 142.238C7.73146 142.012 8.09362 141.712 8.32982 141.336C8.56601 140.96 8.69199 140.509 8.69199 140.04C8.69199 139.476 8.53452 139.025 8.23534 138.668C7.92042 138.33 7.52676 138.048 7.03862 137.842C6.55048 137.635 5.99936 137.447 5.41675 137.297C4.81839 137.146 4.23578 136.959 3.63741 136.752C3.03905 136.545 2.48793 136.263 1.99979 135.944C1.51166 135.625 1.11799 135.174 0.803067 134.61C0.48814 134.047 0.346422 133.333 0.346422 132.468C0.346422 131.623 0.535379 130.853 0.913291 130.139C1.2912 129.425 1.85807 128.861 2.64539 128.429C3.4327 127.997 4.42472 127.79 5.62144 127.79C6.42451 127.79 7.21183 127.922 7.99915 128.166C8.78646 128.41 9.46356 128.786 10.0462 129.256L9.40057 131.135C8.80221 130.665 8.18811 130.327 7.52676 130.12C6.86542 129.913 6.23555 129.801 5.62144 129.801C4.84987 129.801 4.20428 129.913 3.71614 130.158C3.228 130.402 2.8501 130.702 2.62965 131.097C2.39345 131.492 2.28323 131.924 2.28323 132.412C2.28323 132.995 2.44069 133.445 2.73987 133.802C3.0548 134.141 3.44845 134.422 3.93659 134.629C4.42472 134.836 4.97586 135.024 5.55847 135.174C6.15683 135.343 6.73944 135.531 7.3378 135.719C7.93616 135.925 8.48729 136.188 8.97542 136.526C9.46356 136.865 9.85721 137.297 10.1721 137.842C10.4713 138.386 10.6288 139.1 10.6288 139.965C10.6288 140.791 10.4398 141.561 10.0619 142.275C9.684 142.989 9.10139 143.553 8.29833 143.985C7.47952 144.342 6.4875 144.567 5.27504 144.567Z" fill="#201032"/>
<path d="M17.6831 144.511C16.6439 144.511 15.7148 144.229 14.896 143.684C14.0772 143.14 13.4316 142.388 12.9592 141.411C12.4868 140.453 12.2507 139.363 12.2507 138.142C12.2507 136.902 12.4868 135.813 12.9592 134.873C13.4316 133.934 14.0772 133.182 14.896 132.638C15.7148 132.093 16.6439 131.811 17.6989 131.811C18.7381 131.811 19.6672 132.074 20.486 132.619C21.3048 133.164 21.9504 133.915 22.4228 134.854C22.8952 135.813 23.1156 136.902 23.1156 138.142C23.1156 139.382 22.8794 140.472 22.4228 141.43C21.9504 142.388 21.3205 143.14 20.486 143.684C19.6514 144.248 18.7224 144.511 17.6831 144.511ZM17.6831 142.538C18.3602 142.538 18.9586 142.351 19.4782 141.994C20.0136 141.637 20.423 141.129 20.7222 140.453C21.0214 139.795 21.1788 139.025 21.1788 138.142C21.1788 137.24 21.0214 136.47 20.7222 135.831C20.423 135.174 19.9979 134.685 19.4782 134.31C18.9428 133.953 18.3445 133.765 17.6831 133.765C17.0218 133.765 16.4234 133.953 15.8881 134.31C15.3684 134.667 14.9433 135.174 14.6283 135.831C14.3134 136.489 14.156 137.259 14.156 138.142C14.156 139.025 14.3134 139.795 14.6283 140.453C14.9433 141.111 15.3684 141.637 15.8881 141.994C16.4077 142.351 17.006 142.538 17.6831 142.538Z" fill="#201032"/>
<path d="M38.7675 131.811C39.6021 131.811 40.3421 131.999 40.9877 132.393C41.6333 132.788 42.1372 133.37 42.4994 134.178C42.8615 134.986 43.0348 135.982 43.0348 137.203V144.361H41.1452V137.447C41.1452 136.245 40.909 135.343 40.4366 134.723C39.9642 134.103 39.3029 133.802 38.4526 133.802C37.8227 133.802 37.2716 133.953 36.7992 134.272C36.3268 134.591 35.9646 135.042 35.7127 135.662C35.4608 136.282 35.3348 137.034 35.3348 137.936V144.342H33.4452V137.428C33.4452 136.226 33.209 135.324 32.7524 134.704C32.2957 134.084 31.6187 133.784 30.7526 133.784C30.1385 133.784 29.5874 133.934 29.115 134.253C28.6426 134.573 28.2804 135.024 28.0127 135.643C27.745 136.263 27.6191 137.015 27.6191 137.917V144.323H25.7295V131.867H27.5404V135.174L27.2412 134.328C27.5718 133.521 28.0757 132.882 28.7528 132.431C29.4299 131.98 30.233 131.755 31.1305 131.755C32.1225 131.755 32.9886 132.055 33.7129 132.638C34.4373 133.22 34.9096 134.122 35.1301 135.305L34.3585 134.93C34.6734 133.971 35.2246 133.201 36.0119 132.619C36.7992 132.093 37.7125 131.811 38.7675 131.811Z" fill="#201032"/>
<path d="M51.1756 144.511C50.0576 144.511 49.0814 144.229 48.2311 143.684C47.3808 143.14 46.7352 142.388 46.2628 141.43C45.7904 140.472 45.5699 139.382 45.5699 138.142C45.5699 136.902 45.7904 135.813 46.247 134.854C46.7037 133.896 47.3178 133.145 48.1208 132.619C48.9239 132.093 49.8057 131.811 50.8135 131.811C51.8212 131.811 52.7188 132.074 53.4903 132.619C54.2619 133.145 54.876 133.896 55.3169 134.854C55.7578 135.813 55.9783 136.94 55.9783 138.217C55.9783 138.311 55.9783 138.424 55.9625 138.556C55.9625 138.687 55.9468 138.8 55.931 138.912H47.0501V137.297H54.939L54.1674 137.86C54.1832 137.053 54.0415 136.357 53.758 135.719C53.4746 135.099 53.0652 134.61 52.5613 134.253C52.0574 133.896 51.4748 133.727 50.7977 133.727C50.1364 133.727 49.5538 133.896 49.0499 134.253C48.546 134.61 48.1366 135.099 47.8531 135.737C47.5697 136.376 47.428 137.09 47.428 137.917V138.293C47.428 139.119 47.5855 139.871 47.9161 140.509C48.2311 141.167 48.6877 141.674 49.2703 142.031C49.8529 142.388 50.5143 142.576 51.2544 142.576C51.8685 142.576 52.4353 142.444 52.9392 142.2C53.4431 141.956 53.884 141.58 54.2619 141.073L55.3012 142.538C54.8288 143.196 54.2462 143.703 53.5376 144.041C52.829 144.342 52.0417 144.511 51.1756 144.511Z" fill="#201032"/>
<path d="M57.0805 133.784V131.924H63.7412V133.784H57.0805ZM62.1666 144.511C61.1116 144.511 60.3085 144.173 59.7259 143.497C59.1433 142.82 58.8598 141.862 58.8598 140.603V129.181H60.7494V140.509C60.7494 141.186 60.8911 141.693 61.1746 142.069C61.458 142.426 61.8674 142.614 62.387 142.614C62.9854 142.614 63.4735 142.426 63.8672 142.031L64.4655 143.647C64.1821 143.947 63.8357 144.173 63.4263 144.304C63.0169 144.436 62.5917 144.511 62.1666 144.511Z" fill="#201032"/>
<path d="M72.3072 131.811C73.1575 131.811 73.9133 131.999 74.5589 132.393C75.2045 132.788 75.7242 133.37 76.0863 134.178C76.4485 134.986 76.6375 135.982 76.6375 137.203V144.361H74.7479V137.447C74.7479 136.245 74.496 135.343 74.0078 134.723C73.5197 134.103 72.8268 133.802 71.9293 133.802C71.2522 133.802 70.6696 133.953 70.1814 134.272C69.6776 134.591 69.2997 135.042 69.032 135.662C68.7643 136.282 68.6226 137.034 68.6226 137.936V144.342H66.733V126.907H68.6226V135.249L68.2446 134.347C68.5911 133.539 69.1107 132.901 69.8193 132.45C70.5279 131.999 71.3624 131.811 72.3072 131.811Z" fill="#201032"/>
<path d="M81.0937 129.519C80.7315 129.519 80.4166 129.369 80.1804 129.087C79.9442 128.805 79.8182 128.467 79.8182 128.053C79.8182 127.621 79.9442 127.283 80.1804 127.001C80.4166 126.72 80.7315 126.569 81.0937 126.569C81.4558 126.569 81.7708 126.701 82.0069 126.983C82.2431 127.264 82.3691 127.603 82.3691 127.997C82.3691 128.429 82.2431 128.786 82.0069 129.068C81.7708 129.387 81.4716 129.519 81.0937 129.519ZM80.1331 144.38V131.924H82.0227V144.38H80.1331Z" fill="#201032"/>
<path d="M91.2029 131.811C92.0532 131.811 92.809 131.999 93.4546 132.393C94.1002 132.788 94.6198 133.37 94.982 134.178C95.3441 134.986 95.5331 135.982 95.5331 137.203V144.361H93.6435V137.447C93.6435 136.245 93.3916 135.343 92.9035 134.723C92.4153 134.103 91.7225 133.802 90.8249 133.802C90.1478 133.802 89.5652 133.953 89.0771 134.272C88.5732 134.591 88.1953 135.042 87.9276 135.662C87.6599 136.282 87.5182 137.034 87.5182 137.936V144.342H85.6286V131.886H87.4395V135.249L87.1403 134.347C87.4867 133.539 88.0063 132.901 88.7149 132.45C89.4235 131.999 90.2581 131.811 91.2029 131.811Z" fill="#201032"/>
<path d="M103.375 143.853C102.367 143.853 101.454 143.59 100.666 143.083C99.8791 142.576 99.2492 141.862 98.7768 140.96C98.3044 140.058 98.084 139.006 98.084 137.804C98.084 136.602 98.3202 135.55 98.7768 134.648C99.2335 133.746 99.8791 133.051 100.666 132.544C101.454 132.036 102.367 131.792 103.375 131.792C104.272 131.792 105.075 131.999 105.815 132.431C106.556 132.863 107.138 133.521 107.579 134.422C108.02 135.324 108.24 136.451 108.24 137.804C108.24 139.157 108.02 140.265 107.579 141.167C107.138 142.069 106.556 142.726 105.815 143.177C105.075 143.628 104.272 143.853 103.375 143.853ZM103.611 149.076C102.65 149.076 101.721 148.907 100.824 148.588C99.9263 148.268 99.1862 147.818 98.6351 147.216L99.5484 145.469C100.037 145.976 100.635 146.371 101.343 146.653C102.052 146.935 102.792 147.085 103.564 147.085C104.792 147.085 105.705 146.747 106.288 146.052C106.87 145.356 107.154 144.304 107.154 142.895V140.265L107.343 137.804L107.248 135.305V131.905H109.043V142.67C109.043 144.868 108.587 146.484 107.658 147.517C106.729 148.55 105.39 149.076 103.611 149.076ZM103.595 141.881C104.288 141.881 104.902 141.712 105.453 141.374C106.004 141.035 106.414 140.547 106.729 139.946C107.044 139.326 107.185 138.631 107.185 137.823C107.185 137.015 107.028 136.32 106.729 135.7C106.43 135.08 106.004 134.61 105.453 134.272C104.918 133.934 104.304 133.765 103.595 133.765C102.902 133.765 102.273 133.934 101.737 134.272C101.186 134.61 100.761 135.08 100.462 135.7C100.147 136.32 100.005 137.015 100.005 137.823C100.005 138.612 100.162 139.326 100.462 139.946C100.777 140.547 101.202 141.035 101.737 141.374C102.273 141.712 102.902 141.881 103.595 141.881Z" fill="#201032"/>
<path d="M41.0822 185.242C40.3264 183.814 39.7595 182.161 39.3501 180.301C38.9407 178.441 38.736 176.412 38.736 174.251C38.736 172.091 38.9407 170.062 39.3501 168.183C39.7595 166.304 40.3264 164.651 41.0822 163.261H42.8773C42.09 164.914 41.5074 166.661 41.1452 168.465C40.783 170.268 40.5941 172.203 40.5941 174.251C40.5941 176.299 40.783 178.234 41.1452 180.038C41.5074 181.841 42.09 183.588 42.8773 185.242H41.0822V185.242Z" fill="#201032"/>
<path d="M45.5699 180.676V164.238H47.5382V178.647H55.002V180.695H45.5699V180.676Z" fill="#201032"/>
<path d="M55.931 180.676V179.079L61.5367 172.617C62.0406 172.053 62.4028 171.565 62.6547 171.133C62.8909 170.7 63.0641 170.306 63.1429 169.93C63.2216 169.554 63.2688 169.197 63.2688 168.859C63.2688 168.014 63.0169 167.356 62.513 166.868C62.0091 166.379 61.2848 166.135 60.3243 166.135C59.5842 166.135 58.9228 166.285 58.3402 166.567C57.7419 166.849 57.238 167.3 56.7971 167.92L55.4586 166.53C55.9783 165.741 56.6869 165.121 57.5686 164.689C58.4504 164.256 59.4267 164.05 60.4975 164.05C61.458 164.05 62.2925 164.238 63.0011 164.595C63.7097 164.952 64.2608 165.496 64.6388 166.173C65.0324 166.868 65.2214 167.676 65.2214 168.615C65.2214 169.141 65.1584 169.667 65.0482 170.193C64.9222 170.7 64.7017 171.264 64.3711 171.846C64.0404 172.429 63.568 173.068 62.9539 173.8L57.9466 179.549L57.4742 178.629H65.804V180.676H55.931Z" fill="#201032"/>
<path d="M68.9218 185.242H67.1267C67.9297 183.588 68.5124 181.841 68.8745 180.038C69.2367 178.234 69.4256 176.299 69.4256 174.251C69.4256 172.203 69.2367 170.268 68.8745 168.465C68.5124 166.661 67.9297 164.914 67.1267 163.261H68.9218C69.6933 164.651 70.2759 166.304 70.6853 168.183C71.079 170.062 71.2837 172.091 71.2837 174.251C71.2837 176.412 71.079 178.422 70.6853 180.301C70.2917 182.179 69.6933 183.814 68.9218 185.242Z" fill="#201032"/>
<path d="M124.506 14.3722C123.672 14.3722 122.869 14.2031 122.097 13.8837C121.326 13.5643 120.743 13.1322 120.318 12.6249L120.79 11.5353C121.184 12.005 121.719 12.3807 122.396 12.7001C123.073 13.0195 123.782 13.1698 124.522 13.1698C125.231 13.1698 125.813 13.0571 126.254 12.8504C126.695 12.6438 127.026 12.3619 127.23 11.9862C127.435 11.6292 127.545 11.2347 127.545 10.8026C127.545 10.2766 127.419 9.86322 127.168 9.52505C126.916 9.20567 126.585 8.94266 126.175 8.77358C125.766 8.5857 125.309 8.4166 124.821 8.28509C124.333 8.15358 123.829 8.0033 123.341 7.83422C122.853 7.66513 122.396 7.45848 121.987 7.19546C121.578 6.93244 121.247 6.57547 120.995 6.12457C120.743 5.67368 120.617 5.11008 120.617 4.37738C120.617 3.71983 120.759 3.09983 121.058 2.53621C121.357 1.9726 121.814 1.5217 122.412 1.18353C123.01 0.845364 123.814 0.6763 124.758 0.6763C125.388 0.6763 126.018 0.789048 126.648 0.995708C127.278 1.20237 127.813 1.50296 128.254 1.87871L127.845 3.00589C127.356 2.63015 126.853 2.34838 126.301 2.1605C125.766 1.97263 125.231 1.89746 124.727 1.89746C124.05 1.89746 123.499 2.0102 123.058 2.21686C122.617 2.44231 122.286 2.72412 122.081 3.09986C121.877 3.45682 121.767 3.87015 121.767 4.33983C121.767 4.86587 121.892 5.27917 122.144 5.61734C122.396 5.95551 122.727 6.18095 123.136 6.36882C123.546 6.55669 124.002 6.707 124.491 6.8573C124.979 7.0076 125.483 7.1579 125.971 7.32698C126.459 7.49607 126.916 7.70272 127.325 7.96574C127.734 8.22876 128.065 8.58571 128.317 9.01782C128.569 9.44992 128.695 10.0323 128.695 10.7275C128.695 11.385 128.537 11.9862 128.238 12.5498C127.939 13.1134 127.482 13.5643 126.868 13.9025C126.27 14.2031 125.483 14.3722 124.506 14.3722Z" fill="#B71F25"/>
<path d="M134.521 14.3534C133.686 14.3534 132.962 14.128 132.317 13.6958C131.671 13.2637 131.167 12.6438 130.789 11.8547C130.411 11.0657 130.222 10.1827 130.222 9.20574C130.222 8.19123 130.411 7.30821 130.789 6.53793C131.167 5.76766 131.671 5.16648 132.317 4.73438C132.962 4.30227 133.702 4.07681 134.521 4.07681C135.356 4.07681 136.096 4.30227 136.757 4.73438C137.403 5.18527 137.922 5.78644 138.284 6.53793C138.647 7.28942 138.836 8.19123 138.836 9.20574C138.836 10.2015 138.647 11.0844 138.284 11.8735C137.906 12.6438 137.403 13.2637 136.741 13.6958C136.08 14.128 135.34 14.3534 134.521 14.3534ZM134.521 13.1511C135.135 13.1511 135.671 12.982 136.143 12.6626C136.615 12.3432 136.993 11.8735 137.261 11.2723C137.529 10.6711 137.67 9.9948 137.67 9.20574C137.67 8.41668 137.529 7.72154 137.261 7.13913C136.993 6.55673 136.615 6.08703 136.143 5.76765C135.671 5.44827 135.135 5.27922 134.537 5.27922C133.938 5.27922 133.403 5.44827 132.931 5.76765C132.458 6.08703 132.08 6.55673 131.797 7.13913C131.513 7.72154 131.372 8.41668 131.372 9.20574C131.372 9.9948 131.513 10.6711 131.797 11.2723C132.08 11.8735 132.443 12.3244 132.915 12.6626C133.387 12.982 133.923 13.1511 134.521 13.1511Z" fill="#B71F25"/>
<path d="M151.748 4.07679C152.44 4.07679 153.039 4.22709 153.543 4.54647C154.047 4.86585 154.456 5.33555 154.739 5.97431C155.023 6.61308 155.165 7.42089 155.165 8.39782V14.2595H154.015V8.52934C154.015 7.45847 153.81 6.66941 153.385 6.12459C152.96 5.57976 152.362 5.29795 151.59 5.29795C151.007 5.29795 150.504 5.44826 150.078 5.73007C149.653 6.01188 149.323 6.44395 149.102 6.98878C148.866 7.53361 148.756 8.1912 148.756 8.96147V14.2595H147.606V8.52934C147.606 7.45847 147.386 6.66941 146.961 6.12459C146.536 5.57976 145.937 5.29795 145.15 5.29795C144.583 5.29795 144.079 5.44826 143.654 5.73007C143.229 6.01188 142.898 6.44395 142.662 6.98878C142.426 7.53361 142.315 8.1912 142.315 8.96147V14.2595H141.166V4.1707H142.268V6.89487L142.095 6.40638C142.347 5.67368 142.772 5.1101 143.339 4.67799C143.906 4.26467 144.599 4.05798 145.37 4.05798C146.205 4.05798 146.898 4.30224 147.48 4.79071C148.063 5.27918 148.441 6.03065 148.614 7.00759L148.157 6.80095C148.409 5.97432 148.834 5.31677 149.464 4.80952C150.11 4.32105 150.866 4.07679 151.748 4.07679Z" fill="#B71F25"/>
<path d="M161.857 14.3534C160.975 14.3534 160.203 14.128 159.542 13.6958C158.881 13.2637 158.361 12.6438 157.983 11.8735C157.605 11.1032 157.416 10.2202 157.416 9.20574C157.416 8.19123 157.589 7.32701 157.952 6.55674C158.314 5.78646 158.802 5.18527 159.432 4.73438C160.062 4.28348 160.77 4.07681 161.558 4.07681C162.345 4.07681 163.053 4.28346 163.683 4.71557C164.297 5.14768 164.786 5.74885 165.148 6.51912C165.51 7.2894 165.683 8.19123 165.683 9.20574C165.683 9.2621 165.683 9.33722 165.683 9.41237C165.683 9.48752 165.667 9.56266 165.667 9.63781H158.298V8.62334H165.053L164.597 9.03666C164.597 8.30396 164.471 7.64639 164.203 7.08278C163.935 6.51916 163.589 6.06828 163.132 5.7489C162.675 5.42952 162.156 5.26042 161.573 5.26042C160.991 5.26042 160.471 5.41073 160.014 5.7489C159.558 6.06828 159.196 6.51918 158.928 7.10158C158.676 7.68398 158.534 8.34151 158.534 9.07421V9.28084C158.534 10.0511 158.676 10.7275 158.959 11.3099C159.243 11.8923 159.636 12.3432 160.156 12.6814C160.66 13.0008 161.243 13.1698 161.904 13.1698C162.424 13.1698 162.896 13.0571 163.353 12.8505C163.793 12.625 164.187 12.3056 164.502 11.8547L165.148 12.7377C164.77 13.2826 164.297 13.6771 163.731 13.9589C163.148 14.2031 162.534 14.3534 161.857 14.3534Z" fill="#B71F25"/>
<path d="M166.675 5.29796V4.17071H171.919V5.29796H166.675ZM170.675 14.3534C169.887 14.3534 169.273 14.0904 168.832 13.5831C168.407 13.0759 168.187 12.3432 168.187 11.4038V1.93509H169.336V11.3287C169.336 11.9111 169.462 12.3807 169.714 12.7001C169.966 13.0195 170.328 13.1886 170.801 13.1886C171.305 13.1886 171.73 13.0195 172.06 12.6626L172.47 13.6395C172.249 13.8837 171.966 14.0716 171.651 14.1843C171.32 14.297 171.005 14.3534 170.675 14.3534Z" fill="#B71F25"/>
<path d="M178.847 4.07679C179.54 4.07679 180.138 4.22709 180.658 4.54647C181.177 4.86585 181.587 5.33555 181.886 5.97431C182.185 6.61308 182.327 7.42089 182.327 8.39782V14.2595H181.177V8.52934C181.177 7.45847 180.957 6.66941 180.516 6.12459C180.075 5.57976 179.445 5.29794 178.642 5.29794C178.044 5.29794 177.524 5.44826 177.068 5.73007C176.627 6.01188 176.28 6.44395 176.044 6.98878C175.808 7.53361 175.682 8.1912 175.682 8.96147V14.2595H174.533V0H175.682V6.93242L175.462 6.40638C175.729 5.67368 176.154 5.1101 176.753 4.67799C177.335 4.28346 178.044 4.07679 178.847 4.07679Z" fill="#B71F25"/>
<path d="M186.012 1.93508C185.775 1.93508 185.571 1.8411 185.413 1.65322C185.256 1.46535 185.177 1.22113 185.177 0.958108C185.177 0.695087 185.256 0.469668 185.413 0.281796C185.571 0.0939245 185.775 0 186.012 0C186.248 0 186.452 0.0939061 186.61 0.262991C186.767 0.450863 186.846 0.657552 186.846 0.93936C186.846 1.22117 186.767 1.46535 186.61 1.65322C186.452 1.8411 186.248 1.93508 186.012 1.93508ZM185.429 14.2595V4.1707H186.578V14.2595H185.429Z" fill="#B71F25"/>
<path d="M194.074 4.07681C194.767 4.07681 195.365 4.22711 195.885 4.54649C196.404 4.86587 196.814 5.33557 197.113 5.97434C197.412 6.6131 197.554 7.42091 197.554 8.39784V14.2595H196.404V8.52937C196.404 7.4585 196.184 6.66944 195.743 6.12461C195.302 5.57978 194.672 5.29797 193.869 5.29797C193.271 5.29797 192.751 5.44829 192.294 5.73009C191.853 6.0119 191.507 6.44398 191.271 6.9888C191.035 7.53363 190.909 8.19122 190.909 8.96149V14.2595H189.759V4.17073H190.861V6.93245L190.688 6.40641C190.956 5.67371 191.381 5.11012 191.979 4.67802C192.562 4.28349 193.255 4.07681 194.074 4.07681Z" fill="#B71F25"/>
<path d="M204.057 13.8649C203.254 13.8649 202.53 13.6582 201.884 13.2449C201.238 12.8316 200.734 12.2492 200.357 11.4977C199.979 10.7462 199.805 9.90079 199.805 8.94265C199.805 7.9845 199.994 7.1391 200.357 6.38761C200.734 5.65491 201.238 5.07249 201.884 4.65917C202.53 4.24585 203.254 4.03922 204.057 4.03922C204.813 4.03922 205.49 4.22706 206.088 4.60281C206.687 4.97855 207.175 5.52339 207.521 6.25609C207.868 6.98879 208.056 7.87181 208.056 8.9239C208.056 9.97598 207.883 10.8589 207.521 11.5916C207.159 12.3243 206.687 12.888 206.088 13.2637C205.49 13.6395 204.797 13.8649 204.057 13.8649ZM204.262 18.0733C203.49 18.0733 202.75 17.9417 202.041 17.6787C201.333 17.4157 200.75 17.0212 200.309 16.5327L200.892 15.4994C201.286 15.9315 201.774 16.2509 202.372 16.5139C202.955 16.7581 203.585 16.8896 204.23 16.8896C205.301 16.8896 206.088 16.589 206.592 15.9878C207.096 15.3867 207.348 14.4661 207.348 13.2074V10.6898L207.505 8.96145L207.395 7.233V4.17068H208.497V13.0382C208.497 14.7854 208.135 16.063 207.427 16.8708C206.718 17.6787 205.663 18.0733 204.262 18.0733ZM204.167 12.6625C204.797 12.6625 205.348 12.5122 205.82 12.1929C206.309 11.8735 206.687 11.4413 206.97 10.8777C207.253 10.3141 207.395 9.67535 207.395 8.94265C207.395 8.20994 207.253 7.5712 206.97 7.02637C206.687 6.48154 206.309 6.04943 205.82 5.73005C205.332 5.41067 204.781 5.26037 204.167 5.26037C203.553 5.26037 203.002 5.41067 202.514 5.73005C202.026 6.04943 201.648 6.48154 201.364 7.02637C201.097 7.5712 200.955 8.20994 200.955 8.94265C200.955 9.67535 201.097 10.3141 201.364 10.8777C201.632 11.4413 202.026 11.8735 202.514 12.1929C203.002 12.5122 203.553 12.6625 204.167 12.6625Z" fill="#B71F25"/>
<path d="M216.15 14.2595V0.807861H217.347V13.0383H223.661V14.2595H216.15V14.2595Z" fill="#B71F25"/>
<path d="M224.448 10.7275V9.73178L230.432 0.807861H231.723L225.787 9.73178L225.157 9.50634H234.227V10.7275H224.448ZM230.81 14.2595V10.7275L230.841 9.50634V6.38766H231.975V14.2595H230.81Z" fill="#B71F25"/>
<path d="M184.295 93.7481C183.461 93.7481 182.658 93.579 181.886 93.2596C181.114 92.9402 180.532 92.5081 180.107 92.0008L180.579 90.9112C180.973 91.3809 181.508 91.7566 182.185 92.076C182.862 92.3954 183.571 92.5457 184.311 92.5457C185.02 92.5457 185.602 92.433 186.043 92.2263C186.484 92.0196 186.815 91.7378 187.019 91.3621C187.224 91.0051 187.334 90.6106 187.334 90.1785C187.334 89.6525 187.208 89.2391 186.956 88.9009C186.704 88.5816 186.374 88.3185 185.964 88.1495C185.555 87.9616 185.098 87.7925 184.61 87.661C184.122 87.5295 183.618 87.3792 183.13 87.2101C182.642 87.041 182.185 86.8344 181.776 86.5713C181.366 86.3083 181.036 85.9514 180.784 85.5005C180.532 85.0496 180.406 84.486 180.406 83.7533C180.406 83.0957 180.548 82.4757 180.847 81.9121C181.146 81.3485 181.603 80.8976 182.201 80.5594C182.799 80.2212 183.602 80.0522 184.547 80.0522C185.177 80.0522 185.807 80.1649 186.437 80.3716C187.067 80.5783 187.602 80.8788 188.043 81.2546L187.633 82.3818C187.145 82.006 186.641 81.7243 186.09 81.5364C185.555 81.3485 185.02 81.2733 184.516 81.2733C183.839 81.2733 183.287 81.3861 182.847 81.5927C182.406 81.8182 182.075 82.1 181.87 82.4757C181.666 82.8327 181.555 83.246 181.555 83.7157C181.555 84.2418 181.681 84.6551 181.933 84.9932C182.185 85.3314 182.516 85.5568 182.925 85.7447C183.335 85.9326 183.791 86.0829 184.28 86.2332C184.768 86.3835 185.272 86.5338 185.76 86.7029C186.248 86.872 186.704 87.0786 187.114 87.3416C187.523 87.6046 187.854 87.9616 188.106 88.3937C188.358 88.8258 188.484 89.4082 188.484 90.1033C188.484 90.7609 188.326 91.3621 188.027 91.9257C187.728 92.4893 187.271 92.9402 186.657 93.2784C186.059 93.579 185.256 93.7481 184.295 93.7481Z" fill="#498A40"/>
<path d="M194.294 93.7293C193.46 93.7293 192.735 93.5038 192.09 93.0717C191.444 92.6396 190.94 92.0197 190.562 91.2306C190.184 90.4416 189.995 89.5586 189.995 88.5816C189.995 87.5671 190.184 86.6841 190.562 85.9138C190.94 85.1435 191.444 84.5424 192.09 84.1103C192.735 83.6782 193.475 83.4527 194.294 83.4527C195.129 83.4527 195.869 83.6782 196.53 84.1103C197.176 84.5612 197.695 85.1623 198.058 85.9138C198.42 86.6653 198.609 87.5671 198.609 88.5816C198.609 89.5773 198.42 90.4603 198.058 91.2494C197.68 92.0196 197.176 92.6396 196.514 93.0717C195.853 93.5038 195.129 93.7293 194.294 93.7293ZM194.294 92.5081C194.908 92.5081 195.444 92.339 195.916 92.0197C196.388 91.7003 196.766 91.2306 197.034 90.6294C197.302 90.0282 197.443 89.3519 197.443 88.5628C197.443 87.7738 197.302 87.0786 197.034 86.4962C196.766 85.9138 196.388 85.4442 195.916 85.1248C195.444 84.8054 194.908 84.6363 194.31 84.6363C193.712 84.6363 193.176 84.8054 192.704 85.1248C192.231 85.4442 191.853 85.9138 191.57 86.4962C191.287 87.0786 191.145 87.7738 191.145 88.5628C191.145 89.3519 191.287 90.0282 191.57 90.6294C191.853 91.2306 192.216 91.6815 192.688 92.0197C193.16 92.339 193.696 92.5081 194.294 92.5081Z" fill="#498A40"/>
<path d="M211.521 83.4338C212.214 83.4338 212.812 83.5841 213.316 83.9035C213.82 84.2229 214.229 84.6926 214.512 85.3314C214.796 85.9701 214.938 86.778 214.938 87.7549V93.6165H213.788V87.8865C213.788 86.8156 213.583 86.0265 213.158 85.4817C212.733 84.9369 212.135 84.6551 211.363 84.6551C210.781 84.6551 210.277 84.8053 209.852 85.0871C209.426 85.3689 209.096 85.8011 208.875 86.3459C208.639 86.8907 208.529 87.5483 208.529 88.3185V93.6165H207.379V87.8865C207.379 86.8156 207.159 86.0265 206.734 85.4817C206.309 84.9369 205.71 84.6551 204.923 84.6551C204.356 84.6551 203.852 84.8053 203.427 85.0871C203.002 85.3689 202.671 85.8011 202.435 86.3459C202.199 86.8907 202.089 87.5483 202.089 88.3185V93.6165H200.939V83.5278H202.041V86.2519L201.868 85.7635C202.12 85.0308 202.545 84.4672 203.112 84.0351C203.679 83.6217 204.372 83.4151 205.143 83.4151C205.978 83.4151 206.671 83.6593 207.253 84.1478C207.836 84.6362 208.214 85.3877 208.387 86.3646L207.93 86.158C208.182 85.3314 208.608 84.6738 209.237 84.1666C209.883 83.6969 210.639 83.4338 211.521 83.4338Z" fill="#498A40"/>
<path d="M221.646 93.7293C220.764 93.7293 219.992 93.5038 219.331 93.0717C218.67 92.6396 218.15 92.0196 217.772 91.2494C217.394 90.4791 217.205 89.5961 217.205 88.5816C217.205 87.5671 217.378 86.7029 217.74 85.9326C218.103 85.1623 218.591 84.5612 219.221 84.1103C219.85 83.6594 220.559 83.4527 221.346 83.4527C222.134 83.4527 222.842 83.6593 223.472 84.0915C224.086 84.5236 224.574 85.1247 224.937 85.895C225.299 86.6653 225.472 87.5671 225.472 88.5816C225.472 88.638 225.472 88.7131 225.472 88.7883C225.472 88.8634 225.456 88.9385 225.456 89.0137H218.087V87.9992H224.842L224.385 88.4125C224.385 87.6798 224.259 87.0223 223.992 86.4587C223.724 85.895 223.378 85.4442 222.921 85.1248C222.464 84.8054 221.945 84.6363 221.362 84.6363C220.78 84.6363 220.26 84.7866 219.803 85.1248C219.347 85.4442 218.984 85.8951 218.717 86.4775C218.465 87.0599 218.323 87.7174 218.323 88.4501V88.6567C218.323 89.427 218.465 90.1034 218.748 90.6858C219.032 91.2682 219.425 91.7191 219.945 92.0573C220.449 92.3766 221.031 92.5457 221.693 92.5457C222.212 92.5457 222.685 92.433 223.141 92.2263C223.582 92.0009 223.976 91.6815 224.291 91.2306L224.937 92.1136C224.559 92.6585 224.086 93.053 223.519 93.3348C222.937 93.579 222.323 93.7293 221.646 93.7293Z" fill="#498A40"/>
<path d="M226.464 84.6738V83.5466H231.707V84.6738H226.464ZM230.448 93.7293C229.66 93.7293 229.046 93.4663 228.605 92.959C228.18 92.4517 227.96 91.719 227.96 90.7797V81.311H229.109V90.7046C229.109 91.287 229.235 91.7566 229.487 92.076C229.739 92.3954 230.101 92.5645 230.574 92.5645C231.078 92.5645 231.503 92.3954 231.833 92.0384L232.243 93.0154C232.022 93.2596 231.739 93.4475 231.424 93.5602C231.109 93.6541 230.794 93.7293 230.448 93.7293Z" fill="#498A40"/>
<path d="M238.636 83.4338C239.329 83.4338 239.927 83.5841 240.447 83.9035C240.966 84.2229 241.376 84.6926 241.675 85.3314C241.974 85.9701 242.116 86.778 242.116 87.7549V93.6165H240.966V87.8865C240.966 86.8156 240.746 86.0265 240.305 85.4817C239.864 84.9369 239.234 84.6551 238.431 84.6551C237.833 84.6551 237.313 84.8053 236.857 85.0871C236.416 85.3689 236.069 85.8011 235.833 86.3459C235.597 86.8907 235.471 87.5483 235.471 88.3185V93.6165H234.321V79.3571H235.471V86.2895L235.25 85.7635C235.518 85.0308 235.943 84.4672 236.542 84.035C237.124 83.6405 237.817 83.4338 238.636 83.4338Z" fill="#498A40"/>
<path d="M245.785 81.311C245.549 81.311 245.344 81.217 245.186 81.0291C245.029 80.8412 244.95 80.597 244.95 80.334C244.95 80.071 245.029 79.8456 245.186 79.6577C245.344 79.4698 245.549 79.3759 245.785 79.3759C246.021 79.3759 246.226 79.4698 246.383 79.6389C246.541 79.8267 246.619 80.0334 246.619 80.3152C246.619 80.5971 246.541 80.8412 246.383 81.0291C246.241 81.1982 246.037 81.311 245.785 81.311ZM245.218 93.6166V83.5278H246.367V93.6166H245.218Z" fill="#498A40"/>
<path d="M253.863 83.4339C254.555 83.4339 255.154 83.5842 255.673 83.9035C256.193 84.2229 256.602 84.6926 256.902 85.3314C257.201 85.9702 257.343 86.778 257.343 87.755V93.6166H256.193V87.8865C256.193 86.8156 255.973 86.0266 255.532 85.4817C255.091 84.9369 254.461 84.6551 253.658 84.6551C253.06 84.6551 252.54 84.8053 252.083 85.0872C251.642 85.369 251.296 85.8011 251.06 86.3459C250.824 86.8907 250.698 87.5483 250.698 88.3186V93.6166H249.548V83.5278H250.65V86.2896L250.477 85.7635C250.745 85.0308 251.17 84.4672 251.768 84.0351C252.335 83.6405 253.044 83.4339 253.863 83.4339Z" fill="#498A40"/>
<path d="M263.83 93.2408C263.027 93.2408 262.303 93.0341 261.657 92.6208C261.011 92.2075 260.508 91.6251 260.13 90.8736C259.752 90.1221 259.578 89.2767 259.578 88.3185C259.578 87.3604 259.767 86.515 260.13 85.7635C260.508 85.0308 261.011 84.4484 261.657 84.0351C262.303 83.6217 263.027 83.4151 263.83 83.4151C264.586 83.4151 265.263 83.6029 265.861 83.9787C266.46 84.3544 266.948 84.8993 267.294 85.632C267.641 86.3647 267.83 87.2477 267.83 88.2998C267.83 89.3519 267.656 90.2348 267.294 90.9675C266.932 91.7002 266.46 92.2639 265.861 92.6396C265.263 93.0154 264.586 93.2408 263.83 93.2408ZM264.05 97.4491C263.279 97.4491 262.539 97.3176 261.83 97.0546C261.122 96.7915 260.539 96.397 260.098 95.9086L260.681 94.8753C261.074 95.3074 261.563 95.6267 262.161 95.8898C262.744 96.134 263.373 96.2655 264.019 96.2655C265.09 96.2655 265.877 95.9649 266.381 95.3637C266.885 94.7625 267.137 93.842 267.137 92.5833V90.0657L267.294 88.3373L267.184 86.6089V83.5466H268.286V92.4141C268.286 94.1613 267.924 95.4389 267.215 96.2467C266.491 97.0358 265.436 97.4491 264.05 97.4491ZM263.94 92.0384C264.57 92.0384 265.121 91.8881 265.594 91.5687C266.082 91.2494 266.46 90.8172 266.743 90.2536C267.027 89.69 267.168 89.0512 267.168 88.3185C267.168 87.5858 267.027 86.9471 266.743 86.4023C266.46 85.8574 266.082 85.4253 265.594 85.1059C265.105 84.7866 264.554 84.6363 263.94 84.6363C263.326 84.6363 262.775 84.7866 262.287 85.1059C261.799 85.4253 261.421 85.8574 261.137 86.4023C260.87 86.9471 260.728 87.5858 260.728 88.3185C260.728 89.0512 260.87 89.69 261.137 90.2536C261.405 90.8172 261.799 91.2494 262.287 91.5687C262.791 91.8693 263.342 92.0384 263.94 92.0384Z" fill="#498A40"/>
<path d="M275.939 93.6166V80.1649H277.136V92.3954H283.45V93.6166H275.939V93.6166Z" fill="#498A40"/>
<path d="M284.237 90.0846V89.0888L290.221 80.1649H291.496L285.56 89.0888L284.93 88.8634H294V90.0846H284.237ZM290.599 93.6166V90.0846L290.63 88.8634V85.7447H291.764V93.6166H290.599Z" fill="#498A40"/>
<path d="M179.288 191.009C178.453 191.009 177.65 190.84 176.879 190.521C176.107 190.202 175.525 189.77 175.099 189.262L175.572 188.173C175.965 188.642 176.501 189.018 177.178 189.337C177.855 189.657 178.564 189.807 179.304 189.807C180.012 189.807 180.595 189.694 181.036 189.488C181.477 189.281 181.807 188.999 182.012 188.624C182.217 188.267 182.327 187.872 182.327 187.44C182.327 186.914 182.201 186.501 181.949 186.162C181.697 185.843 181.366 185.58 180.957 185.411C180.548 185.223 180.091 185.054 179.603 184.922C179.115 184.791 178.611 184.641 178.123 184.472C177.635 184.302 177.178 184.096 176.768 183.833C176.359 183.57 176.028 183.213 175.776 182.762C175.524 182.311 175.399 181.747 175.399 181.015C175.399 180.357 175.54 179.737 175.839 179.174C176.139 178.61 176.595 178.159 177.194 177.821C177.792 177.483 178.595 177.314 179.54 177.314C180.17 177.314 180.8 177.426 181.429 177.633C182.059 177.84 182.595 178.14 183.036 178.516L182.626 179.643C182.138 179.268 181.634 178.986 181.083 178.798C180.548 178.61 180.012 178.535 179.508 178.535C178.831 178.535 178.28 178.648 177.839 178.854C177.398 179.08 177.068 179.361 176.863 179.737C176.658 180.094 176.548 180.507 176.548 180.977C176.548 181.503 176.674 181.916 176.926 182.255C177.178 182.593 177.509 182.818 177.918 183.006C178.327 183.194 178.784 183.344 179.272 183.495C179.76 183.645 180.264 183.795 180.752 183.964C181.24 184.133 181.697 184.34 182.106 184.603C182.516 184.866 182.847 185.223 183.099 185.655C183.35 186.087 183.476 186.67 183.476 187.365C183.476 188.022 183.319 188.624 183.02 189.187C182.721 189.751 182.264 190.202 181.65 190.54C181.051 190.84 180.264 191.009 179.288 191.009Z" fill="#F5A61D"/>
<path d="M189.303 190.991C188.468 190.991 187.744 190.765 187.098 190.333C186.452 189.901 185.949 189.281 185.571 188.492C185.193 187.703 185.004 186.82 185.004 185.843C185.004 184.828 185.193 183.945 185.571 183.175C185.949 182.405 186.452 181.804 187.098 181.372C187.744 180.939 188.484 180.714 189.303 180.714C190.137 180.714 190.877 180.939 191.539 181.372C192.184 181.822 192.704 182.424 193.066 183.175C193.428 183.927 193.617 184.828 193.617 185.843C193.617 186.839 193.428 187.722 193.066 188.511C192.688 189.281 192.184 189.901 191.523 190.333C190.861 190.765 190.121 190.991 189.303 190.991ZM189.303 189.788C189.917 189.788 190.452 189.619 190.924 189.3C191.397 188.98 191.775 188.511 192.042 187.91C192.31 187.308 192.452 186.632 192.452 185.843C192.452 185.054 192.31 184.359 192.042 183.776C191.775 183.194 191.397 182.724 190.924 182.405C190.452 182.086 189.917 181.916 189.318 181.916C188.72 181.916 188.185 182.086 187.712 182.405C187.24 182.724 186.862 183.194 186.578 183.776C186.295 184.359 186.153 185.054 186.153 185.843C186.153 186.632 186.295 187.308 186.578 187.91C186.862 188.511 187.224 188.962 187.696 189.3C188.169 189.619 188.688 189.788 189.303 189.788Z" fill="#F5A61D"/>
<path d="M206.513 180.714C207.206 180.714 207.805 180.864 208.308 181.184C208.812 181.503 209.222 181.973 209.505 182.612C209.789 183.25 209.93 184.058 209.93 185.035V190.897H208.781V185.167C208.781 184.096 208.576 183.307 208.151 182.762C207.726 182.217 207.127 181.935 206.356 181.935C205.773 181.935 205.269 182.086 204.844 182.367C204.419 182.649 204.088 183.081 203.868 183.626C203.632 184.171 203.522 184.829 203.522 185.599V190.897H202.372V185.167C202.372 184.096 202.152 183.307 201.726 182.762C201.301 182.217 200.703 181.935 199.916 181.935C199.349 181.935 198.845 182.086 198.42 182.367C197.995 182.649 197.664 183.081 197.428 183.626C197.191 184.171 197.081 184.829 197.081 185.599V190.897H195.932V180.808H197.034V183.532L196.861 183.044C197.113 182.311 197.538 181.747 198.105 181.315C198.672 180.902 199.364 180.695 200.136 180.695C200.971 180.695 201.663 180.94 202.246 181.428C202.829 181.917 203.207 182.668 203.38 183.645L202.923 183.438C203.175 182.612 203.6 181.954 204.23 181.447C204.891 180.977 205.647 180.714 206.513 180.714Z" fill="#F5A61D"/>
<path d="M216.638 190.991C215.756 190.991 214.985 190.765 214.324 190.333C213.662 189.901 213.143 189.281 212.765 188.511C212.387 187.74 212.198 186.857 212.198 185.843C212.198 184.828 212.371 183.964 212.733 183.194C213.095 182.424 213.583 181.822 214.213 181.372C214.843 180.921 215.552 180.714 216.339 180.714C217.126 180.714 217.835 180.921 218.465 181.353C219.079 181.785 219.567 182.386 219.929 183.156C220.291 183.927 220.465 184.828 220.465 185.843C220.465 185.899 220.465 185.974 220.465 186.05C220.465 186.125 220.449 186.2 220.449 186.275H213.08V185.261H219.835L219.378 185.674C219.378 184.941 219.252 184.284 218.984 183.72C218.717 183.156 218.37 182.705 217.914 182.386C217.457 182.067 216.937 181.898 216.355 181.898C215.772 181.898 215.253 182.048 214.796 182.386C214.339 182.705 213.977 183.156 213.709 183.739C213.457 184.321 213.316 184.979 213.316 185.711V185.918C213.316 186.688 213.457 187.365 213.741 187.947C214.024 188.529 214.418 188.98 214.938 189.319C215.442 189.638 216.024 189.807 216.685 189.807C217.205 189.807 217.677 189.694 218.134 189.488C218.575 189.262 218.969 188.943 219.284 188.492L219.929 189.375C219.551 189.92 219.079 190.314 218.512 190.596C217.929 190.859 217.315 190.991 216.638 190.991Z" fill="#F5A61D"/>
<path d="M221.457 181.954V180.827H226.7V181.954H221.457ZM225.456 190.991C224.669 190.991 224.055 190.728 223.614 190.22C223.189 189.713 222.968 188.98 222.968 188.041V178.572H224.118V187.966C224.118 188.548 224.244 189.018 224.496 189.337C224.748 189.657 225.11 189.826 225.582 189.826C226.086 189.826 226.511 189.657 226.842 189.3L227.251 190.277C227.031 190.521 226.747 190.709 226.432 190.822C226.102 190.934 225.787 190.991 225.456 190.991Z" fill="#F5A61D"/>
<path d="M233.629 180.714C234.321 180.714 234.92 180.864 235.439 181.184C235.959 181.503 236.368 181.973 236.668 182.612C236.967 183.25 237.108 184.058 237.108 185.035V190.897H235.959V185.167C235.959 184.096 235.739 183.307 235.298 182.762C234.857 182.217 234.227 181.935 233.424 181.935C232.825 181.935 232.306 182.085 231.849 182.367C231.408 182.649 231.062 183.081 230.826 183.626C230.589 184.171 230.464 184.828 230.464 185.599V190.897H229.314V176.637H230.464V183.57L230.243 183.044C230.511 182.311 230.936 181.747 231.534 181.315C232.117 180.921 232.81 180.714 233.629 180.714Z" fill="#F5A61D"/>
<path d="M240.793 178.572C240.557 178.572 240.352 178.478 240.195 178.29C240.037 178.103 239.959 177.858 239.959 177.595C239.959 177.332 240.037 177.107 240.195 176.919C240.352 176.731 240.557 176.637 240.793 176.637C241.029 176.637 241.234 176.731 241.391 176.9C241.549 177.088 241.628 177.295 241.628 177.577C241.628 177.858 241.549 178.103 241.391 178.29C241.234 178.478 241.029 178.572 240.793 178.572ZM240.21 190.897V180.808H241.36V190.897H240.21Z" fill="#F5A61D"/>
<path d="M248.855 180.714C249.548 180.714 250.146 180.864 250.666 181.184C251.186 181.503 251.595 181.973 251.894 182.612C252.193 183.25 252.335 184.058 252.335 185.035V190.897H251.186V185.167C251.186 184.096 250.965 183.307 250.524 182.762C250.083 182.217 249.454 181.935 248.651 181.935C248.052 181.935 247.533 182.085 247.076 182.367C246.635 182.649 246.289 183.081 246.052 183.626C245.816 184.171 245.69 184.828 245.69 185.599V190.897H244.541V180.808H245.643V183.57L245.47 183.044C245.737 182.311 246.163 181.747 246.761 181.315C247.344 180.921 248.036 180.714 248.855 180.714Z" fill="#F5A61D"/>
<path d="M258.838 190.521C258.035 190.521 257.311 190.314 256.665 189.901C256.02 189.488 255.516 188.905 255.138 188.154C254.76 187.402 254.587 186.557 254.587 185.599C254.587 184.641 254.776 183.795 255.138 183.044C255.516 182.311 256.02 181.729 256.665 181.315C257.311 180.902 258.035 180.695 258.838 180.695C259.594 180.695 260.271 180.883 260.87 181.259C261.468 181.635 261.956 182.18 262.303 182.912C262.649 183.645 262.838 184.528 262.838 185.58C262.838 186.632 262.665 187.515 262.303 188.248C261.94 188.981 261.468 189.544 260.87 189.92C260.271 190.296 259.579 190.521 258.838 190.521ZM259.043 194.729C258.272 194.729 257.531 194.598 256.823 194.335C256.114 194.072 255.532 193.677 255.091 193.189L255.673 192.156C256.067 192.588 256.555 192.907 257.154 193.17C257.736 193.414 258.366 193.546 259.012 193.546C260.082 193.546 260.87 193.245 261.374 192.644C261.877 192.043 262.129 191.122 262.129 189.864V187.346L262.287 185.618L262.177 183.889V180.827H263.279V189.694C263.279 191.442 262.917 192.719 262.208 193.527C261.5 194.316 260.445 194.729 259.043 194.729ZM258.949 189.3C259.579 189.3 260.13 189.15 260.602 188.83C261.09 188.511 261.468 188.079 261.752 187.515C262.035 186.952 262.177 186.313 262.177 185.58C262.177 184.847 262.035 184.209 261.752 183.664C261.468 183.119 261.09 182.687 260.602 182.367C260.114 182.048 259.563 181.898 258.949 181.898C258.335 181.898 257.783 182.048 257.295 182.367C256.807 182.687 256.429 183.119 256.146 183.664C255.878 184.209 255.736 184.847 255.736 185.58C255.736 186.313 255.878 186.952 256.146 187.515C256.413 188.079 256.807 188.511 257.295 188.83C257.783 189.15 258.335 189.3 258.949 189.3Z" fill="#F5A61D"/>
<path d="M270.932 190.897V177.445H272.128V189.675H278.443V190.897H270.932V190.897Z" fill="#F5A61D"/>
<path d="M279.23 187.365V186.369L285.214 177.445H286.505L280.568 186.369L279.939 186.143H289.008V187.365H279.23ZM285.591 190.897V187.365L285.623 186.143V183.025H286.757V190.897H285.591Z" fill="#F5A61D"/>
<path d="M113.027 277.28C112.193 277.28 111.39 277.111 110.618 276.792C109.847 276.472 109.264 276.04 108.839 275.533L109.311 274.443C109.705 274.913 110.24 275.289 110.917 275.608C111.594 275.927 112.303 276.078 113.043 276.078C113.752 276.078 114.334 275.965 114.775 275.758C115.216 275.552 115.547 275.27 115.751 274.894C115.956 274.537 116.066 274.143 116.066 273.71C116.066 273.184 115.94 272.771 115.688 272.452C115.436 272.132 115.106 271.869 114.696 271.7C114.287 271.531 113.83 271.343 113.342 271.212C112.854 271.061 112.35 270.911 111.862 270.761C111.374 270.611 110.917 270.385 110.508 270.122C110.098 269.859 109.768 269.502 109.516 269.051C109.264 268.6 109.138 268.037 109.138 267.304C109.138 266.646 109.28 266.026 109.579 265.463C109.878 264.899 110.335 264.448 110.933 264.11C111.531 263.772 112.334 263.603 113.279 263.603C113.909 263.603 114.539 263.716 115.169 263.922C115.799 264.129 116.334 264.43 116.775 264.805L116.365 265.933C115.877 265.538 115.373 265.275 114.822 265.087C114.287 264.899 113.752 264.824 113.248 264.824C112.571 264.824 112.02 264.937 111.579 265.143C111.138 265.369 110.807 265.651 110.602 266.026C110.398 266.383 110.287 266.797 110.287 267.266C110.287 267.792 110.413 268.206 110.665 268.525C110.917 268.845 111.248 269.089 111.657 269.277C112.067 269.465 112.523 269.615 113.012 269.765C113.5 269.915 114.004 270.066 114.492 270.235C114.98 270.404 115.436 270.611 115.846 270.874C116.255 271.137 116.586 271.494 116.838 271.926C117.09 272.358 117.216 272.94 117.216 273.635C117.216 274.293 117.058 274.894 116.759 275.458C116.46 276.021 116.003 276.472 115.389 276.81C114.791 277.111 114.004 277.28 113.027 277.28Z" fill="#486099"/>
<path d="M123.042 277.261C122.207 277.261 121.483 277.036 120.837 276.604C120.192 276.172 119.688 275.552 119.31 274.763C118.932 273.974 118.743 273.091 118.743 272.114C118.743 271.099 118.932 270.216 119.31 269.446C119.688 268.676 120.192 268.074 120.837 267.642C121.483 267.21 122.223 266.985 123.042 266.985C123.876 266.985 124.617 267.21 125.278 267.642C125.924 268.093 126.443 268.694 126.805 269.446C127.183 270.216 127.356 271.099 127.356 272.114C127.356 273.109 127.167 273.992 126.805 274.781C126.427 275.552 125.923 276.172 125.262 276.604C124.601 277.036 123.861 277.261 123.042 277.261ZM123.042 276.059C123.656 276.059 124.191 275.89 124.664 275.571C125.136 275.251 125.514 274.781 125.782 274.18C126.049 273.579 126.191 272.903 126.191 272.114C126.191 271.325 126.049 270.629 125.782 270.028C125.514 269.446 125.136 268.976 124.664 268.657C124.191 268.337 123.656 268.168 123.058 268.168C122.459 268.168 121.924 268.337 121.452 268.657C120.979 268.976 120.601 269.446 120.318 270.028C120.034 270.611 119.893 271.306 119.893 272.114C119.893 272.903 120.034 273.579 120.318 274.18C120.601 274.781 120.963 275.232 121.436 275.571C121.908 275.89 122.444 276.059 123.042 276.059Z" fill="#486099"/>
<path d="M140.268 266.985C140.961 266.985 141.56 267.135 142.064 267.454C142.567 267.774 142.977 268.244 143.26 268.882C143.544 269.521 143.685 270.329 143.685 271.306V277.167H142.536V271.437C142.536 270.366 142.331 269.577 141.906 269.033C141.481 268.488 140.883 268.225 140.111 268.225C139.528 268.225 139.024 268.375 138.599 268.657C138.174 268.939 137.844 269.371 137.623 269.916C137.387 270.46 137.277 271.118 137.277 271.888V277.186H136.127V271.456C136.127 270.385 135.907 269.596 135.482 269.051C135.056 268.507 134.458 268.244 133.671 268.244C133.104 268.244 132.6 268.394 132.175 268.676C131.75 268.957 131.419 269.39 131.183 269.934C130.947 270.479 130.836 271.137 130.836 271.907V277.205H129.687V267.116H130.789V269.84L130.616 269.352C130.868 268.619 131.293 268.056 131.86 267.623C132.427 267.21 133.12 267.004 133.891 267.004C134.726 267.004 135.419 267.248 136.001 267.736C136.584 268.225 136.962 268.976 137.135 269.953L136.678 269.746C136.93 268.92 137.355 268.262 137.985 267.755C138.631 267.229 139.387 266.985 140.268 266.985Z" fill="#486099"/>
<path d="M150.378 277.261C149.496 277.261 148.724 277.036 148.063 276.604C147.402 276.172 146.882 275.552 146.504 274.781C146.126 274.011 145.937 273.109 145.937 272.114C145.937 271.118 146.11 270.235 146.472 269.465C146.835 268.694 147.323 268.093 147.953 267.642C148.583 267.191 149.291 266.985 150.078 266.985C150.866 266.985 151.574 267.191 152.204 267.623C152.818 268.056 153.306 268.657 153.669 269.427C154.031 270.197 154.204 271.099 154.204 272.114C154.204 272.17 154.204 272.245 154.204 272.32C154.204 272.395 154.188 272.471 154.188 272.546H146.819V271.531H153.574L153.117 271.926C153.117 271.193 152.991 270.536 152.724 269.972C152.456 269.408 152.11 268.957 151.653 268.638C151.196 268.319 150.677 268.15 150.094 268.15C149.512 268.15 148.992 268.319 148.535 268.638C148.079 268.957 147.716 269.408 147.449 269.991C147.197 270.573 147.055 271.231 147.055 271.963V272.17C147.055 272.94 147.197 273.617 147.48 274.199C147.764 274.781 148.157 275.232 148.677 275.571C149.181 275.89 149.763 276.059 150.425 276.059C150.944 276.059 151.417 275.946 151.873 275.74C152.314 275.514 152.708 275.195 153.023 274.744L153.669 275.627C153.291 276.172 152.818 276.566 152.251 276.867C151.669 277.13 151.055 277.261 150.378 277.261Z" fill="#486099"/>
<path d="M155.196 268.206V267.079H160.44V268.206H155.196ZM159.196 277.261C158.408 277.261 157.794 276.998 157.353 276.491C156.928 275.984 156.708 275.251 156.708 274.312V264.843H157.857V274.237C157.857 274.819 157.983 275.289 158.235 275.608C158.487 275.927 158.849 276.097 159.322 276.097C159.825 276.097 160.251 275.928 160.581 275.571L160.991 276.547C160.77 276.792 160.487 276.961 160.172 277.092C159.857 277.205 159.526 277.261 159.196 277.261Z" fill="#486099"/>
<path d="M167.368 266.985C168.061 266.985 168.659 267.135 169.179 267.454C169.698 267.774 170.108 268.243 170.407 268.882C170.706 269.521 170.848 270.329 170.848 271.306V277.167H169.698V271.437C169.698 270.366 169.478 269.577 169.037 269.033C168.596 268.488 167.966 268.225 167.163 268.225C166.565 268.225 166.045 268.375 165.589 268.657C165.148 268.939 164.801 269.371 164.565 269.916C164.329 270.46 164.203 271.118 164.203 271.888V277.186H163.053V262.927H164.203V269.859L163.982 269.333C164.25 268.6 164.675 268.037 165.274 267.605C165.872 267.173 166.565 266.985 167.368 266.985Z" fill="#486099"/>
<path d="M174.532 264.843C174.296 264.843 174.092 264.749 173.934 264.561C173.777 264.373 173.698 264.148 173.698 263.866C173.698 263.584 173.777 263.378 173.934 263.19C174.092 263.002 174.296 262.908 174.532 262.908C174.769 262.908 174.973 263.002 175.131 263.171C175.288 263.359 175.367 263.565 175.367 263.847C175.367 264.129 175.288 264.373 175.131 264.561C174.973 264.749 174.769 264.843 174.532 264.843ZM173.95 277.167V267.079H175.099V277.167H173.95Z" fill="#486099"/>
<path d="M182.595 266.985C183.287 266.985 183.886 267.135 184.405 267.454C184.925 267.774 185.334 268.244 185.634 268.882C185.933 269.521 186.075 270.329 186.075 271.306V277.167H184.925V271.437C184.925 270.366 184.705 269.577 184.264 269.033C183.823 268.488 183.193 268.225 182.39 268.225C181.792 268.225 181.272 268.375 180.815 268.657C180.374 268.939 180.028 269.371 179.792 269.916C179.556 270.46 179.43 271.118 179.43 271.888V277.186H178.28V267.097H179.382V269.859L179.209 269.333C179.477 268.6 179.902 268.037 180.5 267.605C181.099 267.173 181.792 266.985 182.595 266.985Z" fill="#486099"/>
<path d="M192.578 276.773C191.775 276.773 191.05 276.566 190.405 276.153C189.759 275.74 189.255 275.157 188.877 274.406C188.499 273.654 188.326 272.809 188.326 271.851C188.326 270.892 188.515 270.047 188.877 269.296C189.255 268.563 189.759 267.98 190.405 267.567C191.05 267.154 191.775 266.947 192.578 266.947C193.334 266.947 194.011 267.135 194.609 267.511C195.207 267.886 195.696 268.431 196.042 269.164C196.388 269.897 196.577 270.78 196.577 271.832C196.577 272.884 196.404 273.767 196.042 274.5C195.68 275.232 195.207 275.796 194.609 276.172C193.995 276.585 193.318 276.773 192.578 276.773ZM192.782 281C192.011 281 191.271 280.868 190.562 280.605C189.854 280.342 189.271 279.948 188.83 279.459L189.413 278.426C189.806 278.839 190.295 279.178 190.893 279.441C191.476 279.685 192.105 279.816 192.751 279.816C193.822 279.816 194.609 279.516 195.113 278.915C195.617 278.313 195.869 277.393 195.869 276.134V273.617L196.026 271.888L195.916 270.16V267.097H197.018V275.965C197.018 277.712 196.656 278.99 195.948 279.798C195.239 280.587 194.184 281 192.782 281ZM192.688 275.57C193.318 275.57 193.869 275.42 194.341 275.101C194.83 274.781 195.207 274.349 195.491 273.786C195.774 273.222 195.916 272.583 195.916 271.851C195.916 271.118 195.774 270.479 195.491 269.934C195.207 269.389 194.83 268.957 194.341 268.638C193.853 268.319 193.302 268.168 192.688 268.168C192.074 268.168 191.523 268.319 191.035 268.638C190.547 268.957 190.169 269.389 189.885 269.934C189.617 270.479 189.476 271.118 189.476 271.851C189.476 272.583 189.617 273.222 189.885 273.786C190.153 274.349 190.547 274.781 191.035 275.101C191.523 275.42 192.074 275.57 192.688 275.57Z" fill="#486099"/>
<path d="M204.671 277.167V263.716H205.868V275.946H212.182V277.186H204.671V277.167Z" fill="#486099"/>
<path d="M212.969 273.635V272.621L218.953 263.697H220.244L214.308 272.621L213.678 272.395H222.748V273.617H212.969V273.635ZM219.331 277.167V273.635L219.362 272.414V269.296H220.496V277.186H219.331V277.167Z" fill="#486099"/>
</svg>
