<svg width="196" height="69" viewBox="0 0 196 69" fill="none" xmlns="http://www.w3.org/2000/svg">
<path d="M3.67999 31.84C3.00999 31.84 2.37999 31.74 1.76999 31.53C1.15999 31.33 0.679987 31.06 0.329987 30.74L0.790009 29.76C1.12001 30.05 1.55001 30.29 2.07001 30.49C2.59001 30.69 3.11999 30.78 3.67999 30.78C4.18999 30.78 4.60001 30.72 4.92001 30.6C5.24001 30.48 5.47 30.32 5.62 30.12C5.77 29.92 5.84 29.68 5.84 29.43C5.84 29.13 5.73999 28.89 5.54999 28.7C5.34999 28.52 5.10001 28.37 4.79001 28.26C4.48001 28.15 4.13001 28.05 3.76001 27.97C3.38001 27.89 3.01 27.79 2.63 27.68C2.25 27.57 1.9 27.42 1.59 27.25C1.28 27.08 1.02999 26.84 0.829987 26.54C0.639987 26.24 0.540009 25.86 0.540009 25.4C0.540009 24.95 0.659994 24.54 0.899994 24.16C1.13999 23.78 1.5 23.48 2 23.25C2.5 23.02 3.13001 22.91 3.89001 22.91C4.40001 22.91 4.89999 22.98 5.39999 23.11C5.89999 23.24 6.33001 23.44 6.70001 23.69L6.29001 24.69C5.91001 24.44 5.52001 24.26 5.10001 24.15C4.68001 24.04 4.28001 23.98 3.89001 23.98C3.40001 23.98 2.98999 24.04 2.67999 24.17C2.35999 24.29 2.12999 24.46 1.98999 24.67C1.83999 24.88 1.76999 25.11 1.76999 25.37C1.76999 25.68 1.87 25.92 2.06 26.11C2.26 26.29 2.51001 26.44 2.82001 26.55C3.13001 26.66 3.48001 26.76 3.85001 26.84C4.23001 26.93 4.60001 27.03 4.98001 27.13C5.36001 27.24 5.70999 27.38 6.01999 27.56C6.32999 27.74 6.58 27.97 6.78 28.26C6.97 28.55 7.07001 28.93 7.07001 29.39C7.07001 29.83 6.94999 30.24 6.70999 30.62C6.46999 31 6.09 31.3 5.59 31.53C5.08 31.72 4.43999 31.84 3.67999 31.84Z" fill="#201032"/>
<path d="M11.55 31.81C10.89 31.81 10.3 31.66 9.78 31.37C9.26 31.08 8.84999 30.68 8.54999 30.16C8.24999 29.65 8.10001 29.07 8.10001 28.42C8.10001 27.76 8.24999 27.18 8.54999 26.68C8.84999 26.18 9.26 25.78 9.78 25.49C10.3 25.2 10.89 25.05 11.56 25.05C12.22 25.05 12.81 25.19 13.33 25.48C13.85 25.77 14.26 26.17 14.56 26.67C14.86 27.18 15 27.76 15 28.42C15 29.08 14.85 29.66 14.56 30.17C14.26 30.68 13.85 31.08 13.33 31.37C12.8 31.67 12.21 31.81 11.55 31.81ZM11.55 30.76C11.97 30.76 12.36 30.66 12.69 30.47C13.03 30.28 13.29 30.01 13.48 29.65C13.67 29.3 13.77 28.89 13.77 28.42C13.77 27.94 13.67 27.53 13.48 27.19C13.29 26.84 13.02 26.58 12.69 26.38C12.36 26.18 11.97 26.09 11.55 26.09C11.13 26.09 10.75 26.19 10.41 26.38C10.08 26.57 9.80999 26.84 9.60999 27.19C9.40999 27.54 9.31 27.95 9.31 28.42C9.31 28.89 9.40999 29.3 9.60999 29.65C9.80999 30 10.08 30.28 10.41 30.47C10.75 30.66 11.13 30.76 11.55 30.76Z" fill="#201032"/>
<path d="M24.95 25.05C25.48 25.05 25.95 25.15 26.36 25.36C26.77 25.57 27.09 25.88 27.32 26.31C27.55 26.74 27.66 27.27 27.66 27.92V31.73H26.46V28.05C26.46 27.41 26.31 26.93 26.01 26.6C25.71 26.27 25.29 26.11 24.75 26.11C24.35 26.11 24 26.19 23.7 26.36C23.4 26.53 23.17 26.77 23.01 27.1C22.85 27.43 22.77 27.83 22.77 28.31V31.72H21.57V28.04C21.57 27.4 21.42 26.92 21.13 26.59C20.84 26.26 20.41 26.1 19.86 26.1C19.47 26.1 19.12 26.18 18.82 26.35C18.52 26.52 18.29 26.76 18.12 27.09C17.95 27.42 17.87 27.82 17.87 28.3V31.71H16.67V25.08H17.82V26.84L17.63 26.39C17.84 25.96 18.16 25.62 18.59 25.38C19.02 25.14 19.53 25.02 20.1 25.02C20.73 25.02 21.28 25.18 21.74 25.49C22.2 25.8 22.5 26.28 22.64 26.91L22.15 26.71C22.35 26.2 22.7 25.79 23.2 25.48C23.7 25.2 24.28 25.05 24.95 25.05Z" fill="#201032"/>
<path d="M32.82 31.81C32.11 31.81 31.49 31.66 30.95 31.37C30.41 31.08 29.99 30.68 29.7 30.17C29.4 29.66 29.26 29.08 29.26 28.42C29.26 27.76 29.4 27.18 29.69 26.67C29.98 26.16 30.37 25.76 30.88 25.48C31.39 25.2 31.95 25.05 32.59 25.05C33.23 25.05 33.8 25.19 34.29 25.48C34.78 25.76 35.17 26.16 35.45 26.67C35.73 27.18 35.87 27.78 35.87 28.46C35.87 28.51 35.87 28.57 35.86 28.64C35.86 28.71 35.85 28.77 35.84 28.83H30.2V27.97H35.21L34.72 28.27C34.73 27.84 34.64 27.47 34.46 27.13C34.28 26.79 34.02 26.54 33.7 26.35C33.38 26.16 33.01 26.07 32.58 26.07C32.16 26.07 31.79 26.16 31.47 26.35C31.15 26.54 30.89 26.8 30.71 27.14C30.53 27.48 30.44 27.86 30.44 28.3V28.5C30.44 28.94 30.54 29.34 30.75 29.68C30.95 30.03 31.24 30.3 31.61 30.49C31.98 30.68 32.4 30.78 32.87 30.78C33.26 30.78 33.62 30.71 33.94 30.58C34.26 30.45 34.54 30.25 34.78 29.98L35.44 30.76C35.14 31.11 34.77 31.38 34.32 31.56C33.87 31.72 33.38 31.81 32.82 31.81Z" fill="#201032"/>
<path d="M36.58 26.1V25.11H40.81V26.1H36.58ZM39.8 31.81C39.13 31.81 38.62 31.63 38.25 31.27C37.88 30.91 37.7 30.4 37.7 29.73V23.65H38.9V29.68C38.9 30.04 38.99 30.31 39.17 30.51C39.35 30.7 39.61 30.8 39.94 30.8C40.32 30.8 40.63 30.7 40.88 30.49L41.26 31.35C41.08 31.51 40.86 31.63 40.6 31.7C40.34 31.77 40.08 31.81 39.8 31.81Z" fill="#201032"/>
<path d="M46.24 25.05C46.78 25.05 47.26 25.15 47.67 25.36C48.08 25.57 48.41 25.88 48.64 26.31C48.87 26.74 48.99 27.27 48.99 27.92V31.73H47.79V28.05C47.79 27.41 47.63 26.93 47.32 26.6C47.01 26.27 46.57 26.11 46 26.11C45.58 26.11 45.2 26.19 44.89 26.36C44.57 26.53 44.33 26.77 44.16 27.1C43.99 27.43 43.9 27.83 43.9 28.31V31.72H42.7V22.44H43.9V26.88L43.66 26.4C43.88 25.97 44.21 25.63 44.66 25.39C45.11 25.15 45.64 25.05 46.24 25.05Z" fill="#201032"/>
<path d="M51.82 23.83C51.59 23.83 51.39 23.75 51.24 23.6C51.09 23.45 51.01 23.27 51.01 23.05C51.01 22.82 51.09 22.64 51.24 22.49C51.39 22.34 51.59 22.26 51.82 22.26C52.05 22.26 52.25 22.33 52.4 22.48C52.55 22.63 52.63 22.81 52.63 23.02C52.63 23.25 52.55 23.44 52.41 23.59C52.26 23.76 52.06 23.83 51.82 23.83ZM51.22 31.74V25.11H52.42V31.74H51.22Z" fill="#201032"/>
<path d="M58.25 25.05C58.79 25.05 59.27 25.15 59.68 25.36C60.09 25.57 60.42 25.88 60.65 26.31C60.88 26.74 61 27.27 61 27.92V31.73H59.8V28.05C59.8 27.41 59.64 26.93 59.33 26.6C59.02 26.27 58.58 26.11 58.01 26.11C57.59 26.11 57.21 26.19 56.9 26.36C56.58 26.53 56.34 26.77 56.17 27.1C56 27.43 55.91 27.83 55.91 28.31V31.72H54.71V25.09H55.86V26.88L55.67 26.4C55.89 25.97 56.22 25.63 56.67 25.39C57.12 25.15 57.65 25.05 58.25 25.05Z" fill="#201032"/>
<path d="M65.97 31.46C65.33 31.46 64.76 31.32 64.25 31.05C63.75 30.78 63.34 30.4 63.05 29.92C62.75 29.44 62.61 28.88 62.61 28.24C62.61 27.6 62.76 27.04 63.05 26.56C63.34 26.08 63.75 25.71 64.25 25.44C64.75 25.17 65.33 25.04 65.97 25.04C66.54 25.04 67.05 25.15 67.52 25.38C67.99 25.61 68.36 25.96 68.64 26.44C68.92 26.92 69.06 27.52 69.06 28.24C69.06 28.96 68.92 29.55 68.64 30.03C68.36 30.51 67.99 30.86 67.52 31.1C67.06 31.34 66.54 31.46 65.97 31.46ZM66.12 34.24C65.51 34.24 64.92 34.15 64.35 33.98C63.78 33.81 63.31 33.57 62.96 33.25L63.54 32.32C63.85 32.59 64.23 32.8 64.68 32.95C65.13 33.1 65.6 33.18 66.09 33.18C66.87 33.18 67.45 33 67.82 32.63C68.19 32.26 68.37 31.7 68.37 30.95V29.55L68.49 28.24L68.43 26.91V25.1H69.57V30.83C69.57 32 69.28 32.86 68.69 33.41C68.11 33.96 67.25 34.24 66.12 34.24ZM66.11 30.41C66.55 30.41 66.94 30.32 67.29 30.14C67.64 29.96 67.9 29.7 68.1 29.38C68.3 29.05 68.39 28.68 68.39 28.25C68.39 27.82 68.29 27.45 68.1 27.12C67.9 26.79 67.64 26.54 67.29 26.36C66.95 26.18 66.56 26.09 66.11 26.09C65.67 26.09 65.27 26.18 64.93 26.36C64.58 26.54 64.31 26.79 64.12 27.12C63.92 27.45 63.83 27.82 63.83 28.25C63.83 28.67 63.93 29.05 64.12 29.38C64.32 29.7 64.59 29.96 64.93 30.14C65.27 30.32 65.67 30.41 66.11 30.41Z" fill="#201032"/>
<path d="M26.42 53.49C25.95 52.73 25.58 51.85 25.32 50.86C25.06 49.86 24.93 48.79 24.93 47.64C24.93 46.49 25.06 45.41 25.32 44.41C25.58 43.41 25.95 42.53 26.42 41.79H27.56C27.06 42.67 26.69 43.6 26.46 44.56C26.23 45.52 26.11 46.55 26.11 47.64C26.11 48.73 26.23 49.76 26.46 50.72C26.69 51.68 27.06 52.61 27.56 53.49H26.42Z" fill="#201032"/>
<path d="M29.27 51.06V42.31H30.52V49.98H35.26V51.07H29.27V51.06Z" fill="#201032"/>
<path d="M35.84 51.06V50.21L39.4 46.77C39.72 46.47 39.95 46.21 40.11 45.98C40.26 45.75 40.37 45.54 40.42 45.34C40.47 45.14 40.5 44.95 40.5 44.77C40.5 44.32 40.34 43.97 40.03 43.71C39.71 43.45 39.25 43.32 38.64 43.32C38.17 43.32 37.75 43.4 37.38 43.55C37.01 43.7 36.68 43.94 36.4 44.27L35.55 43.53C35.88 43.11 36.33 42.78 36.89 42.55C37.45 42.32 38.07 42.21 38.75 42.21C39.36 42.21 39.89 42.31 40.34 42.5C40.79 42.69 41.14 42.98 41.38 43.34C41.63 43.71 41.75 44.14 41.75 44.64C41.75 44.92 41.71 45.2 41.64 45.48C41.57 45.75 41.42 46.05 41.22 46.36C41.01 46.67 40.71 47.01 40.32 47.4L37.14 50.46L36.84 49.97H42.13V51.06H35.84Z" fill="#201032"/>
<path d="M44.1 53.49H42.96C43.47 52.61 43.84 51.68 44.07 50.72C44.3 49.76 44.42 48.73 44.42 47.64C44.42 46.55 44.3 45.52 44.07 44.56C43.84 43.6 43.47 42.67 42.96 41.79H44.1C44.59 42.53 44.97 43.41 45.22 44.41C45.47 45.41 45.6 46.49 45.6 47.64C45.6 48.79 45.47 49.86 45.22 50.86C44.97 51.86 44.59 52.73 44.1 53.49Z" fill="#201032"/>
<path d="M125.73 34.77C125.2 34.77 124.69 34.68 124.2 34.51C123.71 34.34 123.34 34.11 123.07 33.84L123.37 33.26C123.62 33.51 123.96 33.71 124.39 33.88C124.82 34.05 125.27 34.13 125.73 34.13C126.18 34.13 126.55 34.07 126.83 33.96C127.11 33.85 127.32 33.7 127.45 33.5C127.58 33.31 127.65 33.1 127.65 32.87C127.65 32.59 127.57 32.37 127.41 32.19C127.25 32.02 127.04 31.88 126.78 31.79C126.52 31.69 126.23 31.6 125.92 31.53C125.61 31.46 125.29 31.38 124.98 31.29C124.67 31.2 124.38 31.09 124.11 30.95C123.84 30.81 123.64 30.62 123.48 30.38C123.32 30.14 123.24 29.84 123.24 29.45C123.24 29.1 123.33 28.77 123.52 28.47C123.71 28.17 124 27.93 124.38 27.75C124.76 27.57 125.27 27.48 125.87 27.48C126.27 27.48 126.67 27.54 127.07 27.65C127.47 27.76 127.81 27.92 128.09 28.12L127.83 28.72C127.52 28.52 127.2 28.37 126.85 28.27C126.51 28.17 126.17 28.13 125.85 28.13C125.42 28.13 125.07 28.19 124.79 28.3C124.51 28.42 124.3 28.57 124.17 28.77C124.04 28.96 123.97 29.18 123.97 29.43C123.97 29.71 124.05 29.93 124.21 30.11C124.37 30.28 124.58 30.41 124.84 30.51C125.1 30.61 125.39 30.69 125.7 30.77C126.01 30.85 126.33 30.93 126.64 31.02C126.95 31.11 127.24 31.22 127.5 31.36C127.76 31.5 127.97 31.69 128.13 31.92C128.29 32.15 128.37 32.46 128.37 32.83C128.37 33.18 128.27 33.5 128.08 33.8C127.89 34.1 127.6 34.34 127.2 34.52C126.85 34.68 126.34 34.77 125.73 34.77Z" fill="#498A40"/>
<path d="M132.08 34.76C131.55 34.76 131.09 34.64 130.68 34.41C130.27 34.18 129.95 33.85 129.71 33.43C129.47 33.01 129.35 32.54 129.35 32.02C129.35 31.48 129.47 31.01 129.71 30.6C129.95 30.19 130.27 29.87 130.68 29.64C131.09 29.41 131.56 29.29 132.08 29.29C132.61 29.29 133.08 29.41 133.5 29.64C133.91 29.88 134.24 30.2 134.47 30.6C134.7 31 134.82 31.48 134.82 32.02C134.82 32.55 134.7 33.02 134.47 33.44C134.23 33.85 133.91 34.18 133.49 34.41C133.07 34.64 132.61 34.76 132.08 34.76ZM132.08 34.12C132.47 34.12 132.81 34.03 133.11 33.86C133.41 33.69 133.65 33.44 133.82 33.12C133.99 32.8 134.08 32.44 134.08 32.02C134.08 31.6 133.99 31.23 133.82 30.92C133.65 30.61 133.41 30.36 133.11 30.19C132.81 30.02 132.47 29.93 132.09 29.93C131.71 29.93 131.37 30.02 131.07 30.19C130.77 30.36 130.53 30.61 130.35 30.92C130.17 31.23 130.08 31.6 130.08 32.02C130.08 32.44 130.17 32.8 130.35 33.12C130.53 33.44 130.76 33.68 131.06 33.86C131.36 34.03 131.7 34.12 132.08 34.12Z" fill="#498A40"/>
<path d="M143.02 29.29C143.46 29.29 143.84 29.37 144.16 29.54C144.48 29.71 144.74 29.96 144.92 30.3C145.1 30.64 145.19 31.07 145.19 31.59V34.71H144.46V31.66C144.46 31.09 144.33 30.67 144.06 30.38C143.79 30.09 143.41 29.94 142.92 29.94C142.55 29.94 142.23 30.02 141.96 30.17C141.69 30.32 141.48 30.55 141.34 30.84C141.19 31.13 141.12 31.48 141.12 31.89V34.71H140.39V31.66C140.39 31.09 140.25 30.67 139.98 30.38C139.71 30.09 139.33 29.94 138.83 29.94C138.47 29.94 138.15 30.02 137.88 30.17C137.61 30.32 137.4 30.55 137.25 30.84C137.1 31.13 137.03 31.48 137.03 31.89V34.71H136.3V29.34H137V30.79L136.89 30.53C137.05 30.14 137.32 29.84 137.68 29.61C138.05 29.39 138.48 29.28 138.97 29.28C139.5 29.28 139.94 29.41 140.31 29.67C140.68 29.93 140.92 30.33 141.03 30.85L140.74 30.74C140.9 30.3 141.18 29.95 141.57 29.68C141.98 29.42 142.46 29.29 143.02 29.29Z" fill="#498A40"/>
<path d="M149.45 34.76C148.89 34.76 148.4 34.64 147.98 34.41C147.56 34.18 147.23 33.85 146.99 33.44C146.75 33.03 146.63 32.56 146.63 32.02C146.63 31.48 146.74 31.02 146.97 30.61C147.2 30.2 147.51 29.88 147.91 29.64C148.31 29.4 148.76 29.29 149.26 29.29C149.76 29.29 150.21 29.4 150.6 29.63C150.99 29.86 151.3 30.18 151.53 30.59C151.76 31 151.87 31.48 151.87 32.02C151.87 32.05 151.87 32.09 151.87 32.13C151.87 32.17 151.87 32.21 151.87 32.25H147.19V31.71H151.48L151.19 31.93C151.19 31.54 151.11 31.19 150.94 30.89C150.77 30.59 150.55 30.35 150.26 30.18C149.97 30.01 149.64 29.92 149.27 29.92C148.9 29.92 148.57 30 148.28 30.18C147.99 30.35 147.76 30.59 147.59 30.9C147.43 31.21 147.34 31.56 147.34 31.95V32.06C147.34 32.47 147.43 32.83 147.61 33.14C147.79 33.45 148.04 33.69 148.37 33.87C148.69 34.04 149.06 34.13 149.48 34.13C149.81 34.13 150.11 34.07 150.4 33.96C150.68 33.84 150.93 33.67 151.13 33.43L151.54 33.9C151.3 34.19 151 34.4 150.65 34.55C150.27 34.69 149.88 34.76 149.45 34.76Z" fill="#498A40"/>
<path d="M152.51 29.94V29.34H155.84V29.94H152.51ZM155.04 34.76C154.54 34.76 154.15 34.62 153.87 34.35C153.6 34.08 153.46 33.69 153.46 33.19V28.15H154.19V33.15C154.19 33.46 154.27 33.71 154.43 33.88C154.59 34.05 154.82 34.14 155.12 34.14C155.44 34.14 155.71 34.05 155.92 33.86L156.18 34.38C156.04 34.51 155.86 34.61 155.66 34.67C155.46 34.73 155.25 34.76 155.04 34.76Z" fill="#498A40"/>
<path d="M160.24 29.29C160.68 29.29 161.06 29.37 161.39 29.54C161.72 29.71 161.98 29.96 162.17 30.3C162.36 30.64 162.45 31.07 162.45 31.59V34.71H161.72V31.66C161.72 31.09 161.58 30.67 161.3 30.38C161.02 30.09 160.62 29.94 160.11 29.94C159.73 29.94 159.4 30.02 159.11 30.17C158.82 30.32 158.61 30.55 158.46 30.84C158.31 31.13 158.23 31.48 158.23 31.89V34.71H157.5V27.12H158.23V30.81L158.09 30.53C158.26 30.14 158.53 29.84 158.91 29.61C159.28 29.4 159.72 29.29 160.24 29.29Z" fill="#498A40"/>
<path d="M164.78 28.15C164.63 28.15 164.5 28.1 164.4 28C164.3 27.9 164.25 27.77 164.25 27.63C164.25 27.49 164.3 27.37 164.4 27.27C164.5 27.17 164.63 27.12 164.78 27.12C164.93 27.12 165.06 27.17 165.16 27.26C165.26 27.36 165.31 27.47 165.31 27.62C165.31 27.77 165.26 27.9 165.16 28C165.07 28.1 164.94 28.15 164.78 28.15ZM164.42 34.71V29.34H165.15V34.71H164.42Z" fill="#498A40"/>
<path d="M169.91 29.29C170.35 29.29 170.73 29.37 171.06 29.54C171.39 29.71 171.65 29.96 171.84 30.3C172.03 30.64 172.12 31.07 172.12 31.59V34.71H171.39V31.66C171.39 31.09 171.25 30.67 170.97 30.38C170.69 30.09 170.29 29.94 169.78 29.94C169.4 29.94 169.07 30.02 168.78 30.17C168.49 30.32 168.28 30.55 168.13 30.84C167.98 31.13 167.9 31.48 167.9 31.89V34.71H167.17V29.34H167.87V30.81L167.76 30.53C167.93 30.14 168.2 29.84 168.58 29.61C168.94 29.4 169.39 29.29 169.91 29.29Z" fill="#498A40"/>
<path d="M176.24 34.51C175.73 34.51 175.27 34.4 174.86 34.18C174.45 33.96 174.13 33.65 173.89 33.25C173.65 32.85 173.54 32.4 173.54 31.89C173.54 31.38 173.66 30.93 173.89 30.53C174.13 30.14 174.45 29.83 174.86 29.61C175.27 29.39 175.73 29.28 176.24 29.28C176.72 29.28 177.15 29.38 177.53 29.58C177.91 29.78 178.22 30.07 178.44 30.46C178.67 30.85 178.78 31.32 178.78 31.88C178.78 32.44 178.67 32.91 178.44 33.3C178.22 33.69 177.91 33.99 177.53 34.19C177.15 34.39 176.72 34.51 176.24 34.51ZM176.38 36.75C175.89 36.75 175.42 36.68 174.97 36.54C174.52 36.4 174.16 36.19 173.88 35.93L174.25 35.38C174.5 35.61 174.81 35.78 175.19 35.92C175.56 36.05 175.96 36.12 176.37 36.12C177.05 36.12 177.55 35.96 177.87 35.64C178.19 35.32 178.35 34.83 178.35 34.16V32.82L178.45 31.9L178.38 30.98V29.35H179.08V34.07C179.08 35 178.85 35.68 178.4 36.11C177.93 36.53 177.26 36.75 176.38 36.75ZM176.31 33.86C176.71 33.86 177.06 33.78 177.36 33.61C177.67 33.44 177.91 33.21 178.09 32.91C178.27 32.61 178.36 32.27 178.36 31.88C178.36 31.49 178.27 31.15 178.09 30.86C177.91 30.57 177.67 30.34 177.36 30.17C177.05 30 176.7 29.92 176.31 29.92C175.92 29.92 175.57 30 175.26 30.17C174.95 30.34 174.71 30.57 174.53 30.86C174.36 31.15 174.27 31.49 174.27 31.88C174.27 32.27 174.36 32.61 174.53 32.91C174.7 33.21 174.95 33.44 175.26 33.61C175.58 33.78 175.92 33.86 176.31 33.86Z" fill="#498A40"/>
<path d="M183.93 34.71V27.55H184.69V34.06H188.7V34.71H183.93Z" fill="#498A40"/>
<path d="M189.2 32.83V32.3L193 27.55H193.82L190.06 32.3L189.66 32.18H195.42V32.83H189.2ZM193.24 34.71V32.83L193.26 32.18V30.52H193.98V34.71H193.24Z" fill="#498A40"/>
<path d="M97.61 68.87L95.64 67.74C101.43 57.69 104.48 46.25 104.48 34.65C104.48 23.12 101.41 11.71 95.61 1.67001L95.53 1.53L97.49 0.369995L97.59 0.540009C103.58 10.92 106.75 22.72 106.75 34.65C106.75 46.64 103.59 58.47 97.61 68.87Z" fill="#498A40"/>
</svg>
