<svg width="188" height="95" viewBox="0 0 188 95" fill="none" xmlns="http://www.w3.org/2000/svg">
<path d="M90.96 93.87L89.53 92.59C100.16 80.65 105.47 65.83 104.88 49.72L106.8 49.65C107.4 66.27 101.93 81.56 90.96 93.87Z" fill="#F5A61D"/>
<path d="M104.82 48.11C104.16 30.01 95.36 14.06 79.39 2.01001L80.55 0.47998C97 12.9 106.05 29.34 106.74 48.05L104.82 48.11Z" fill="#498A40"/>
<path d="M105.72 48.42C107.062 48.42 108.15 47.332 108.15 45.99C108.15 44.6479 107.062 43.56 105.72 43.56C104.378 43.56 103.29 44.6479 103.29 45.99C103.29 47.332 104.378 48.42 105.72 48.42Z" fill="#498A40"/>
<path d="M91.34 94.06C92.682 94.06 93.77 92.9721 93.77 91.63C93.77 90.288 92.682 89.2 91.34 89.2C89.9979 89.2 88.91 90.288 88.91 91.63C88.91 92.9721 89.9979 94.06 91.34 94.06Z" fill="#F5A61D"/>
<path d="M3.95 56.32C3.28 56.32 2.64001 56.22 2.04001 56.01C1.44001 55.8 0.950006 55.54 0.600006 55.22L1.06001 54.24C1.39001 54.53 1.82 54.77 2.34 54.96C2.86 55.15 3.39 55.25 3.95 55.25C4.46 55.25 4.87001 55.19 5.19001 55.08C5.51001 54.96 5.74001 54.8 5.89001 54.6C6.04001 54.4 6.12001 54.16 6.12001 53.91C6.12001 53.61 6.02001 53.37 5.83001 53.18C5.63001 53 5.38001 52.85 5.07001 52.74C4.76001 52.63 4.41001 52.53 4.04001 52.45C3.66001 52.37 3.29001 52.27 2.91001 52.16C2.53001 52.05 2.18001 51.9 1.87001 51.73C1.56001 51.56 1.31001 51.32 1.11001 51.02C0.910008 50.72 0.820007 50.34 0.820007 49.88C0.820007 49.43 0.940008 49.01 1.18001 48.64C1.42001 48.26 1.78001 47.96 2.28001 47.73C2.78001 47.5 3.41001 47.39 4.17001 47.39C4.68001 47.39 5.18001 47.46 5.68001 47.59C6.18001 47.72 6.61001 47.92 6.98001 48.17L6.57001 49.17C6.19001 48.92 5.8 48.74 5.38 48.63C4.96 48.52 4.56001 48.46 4.17001 48.46C3.68001 48.46 3.27001 48.52 2.96001 48.65C2.65001 48.78 2.41 48.94 2.27 49.15C2.12 49.36 2.05001 49.59 2.05001 49.85C2.05001 50.16 2.15 50.4 2.34 50.59C2.54 50.77 2.79001 50.92 3.10001 51.03C3.41001 51.14 3.76 51.24 4.13 51.32C4.51 51.41 4.88001 51.51 5.26001 51.61C5.64001 51.71 5.99001 51.86 6.30001 52.04C6.61001 52.21 6.86001 52.45 7.06001 52.74C7.26 53.03 7.35001 53.41 7.35001 53.86C7.35001 54.3 7.23001 54.71 6.99001 55.09C6.75001 55.47 6.38001 55.77 5.87001 56C5.35001 56.21 4.71 56.32 3.95 56.32Z" fill="#201032"/>
<path d="M11.83 56.3C11.17 56.3 10.58 56.15 10.06 55.86C9.54001 55.57 9.13001 55.17 8.83001 54.65C8.53001 54.14 8.38 53.56 8.38 52.91C8.38 52.25 8.53001 51.67 8.83001 51.16C9.13001 50.66 9.54001 50.26 10.06 49.97C10.58 49.68 11.17 49.53 11.84 49.53C12.5 49.53 13.09 49.67 13.61 49.96C14.13 50.25 14.54 50.65 14.84 51.15C15.14 51.65 15.28 52.24 15.28 52.9C15.28 53.56 15.13 54.14 14.84 54.65C14.54 55.16 14.14 55.56 13.61 55.85C13.08 56.14 12.48 56.3 11.83 56.3ZM11.83 55.25C12.26 55.25 12.64 55.15 12.97 54.96C13.31 54.77 13.57 54.5 13.76 54.14C13.95 53.79 14.05 53.38 14.05 52.91C14.05 52.43 13.95 52.02 13.76 51.68C13.57 51.33 13.3 51.07 12.97 50.87C12.63 50.68 12.25 50.58 11.83 50.58C11.41 50.58 11.03 50.68 10.69 50.87C10.36 51.06 10.09 51.33 9.89001 51.68C9.69001 52.03 9.59 52.44 9.59 52.91C9.59 53.38 9.69001 53.79 9.89001 54.14C10.09 54.49 10.36 54.77 10.69 54.96C11.02 55.15 11.4 55.25 11.83 55.25Z" fill="#201032"/>
<path d="M25.22 49.53C25.75 49.53 26.22 49.63 26.63 49.84C27.04 50.05 27.36 50.37 27.59 50.79C27.82 51.22 27.93 51.75 27.93 52.4V56.21H26.73V52.53C26.73 51.89 26.58 51.41 26.28 51.08C25.98 50.75 25.56 50.59 25.02 50.59C24.62 50.59 24.27 50.67 23.97 50.84C23.67 51.01 23.44 51.25 23.28 51.58C23.12 51.91 23.04 52.31 23.04 52.79V56.2H21.84V52.52C21.84 51.88 21.69 51.4 21.4 51.07C21.11 50.74 20.68 50.58 20.13 50.58C19.74 50.58 19.39 50.66 19.09 50.83C18.79 51 18.56 51.24 18.39 51.57C18.22 51.9 18.14 52.3 18.14 52.78V56.19H16.94V49.56H18.09V51.32L17.9 50.87C18.11 50.44 18.43 50.1 18.86 49.86C19.29 49.62 19.8 49.5 20.37 49.5C21 49.5 21.55 49.66 22.01 49.97C22.47 50.28 22.77 50.76 22.91 51.39L22.42 51.19C22.62 50.68 22.97 50.27 23.47 49.96C23.97 49.69 24.55 49.53 25.22 49.53Z" fill="#201032"/>
<path d="M33.1 56.3C32.39 56.3 31.77 56.15 31.23 55.86C30.69 55.57 30.28 55.17 29.98 54.66C29.68 54.15 29.54 53.57 29.54 52.91C29.54 52.25 29.68 51.67 29.97 51.16C30.26 50.65 30.65 50.25 31.16 49.97C31.66 49.68 32.23 49.54 32.87 49.54C33.51 49.54 34.08 49.68 34.57 49.97C35.06 50.25 35.45 50.65 35.73 51.16C36.01 51.67 36.15 52.27 36.15 52.95C36.15 53 36.15 53.06 36.14 53.12C36.14 53.19 36.13 53.25 36.12 53.31H30.48V52.45H35.49L35 52.75C35.01 52.33 34.92 51.95 34.74 51.61C34.56 51.28 34.3 51.02 33.98 50.83C33.66 50.64 33.29 50.55 32.86 50.55C32.44 50.55 32.07 50.64 31.75 50.83C31.42 51.02 31.17 51.28 30.99 51.62C30.81 51.96 30.72 52.34 30.72 52.78V52.98C30.72 53.42 30.82 53.82 31.03 54.16C31.23 54.51 31.52 54.77 31.89 54.97C32.26 55.16 32.68 55.26 33.15 55.26C33.54 55.26 33.9 55.19 34.22 55.06C34.54 54.93 34.82 54.73 35.06 54.46L35.72 55.24C35.42 55.59 35.05 55.86 34.6 56.04C34.15 56.22 33.65 56.3 33.1 56.3Z" fill="#201032"/>
<path d="M36.85 50.58V49.59H41.08V50.58H36.85ZM40.08 56.3C39.41 56.3 38.9 56.12 38.53 55.76C38.16 55.4 37.98 54.89 37.98 54.22V48.14H39.18V54.17C39.18 54.53 39.27 54.8 39.45 55C39.63 55.19 39.89 55.29 40.22 55.29C40.6 55.29 40.91 55.19 41.16 54.98L41.54 55.84C41.36 56 41.14 56.12 40.88 56.19C40.61 56.26 40.35 56.3 40.08 56.3Z" fill="#201032"/>
<path d="M46.51 49.53C47.05 49.53 47.53 49.63 47.94 49.84C48.35 50.05 48.68 50.37 48.91 50.79C49.14 51.22 49.26 51.75 49.26 52.4V56.21H48.06V52.53C48.06 51.89 47.9 51.41 47.59 51.08C47.28 50.75 46.84 50.59 46.27 50.59C45.84 50.59 45.47 50.67 45.16 50.84C44.84 51.01 44.6 51.25 44.43 51.58C44.26 51.91 44.17 52.31 44.17 52.79V56.2H42.97V46.92H44.17V51.36L43.93 50.89C44.15 50.46 44.48 50.12 44.93 49.88C45.39 49.65 45.91 49.53 46.51 49.53Z" fill="#201032"/>
<path d="M52.09 48.32C51.86 48.32 51.66 48.24 51.51 48.1C51.36 47.95 51.28 47.77 51.28 47.55C51.28 47.33 51.36 47.14 51.51 46.99C51.66 46.84 51.86 46.76 52.09 46.76C52.32 46.76 52.52 46.83 52.67 46.98C52.82 47.13 52.9 47.31 52.9 47.52C52.9 47.74 52.82 47.93 52.67 48.09C52.53 48.24 52.33 48.32 52.09 48.32ZM51.49 56.22V49.59H52.69V56.22H51.49Z" fill="#201032"/>
<path d="M58.52 49.53C59.06 49.53 59.54 49.63 59.95 49.84C60.36 50.05 60.69 50.37 60.92 50.79C61.15 51.22 61.27 51.75 61.27 52.4V56.21H60.07V52.53C60.07 51.89 59.91 51.41 59.6 51.08C59.29 50.75 58.85 50.59 58.28 50.59C57.85 50.59 57.48 50.67 57.17 50.84C56.85 51.01 56.61 51.25 56.44 51.58C56.27 51.91 56.18 52.31 56.18 52.79V56.2H54.98V49.57H56.13V51.36L55.94 50.89C56.16 50.46 56.49 50.12 56.94 49.88C57.39 49.65 57.92 49.53 58.52 49.53Z" fill="#201032"/>
<path d="M66.25 55.95C65.61 55.95 65.03 55.82 64.53 55.54C64.03 55.27 63.63 54.89 63.33 54.41C63.03 53.93 62.89 53.37 62.89 52.73C62.89 52.09 63.04 51.53 63.33 51.05C63.62 50.57 64.03 50.2 64.53 49.93C65.03 49.66 65.61 49.53 66.25 49.53C66.82 49.53 67.33 49.65 67.8 49.87C68.27 50.1 68.64 50.45 68.92 50.93C69.2 51.41 69.34 52.01 69.34 52.73C69.34 53.45 69.2 54.04 68.92 54.52C68.64 55 68.27 55.35 67.8 55.59C67.33 55.83 66.81 55.95 66.25 55.95ZM66.4 58.72C65.79 58.72 65.2 58.63 64.63 58.46C64.06 58.29 63.59 58.04 63.24 57.73L63.82 56.81C64.13 57.08 64.51 57.29 64.96 57.44C65.41 57.59 65.88 57.67 66.37 57.67C67.15 57.67 67.73 57.49 68.1 57.12C68.47 56.75 68.65 56.19 68.65 55.44V54.04L68.77 52.73L68.71 51.4V49.59H69.85V55.32C69.85 56.49 69.56 57.35 68.97 57.9C68.38 58.45 67.52 58.72 66.4 58.72ZM66.39 54.9C66.83 54.9 67.22 54.81 67.57 54.62C67.92 54.43 68.18 54.18 68.38 53.86C68.58 53.54 68.67 53.16 68.67 52.73C68.67 52.31 68.57 51.93 68.38 51.61C68.19 51.29 67.92 51.03 67.57 50.85C67.23 50.67 66.84 50.58 66.39 50.58C65.95 50.58 65.55 50.67 65.21 50.85C64.86 51.03 64.59 51.28 64.4 51.61C64.2 51.94 64.11 52.31 64.11 52.73C64.11 53.16 64.21 53.53 64.4 53.86C64.6 54.19 64.87 54.44 65.21 54.62C65.55 54.8 65.94 54.9 66.39 54.9Z" fill="#201032"/>
<path d="M26.69 77.97C26.21 77.21 25.85 76.33 25.59 75.34C25.33 74.35 25.2 73.27 25.2 72.12C25.2 70.97 25.33 69.89 25.59 68.89C25.85 67.89 26.21 67.01 26.69 66.27H27.83C27.33 67.15 26.96 68.08 26.73 69.04C26.5 70 26.38 71.03 26.38 72.12C26.38 73.21 26.5 74.24 26.73 75.2C26.96 76.16 27.33 77.09 27.83 77.97H26.69Z" fill="#201032"/>
<path d="M29.54 75.55V66.8H30.79V74.47H35.53V75.56H29.54V75.55Z" fill="#201032"/>
<path d="M36.12 75.55V74.7L39.68 71.26C40 70.96 40.23 70.7 40.39 70.47C40.54 70.24 40.65 70.03 40.7 69.83C40.75 69.63 40.78 69.44 40.78 69.26C40.78 68.81 40.62 68.46 40.3 68.2C39.98 67.94 39.52 67.81 38.91 67.81C38.44 67.81 38.02 67.89 37.65 68.04C37.27 68.19 36.95 68.43 36.67 68.76L35.82 68.02C36.15 67.6 36.6 67.27 37.16 67.04C37.72 66.81 38.34 66.7 39.02 66.7C39.63 66.7 40.16 66.8 40.61 66.99C41.06 67.19 41.41 67.47 41.65 67.83C41.9 68.2 42.02 68.63 42.02 69.13C42.02 69.41 41.98 69.69 41.91 69.97C41.84 70.25 41.69 70.54 41.48 70.85C41.27 71.16 40.97 71.5 40.58 71.89L37.4 74.95L37.1 74.46H42.39V75.55H36.12Z" fill="#201032"/>
<path d="M44.37 77.97H43.23C43.74 77.09 44.11 76.16 44.34 75.2C44.57 74.24 44.69 73.21 44.69 72.12C44.69 71.03 44.57 70 44.34 69.04C44.11 68.08 43.74 67.15 43.23 66.27H44.37C44.86 67.01 45.23 67.89 45.49 68.89C45.74 69.89 45.87 70.97 45.87 72.12C45.87 73.27 45.74 74.34 45.49 75.34C45.24 76.34 44.86 77.21 44.37 77.97Z" fill="#201032"/>
<path d="M117.64 29.27C117.11 29.27 116.6 29.18 116.11 29.01C115.62 28.84 115.25 28.61 114.98 28.34L115.28 27.76C115.53 28.01 115.87 28.21 116.3 28.38C116.73 28.55 117.18 28.63 117.65 28.63C118.1 28.63 118.47 28.57 118.75 28.46C119.03 28.35 119.24 28.2 119.37 28C119.5 27.81 119.57 27.6 119.57 27.37C119.57 27.09 119.49 26.87 119.33 26.7C119.17 26.53 118.96 26.39 118.7 26.3C118.44 26.21 118.15 26.11 117.84 26.04C117.53 25.96 117.21 25.88 116.9 25.8C116.59 25.72 116.3 25.6 116.04 25.46C115.78 25.32 115.57 25.13 115.41 24.89C115.25 24.65 115.17 24.35 115.17 23.96C115.17 23.61 115.26 23.28 115.45 22.98C115.64 22.68 115.93 22.44 116.31 22.26C116.69 22.08 117.2 21.99 117.8 21.99C118.2 21.99 118.6 22.05 119 22.16C119.4 22.27 119.74 22.43 120.02 22.63L119.76 23.23C119.45 23.02 119.13 22.88 118.78 22.78C118.44 22.68 118.1 22.64 117.78 22.64C117.35 22.64 117 22.7 116.72 22.81C116.44 22.93 116.23 23.08 116.1 23.28C115.97 23.47 115.9 23.69 115.9 23.94C115.9 24.22 115.98 24.44 116.14 24.61C116.3 24.78 116.51 24.91 116.77 25.01C117.03 25.11 117.32 25.19 117.63 25.27C117.94 25.35 118.26 25.43 118.57 25.52C118.88 25.61 119.17 25.72 119.43 25.86C119.69 26 119.9 26.19 120.06 26.42C120.22 26.65 120.3 26.96 120.3 27.33C120.3 27.68 120.2 28 120.01 28.3C119.82 28.6 119.53 28.84 119.14 29.02C118.75 29.18 118.25 29.27 117.64 29.27Z" fill="#498A40"/>
<path d="M123.99 29.26C123.46 29.26 123 29.14 122.59 28.91C122.18 28.68 121.86 28.35 121.62 27.93C121.38 27.51 121.26 27.04 121.26 26.52C121.26 25.98 121.38 25.51 121.62 25.1C121.86 24.69 122.18 24.37 122.59 24.14C123 23.91 123.47 23.79 123.99 23.79C124.52 23.79 124.99 23.91 125.41 24.14C125.82 24.38 126.15 24.7 126.38 25.1C126.62 25.51 126.73 25.98 126.73 26.52C126.73 27.05 126.61 27.52 126.38 27.94C126.14 28.35 125.82 28.68 125.4 28.91C124.98 29.14 124.52 29.26 123.99 29.26ZM123.99 28.62C124.38 28.62 124.72 28.53 125.02 28.36C125.32 28.19 125.56 27.94 125.73 27.62C125.9 27.3 125.99 26.94 125.99 26.52C125.99 26.1 125.9 25.73 125.73 25.41C125.56 25.1 125.32 24.85 125.02 24.68C124.72 24.51 124.38 24.42 124 24.42C123.62 24.42 123.28 24.51 122.98 24.68C122.68 24.85 122.44 25.1 122.26 25.41C122.08 25.72 121.99 26.09 121.99 26.52C121.99 26.94 122.08 27.3 122.26 27.62C122.44 27.94 122.67 28.18 122.97 28.36C123.27 28.53 123.61 28.62 123.99 28.62Z" fill="#498A40"/>
<path d="M134.93 23.79C135.37 23.79 135.75 23.87 136.07 24.04C136.39 24.21 136.65 24.46 136.83 24.8C137.01 25.14 137.1 25.57 137.1 26.09V29.21H136.37V26.16C136.37 25.59 136.24 25.17 135.97 24.88C135.7 24.59 135.32 24.45 134.83 24.45C134.46 24.45 134.14 24.53 133.87 24.68C133.6 24.83 133.39 25.06 133.25 25.35C133.1 25.64 133.03 25.99 133.03 26.4V29.22H132.3V26.17C132.3 25.6 132.16 25.18 131.89 24.89C131.62 24.6 131.24 24.46 130.74 24.46C130.38 24.46 130.06 24.54 129.79 24.69C129.52 24.84 129.31 25.07 129.16 25.36C129.01 25.65 128.94 26 128.94 26.41V29.23H128.21V23.86H128.91V25.31L128.8 25.05C128.96 24.66 129.23 24.36 129.59 24.13C129.95 23.91 130.39 23.8 130.88 23.8C131.41 23.8 131.85 23.93 132.22 24.19C132.59 24.45 132.83 24.85 132.94 25.37L132.65 25.26C132.81 24.82 133.08 24.47 133.48 24.2C133.89 23.92 134.37 23.79 134.93 23.79Z" fill="#498A40"/>
<path d="M141.35 29.26C140.79 29.26 140.3 29.14 139.88 28.91C139.46 28.68 139.13 28.35 138.89 27.94C138.65 27.53 138.53 27.05 138.53 26.52C138.53 25.99 138.64 25.52 138.87 25.11C139.1 24.7 139.41 24.38 139.81 24.14C140.21 23.9 140.66 23.79 141.16 23.79C141.66 23.79 142.11 23.9 142.51 24.13C142.9 24.36 143.21 24.68 143.44 25.09C143.67 25.5 143.78 25.98 143.78 26.52C143.78 26.55 143.78 26.59 143.78 26.63C143.78 26.67 143.77 26.71 143.77 26.75H139.09V26.21H143.38L143.09 26.42C143.09 26.03 143.01 25.68 142.84 25.38C142.67 25.08 142.45 24.84 142.16 24.67C141.87 24.5 141.54 24.41 141.17 24.41C140.8 24.41 140.47 24.5 140.18 24.67C139.89 24.84 139.66 25.08 139.49 25.39C139.33 25.7 139.24 26.05 139.24 26.44V26.55C139.24 26.96 139.33 27.32 139.51 27.63C139.69 27.94 139.94 28.18 140.27 28.36C140.59 28.53 140.96 28.62 141.38 28.62C141.71 28.62 142.01 28.56 142.3 28.45C142.58 28.33 142.83 28.16 143.03 27.92L143.44 28.39C143.2 28.68 142.9 28.89 142.54 29.05C142.18 29.19 141.78 29.26 141.35 29.26Z" fill="#498A40"/>
<path d="M144.41 24.44V23.84H147.74V24.44H144.41ZM146.95 29.26C146.45 29.26 146.06 29.12 145.78 28.85C145.51 28.58 145.37 28.19 145.37 27.69V22.65H146.1V27.65C146.1 27.96 146.18 28.21 146.34 28.38C146.5 28.55 146.73 28.64 147.03 28.64C147.35 28.64 147.62 28.55 147.83 28.36L148.09 28.88C147.95 29.01 147.77 29.1 147.57 29.17C147.37 29.23 147.16 29.26 146.95 29.26Z" fill="#498A40"/>
<path d="M152.15 23.79C152.59 23.79 152.97 23.87 153.3 24.04C153.63 24.21 153.89 24.46 154.08 24.8C154.27 25.14 154.36 25.57 154.36 26.09V29.21H153.63V26.16C153.63 25.59 153.49 25.17 153.21 24.88C152.93 24.59 152.53 24.45 152.02 24.45C151.64 24.45 151.31 24.53 151.02 24.68C150.74 24.83 150.52 25.06 150.37 25.35C150.22 25.64 150.14 25.99 150.14 26.4V29.22H149.41V21.63H150.14V25.32L150 25.04C150.17 24.65 150.44 24.35 150.82 24.12C151.2 23.89 151.63 23.79 152.15 23.79Z" fill="#498A40"/>
<path d="M156.69 22.65C156.54 22.65 156.41 22.6 156.31 22.5C156.21 22.4 156.16 22.28 156.16 22.13C156.16 21.98 156.21 21.87 156.31 21.77C156.41 21.67 156.54 21.62 156.69 21.62C156.84 21.62 156.97 21.67 157.07 21.76C157.17 21.86 157.22 21.97 157.22 22.12C157.22 22.27 157.17 22.4 157.07 22.5C156.98 22.6 156.85 22.65 156.69 22.65ZM156.32 29.21V23.84H157.05V29.21H156.32Z" fill="#498A40"/>
<path d="M161.82 23.79C162.26 23.79 162.64 23.87 162.97 24.04C163.3 24.21 163.56 24.46 163.75 24.8C163.94 25.14 164.03 25.57 164.03 26.09V29.21H163.3V26.16C163.3 25.59 163.16 25.17 162.88 24.88C162.6 24.59 162.2 24.45 161.69 24.45C161.31 24.45 160.98 24.53 160.69 24.68C160.41 24.83 160.19 25.06 160.04 25.35C159.89 25.64 159.81 25.99 159.81 26.4V29.22H159.08V23.85H159.78V25.32L159.67 25.04C159.84 24.65 160.11 24.35 160.49 24.12C160.87 23.89 161.3 23.79 161.82 23.79Z" fill="#498A40"/>
<path d="M168.15 29.01C167.64 29.01 167.18 28.9 166.77 28.68C166.36 28.46 166.04 28.15 165.8 27.75C165.56 27.35 165.45 26.9 165.45 26.39C165.45 25.88 165.57 25.43 165.8 25.03C166.04 24.64 166.36 24.33 166.77 24.11C167.18 23.89 167.64 23.78 168.15 23.78C168.63 23.78 169.06 23.88 169.44 24.08C169.82 24.28 170.13 24.57 170.35 24.96C170.57 25.35 170.69 25.82 170.69 26.38C170.69 26.94 170.58 27.41 170.35 27.8C170.12 28.19 169.82 28.49 169.44 28.69C169.06 28.9 168.63 29.01 168.15 29.01ZM168.28 31.25C167.79 31.25 167.32 31.18 166.87 31.04C166.42 30.9 166.05 30.69 165.77 30.43L166.14 29.88C166.39 30.1 166.7 30.28 167.08 30.42C167.45 30.55 167.85 30.62 168.26 30.62C168.94 30.62 169.44 30.46 169.76 30.14C170.08 29.82 170.24 29.33 170.24 28.66V27.32L170.34 26.4L170.27 25.48V23.85H170.97V28.57C170.97 29.5 170.74 30.18 170.29 30.61C169.84 31.03 169.17 31.25 168.28 31.25ZM168.22 28.36C168.62 28.36 168.97 28.28 169.27 28.11C169.58 27.94 169.82 27.71 170 27.41C170.18 27.11 170.27 26.77 170.27 26.38C170.27 25.99 170.18 25.65 170 25.36C169.82 25.07 169.58 24.84 169.27 24.67C168.96 24.5 168.61 24.42 168.22 24.42C167.83 24.42 167.48 24.5 167.17 24.67C166.86 24.84 166.62 25.07 166.44 25.36C166.27 25.65 166.18 25.99 166.18 26.38C166.18 26.77 166.27 27.11 166.44 27.41C166.61 27.71 166.86 27.94 167.17 28.11C167.48 28.28 167.83 28.36 168.22 28.36Z" fill="#498A40"/>
<path d="M175.83 29.21V22.05H176.59V28.56H180.6V29.22H175.83V29.21Z" fill="#498A40"/>
<path d="M181.1 27.33V26.8L184.9 22.05H185.72L181.95 26.8L181.55 26.68H187.31V27.33H181.1ZM185.15 29.21V27.33L185.17 26.68V25.02H185.89V29.22H185.15V29.21Z" fill="#498A40"/>
<path d="M114.46 81.05C113.93 81.05 113.42 80.96 112.93 80.79C112.44 80.62 112.07 80.39 111.8 80.12L112.1 79.54C112.35 79.79 112.69 79.99 113.12 80.16C113.55 80.33 114 80.41 114.47 80.41C114.92 80.41 115.29 80.35 115.57 80.24C115.85 80.13 116.06 79.98 116.19 79.78C116.32 79.59 116.39 79.38 116.39 79.15C116.39 78.87 116.31 78.65 116.15 78.48C115.99 78.31 115.78 78.17 115.52 78.08C115.26 77.99 114.97 77.89 114.66 77.82C114.35 77.74 114.03 77.66 113.72 77.58C113.41 77.5 113.12 77.38 112.86 77.24C112.6 77.1 112.39 76.91 112.23 76.67C112.07 76.43 111.99 76.13 111.99 75.74C111.99 75.39 112.08 75.06 112.27 74.76C112.46 74.46 112.75 74.22 113.13 74.04C113.51 73.86 114.02 73.77 114.62 73.77C115.02 73.77 115.42 73.83 115.82 73.94C116.22 74.05 116.56 74.21 116.84 74.41L116.58 75.01C116.27 74.8 115.95 74.66 115.6 74.56C115.26 74.46 114.92 74.42 114.6 74.42C114.17 74.42 113.82 74.48 113.54 74.59C113.26 74.71 113.05 74.86 112.92 75.06C112.79 75.25 112.72 75.47 112.72 75.72C112.72 76 112.8 76.22 112.96 76.39C113.12 76.56 113.33 76.69 113.59 76.79C113.85 76.89 114.14 76.97 114.45 77.05C114.76 77.13 115.08 77.21 115.39 77.3C115.7 77.39 115.99 77.5 116.25 77.64C116.51 77.78 116.72 77.97 116.88 78.2C117.04 78.43 117.12 78.74 117.12 79.11C117.12 79.46 117.02 79.78 116.83 80.08C116.64 80.38 116.35 80.62 115.96 80.8C115.58 80.96 115.07 81.05 114.46 81.05Z" fill="#F5A61D"/>
<path d="M120.81 81.04C120.28 81.04 119.82 80.92 119.41 80.69C119 80.46 118.68 80.13 118.44 79.71C118.2 79.29 118.08 78.82 118.08 78.3C118.08 77.76 118.2 77.29 118.44 76.88C118.68 76.47 119 76.15 119.41 75.92C119.82 75.69 120.29 75.57 120.81 75.57C121.34 75.57 121.81 75.69 122.23 75.92C122.64 76.16 122.97 76.48 123.2 76.88C123.44 77.29 123.55 77.76 123.55 78.3C123.55 78.83 123.43 79.3 123.2 79.72C122.96 80.13 122.64 80.46 122.22 80.69C121.8 80.92 121.34 81.04 120.81 81.04ZM120.81 80.4C121.2 80.4 121.54 80.31 121.84 80.14C122.14 79.97 122.38 79.72 122.55 79.4C122.72 79.08 122.81 78.72 122.81 78.3C122.81 77.88 122.72 77.51 122.55 77.19C122.38 76.88 122.14 76.63 121.84 76.46C121.54 76.29 121.2 76.2 120.82 76.2C120.44 76.2 120.1 76.29 119.8 76.46C119.5 76.63 119.26 76.88 119.08 77.19C118.9 77.5 118.81 77.87 118.81 78.3C118.81 78.72 118.9 79.08 119.08 79.4C119.26 79.72 119.49 79.96 119.79 80.14C120.09 80.31 120.43 80.4 120.81 80.4Z" fill="#F5A61D"/>
<path d="M131.75 75.57C132.19 75.57 132.57 75.65 132.89 75.82C133.21 75.99 133.47 76.24 133.65 76.58C133.83 76.92 133.92 77.35 133.92 77.87V80.99H133.19V77.94C133.19 77.37 133.06 76.95 132.79 76.66C132.52 76.37 132.14 76.23 131.65 76.23C131.28 76.23 130.96 76.31 130.69 76.46C130.42 76.61 130.21 76.84 130.07 77.13C129.92 77.42 129.85 77.77 129.85 78.18V81H129.12V77.95C129.12 77.38 128.98 76.96 128.71 76.67C128.44 76.38 128.06 76.24 127.56 76.24C127.2 76.24 126.88 76.32 126.61 76.47C126.34 76.62 126.13 76.85 125.98 77.14C125.83 77.43 125.76 77.78 125.76 78.19V81.01H125.03V75.64H125.73V77.09L125.62 76.83C125.78 76.44 126.05 76.14 126.41 75.91C126.77 75.69 127.21 75.58 127.7 75.58C128.23 75.58 128.67 75.71 129.04 75.97C129.41 76.23 129.65 76.63 129.76 77.15L129.47 77.04C129.63 76.6 129.9 76.25 130.3 75.98C130.71 75.7 131.19 75.57 131.75 75.57Z" fill="#F5A61D"/>
<path d="M138.18 81.04C137.62 81.04 137.13 80.92 136.71 80.69C136.29 80.46 135.96 80.13 135.72 79.72C135.48 79.31 135.36 78.83 135.36 78.3C135.36 77.77 135.47 77.3 135.7 76.89C135.93 76.48 136.24 76.16 136.64 75.92C137.04 75.68 137.49 75.57 137.99 75.57C138.49 75.57 138.94 75.68 139.34 75.91C139.73 76.14 140.04 76.46 140.27 76.87C140.5 77.28 140.61 77.76 140.61 78.3C140.61 78.33 140.61 78.37 140.61 78.41C140.61 78.45 140.6 78.49 140.6 78.53H135.92V77.99H140.21L139.92 78.2C139.92 77.81 139.84 77.46 139.67 77.16C139.5 76.86 139.28 76.62 138.99 76.45C138.7 76.28 138.37 76.19 138 76.19C137.63 76.19 137.3 76.28 137.01 76.45C136.72 76.62 136.49 76.86 136.32 77.17C136.16 77.48 136.07 77.83 136.07 78.22V78.33C136.07 78.74 136.16 79.1 136.34 79.41C136.52 79.72 136.77 79.96 137.1 80.14C137.42 80.31 137.79 80.4 138.21 80.4C138.54 80.4 138.84 80.34 139.13 80.23C139.41 80.11 139.66 79.94 139.86 79.7L140.27 80.17C140.03 80.46 139.73 80.67 139.37 80.83C139 80.97 138.61 81.04 138.18 81.04Z" fill="#F5A61D"/>
<path d="M141.24 76.22V75.62H144.57V76.22H141.24ZM143.77 81.04C143.27 81.04 142.88 80.9 142.6 80.63C142.33 80.36 142.19 79.97 142.19 79.47V74.43H142.92V79.43C142.92 79.74 143 79.99 143.16 80.16C143.32 80.33 143.55 80.42 143.85 80.42C144.17 80.42 144.44 80.33 144.65 80.14L144.91 80.66C144.77 80.79 144.59 80.88 144.39 80.95C144.19 81.01 143.98 81.04 143.77 81.04Z" fill="#F5A61D"/>
<path d="M148.97 75.57C149.41 75.57 149.79 75.65 150.12 75.82C150.45 75.99 150.71 76.24 150.9 76.58C151.09 76.92 151.18 77.35 151.18 77.87V80.99H150.45V77.94C150.45 77.37 150.31 76.95 150.03 76.66C149.75 76.37 149.35 76.23 148.84 76.23C148.46 76.23 148.13 76.31 147.84 76.46C147.56 76.61 147.34 76.84 147.19 77.13C147.04 77.42 146.96 77.77 146.96 78.18V81H146.23V73.41H146.96V77.1L146.82 76.82C146.99 76.43 147.26 76.13 147.64 75.9C148.02 75.67 148.45 75.57 148.97 75.57Z" fill="#F5A61D"/>
<path d="M153.51 74.43C153.36 74.43 153.23 74.38 153.13 74.28C153.03 74.18 152.98 74.06 152.98 73.91C152.98 73.76 153.03 73.65 153.13 73.55C153.23 73.45 153.36 73.4 153.51 73.4C153.66 73.4 153.79 73.45 153.89 73.54C153.99 73.64 154.04 73.75 154.04 73.9C154.04 74.05 153.99 74.18 153.89 74.28C153.8 74.38 153.67 74.43 153.51 74.43ZM153.15 80.99V75.62H153.88V80.99H153.15Z" fill="#F5A61D"/>
<path d="M158.64 75.57C159.08 75.57 159.46 75.65 159.79 75.82C160.12 75.99 160.38 76.24 160.57 76.58C160.76 76.92 160.85 77.35 160.85 77.87V80.99H160.12V77.94C160.12 77.37 159.98 76.95 159.7 76.66C159.42 76.37 159.02 76.23 158.51 76.23C158.13 76.23 157.8 76.31 157.51 76.46C157.23 76.61 157.01 76.84 156.86 77.13C156.71 77.42 156.63 77.77 156.63 78.18V81H155.9V75.63H156.6V77.1L156.49 76.82C156.66 76.43 156.93 76.13 157.31 75.9C157.69 75.67 158.12 75.57 158.64 75.57Z" fill="#F5A61D"/>
<path d="M164.97 80.79C164.46 80.79 164 80.68 163.59 80.46C163.18 80.24 162.86 79.93 162.62 79.53C162.38 79.13 162.27 78.68 162.27 78.17C162.27 77.66 162.39 77.21 162.62 76.81C162.86 76.42 163.18 76.11 163.59 75.89C164 75.67 164.46 75.56 164.97 75.56C165.45 75.56 165.88 75.66 166.26 75.86C166.64 76.06 166.95 76.35 167.17 76.74C167.39 77.13 167.51 77.6 167.51 78.16C167.51 78.72 167.4 79.19 167.17 79.58C166.94 79.97 166.64 80.27 166.26 80.47C165.88 80.68 165.45 80.79 164.97 80.79ZM165.11 83.03C164.62 83.03 164.15 82.96 163.7 82.82C163.25 82.68 162.88 82.47 162.6 82.21L162.97 81.66C163.22 81.88 163.53 82.06 163.91 82.2C164.28 82.33 164.68 82.4 165.09 82.4C165.77 82.4 166.27 82.24 166.59 81.92C166.91 81.6 167.07 81.11 167.07 80.44V79.1L167.17 78.18L167.1 77.26V75.63H167.8V80.35C167.8 81.28 167.57 81.96 167.12 82.39C166.66 82.81 165.99 83.03 165.11 83.03ZM165.04 80.14C165.44 80.14 165.79 80.06 166.09 79.89C166.4 79.72 166.64 79.49 166.82 79.19C167 78.89 167.09 78.55 167.09 78.16C167.09 77.77 167 77.43 166.82 77.14C166.64 76.85 166.4 76.62 166.09 76.45C165.78 76.28 165.43 76.2 165.04 76.2C164.65 76.2 164.3 76.28 163.99 76.45C163.68 76.62 163.44 76.85 163.26 77.14C163.09 77.43 163 77.77 163 78.16C163 78.55 163.09 78.89 163.26 79.19C163.43 79.49 163.68 79.72 163.99 79.89C164.31 80.06 164.66 80.14 165.04 80.14Z" fill="#F5A61D"/>
<path d="M172.66 80.99V73.83H173.42V80.34H177.43V81H172.66V80.99Z" fill="#F5A61D"/>
<path d="M177.93 79.11V78.58L181.73 73.83H182.55L178.78 78.58L178.38 78.46H184.14V79.11H177.93ZM181.97 80.99V79.11L181.99 78.46V76.8H182.71V81H181.97V80.99Z" fill="#F5A61D"/>
</svg>
