<svg width="187" height="125" viewBox="0 0 187 125" fill="none" xmlns="http://www.w3.org/2000/svg">
<path d="M65.36 123.17L64.63 121.39C79.41 115.3 90.66 104.29 97.18 89.54L98.94 90.32C92.21 105.53 80.6 116.89 65.36 123.17Z" fill="#F5A61D"/>
<path d="M97.83 88.07C105.15 71.5 104.21 53.32 95.12 35.49L96.83 34.62C106.19 52.98 107.15 71.73 99.59 88.85L97.83 88.07Z" fill="#498A40"/>
<path d="M94.56 34.28C86.77 19.02 73.62 7.57 57.53 2.06L58.15 0.23999C74.72 5.90999 88.26 17.69 96.27 33.4L94.56 34.28Z" fill="#B71F25"/>
<path d="M94.4 34.27C95.742 34.27 96.83 33.1821 96.83 31.84C96.83 30.498 95.742 29.41 94.4 29.41C93.0579 29.41 91.97 30.498 91.97 31.84C91.97 33.1821 93.0579 34.27 94.4 34.27Z" fill="#B71F25"/>
<path d="M99.26 89.01C100.602 89.01 101.69 87.9221 101.69 86.58C101.69 85.238 100.602 84.15 99.26 84.15C97.918 84.15 96.83 85.238 96.83 86.58C96.83 87.9221 97.918 89.01 99.26 89.01Z" fill="#498A40"/>
<path d="M64.63 124.67C65.9721 124.67 67.06 123.582 67.06 122.24C67.06 120.898 65.9721 119.81 64.63 119.81C63.288 119.81 62.2 120.898 62.2 122.24C62.2 123.582 63.288 124.67 64.63 124.67Z" fill="#F5A61D"/>
<path d="M3.88 67.08C3.21 67.08 2.58 66.98 1.97 66.77C1.36 66.57 0.879999 66.3 0.529999 65.98L0.98999 65C1.31999 65.29 1.74999 65.53 2.26999 65.72C2.78999 65.91 3.32 66.01 3.88 66.01C4.39 66.01 4.79999 65.95 5.12 65.84C5.44 65.72 5.67001 65.56 5.82001 65.36C5.97001 65.16 6.04001 64.92 6.04001 64.67C6.04001 64.37 5.94 64.13 5.75 63.94C5.55 63.76 5.29999 63.61 4.98999 63.5C4.67999 63.39 4.32999 63.29 3.95999 63.21C3.58999 63.13 3.20999 63.03 2.82999 62.92C2.44999 62.81 2.10001 62.66 1.79001 62.49C1.48001 62.32 1.23 62.08 1.03 61.78C0.839999 61.48 0.73999 61.1 0.73999 60.64C0.73999 60.19 0.860006 59.77 1.10001 59.4C1.34001 59.02 1.70001 58.72 2.20001 58.49C2.70001 58.26 3.33 58.15 4.09 58.15C4.6 58.15 5.10001 58.22 5.60001 58.35C6.10001 58.48 6.52999 58.68 6.89999 58.93L6.48999 59.93C6.10999 59.68 5.71999 59.5 5.29999 59.39C4.87999 59.28 4.48 59.22 4.09 59.22C3.6 59.22 3.19 59.28 2.88 59.41C2.56 59.53 2.33 59.7 2.19 59.91C2.04 60.12 1.97 60.35 1.97 60.61C1.97 60.92 2.07001 61.16 2.26001 61.35C2.46001 61.53 2.70999 61.68 3.01999 61.79C3.32999 61.9 3.67999 62 4.04999 62.08C4.42999 62.17 4.79999 62.27 5.17999 62.37C5.55999 62.48 5.91 62.62 6.22 62.8C6.53 62.97 6.78001 63.21 6.98001 63.5C7.17001 63.79 7.26999 64.17 7.26999 64.62C7.26999 65.06 7.15 65.47 6.91 65.85C6.67 66.23 6.29001 66.53 5.79001 66.76C5.28001 66.96 4.64001 67.08 3.88 67.08Z" fill="#201032"/>
<path d="M11.75 67.05C11.09 67.05 10.5 66.9 9.98001 66.61C9.46001 66.32 9.05 65.92 8.75 65.4C8.45 64.89 8.29999 64.31 8.29999 63.66C8.29999 63 8.45 62.42 8.75 61.91C9.05 61.41 9.46001 61.01 9.98001 60.72C10.5 60.43 11.09 60.28 11.76 60.28C12.42 60.28 13.01 60.42 13.53 60.71C14.05 61 14.46 61.4 14.76 61.9C15.06 62.4 15.2 62.99 15.2 63.65C15.2 64.31 15.05 64.89 14.76 65.4C14.46 65.91 14.05 66.31 13.53 66.6C13 66.91 12.41 67.05 11.75 67.05ZM11.75 66C12.17 66 12.56 65.9 12.89 65.71C13.23 65.52 13.49 65.25 13.68 64.89C13.87 64.54 13.97 64.13 13.97 63.66C13.97 63.18 13.87 62.77 13.68 62.43C13.49 62.08 13.22 61.82 12.89 61.62C12.55 61.43 12.17 61.33 11.75 61.33C11.33 61.33 10.95 61.43 10.61 61.62C10.28 61.81 10.01 62.08 9.81 62.43C9.61 62.78 9.51001 63.19 9.51001 63.66C9.51001 64.13 9.61 64.54 9.81 64.89C10.01 65.24 10.28 65.52 10.61 65.71C10.95 65.91 11.33 66 11.75 66Z" fill="#201032"/>
<path d="M25.15 60.29C25.68 60.29 26.15 60.39 26.56 60.6C26.97 60.81 27.29 61.13 27.52 61.55C27.75 61.98 27.86 62.51 27.86 63.16V66.97H26.66V63.29C26.66 62.65 26.51 62.17 26.21 61.84C25.91 61.51 25.49 61.35 24.95 61.35C24.55 61.35 24.2 61.43 23.9 61.6C23.6 61.77 23.37 62.01 23.21 62.34C23.05 62.67 22.97 63.07 22.97 63.55V66.96H21.77V63.28C21.77 62.64 21.62 62.16 21.33 61.83C21.04 61.5 20.61 61.34 20.06 61.34C19.67 61.34 19.32 61.42 19.02 61.59C18.72 61.76 18.49 62 18.32 62.33C18.15 62.66 18.07 63.06 18.07 63.54V66.95H16.87V60.32H18.02V62.08L17.83 61.63C18.04 61.2 18.36 60.86 18.79 60.62C19.22 60.38 19.73 60.26 20.3 60.26C20.93 60.26 21.48 60.42 21.94 60.73C22.4 61.04 22.7 61.52 22.84 62.15L22.35 61.95C22.55 61.44 22.9 61.03 23.4 60.72C23.9 60.44 24.48 60.29 25.15 60.29Z" fill="#201032"/>
<path d="M33.02 67.05C32.31 67.05 31.69 66.9 31.15 66.61C30.61 66.32 30.19 65.92 29.9 65.41C29.6 64.9 29.46 64.32 29.46 63.66C29.46 63 29.6 62.42 29.89 61.91C30.18 61.4 30.57 61 31.08 60.72C31.58 60.43 32.15 60.29 32.79 60.29C33.43 60.29 34 60.43 34.49 60.72C34.98 61 35.37 61.4 35.65 61.91C35.93 62.42 36.07 63.02 36.07 63.7C36.07 63.75 36.07 63.81 36.06 63.87C36.06 63.94 36.05 64 36.04 64.06H30.4V63.2H35.41L34.92 63.5C34.93 63.08 34.84 62.7 34.66 62.36C34.48 62.03 34.22 61.77 33.9 61.58C33.58 61.39 33.21 61.3 32.78 61.3C32.36 61.3 31.99 61.39 31.67 61.58C31.34 61.77 31.09 62.03 30.91 62.37C30.73 62.71 30.64 63.09 30.64 63.53V63.73C30.64 64.17 30.74 64.57 30.95 64.91C31.16 65.25 31.44 65.52 31.81 65.72C32.18 65.91 32.6 66.01 33.07 66.01C33.46 66.01 33.82 65.94 34.14 65.81C34.46 65.68 34.74 65.48 34.98 65.21L35.64 65.99C35.34 66.34 34.97 66.61 34.52 66.79C34.07 66.96 33.58 67.05 33.02 67.05Z" fill="#201032"/>
<path d="M36.78 61.34V60.35H41V61.34H36.78ZM40 67.05C39.33 67.05 38.82 66.87 38.45 66.51C38.08 66.15 37.9 65.64 37.9 64.97V58.89H39.1V64.92C39.1 65.28 39.19 65.55 39.37 65.75C39.55 65.94 39.81 66.04 40.14 66.04C40.52 66.04 40.83 65.94 41.08 65.73L41.46 66.59C41.28 66.75 41.06 66.87 40.8 66.94C40.54 67.01 40.28 67.05 40 67.05Z" fill="#201032"/>
<path d="M46.44 60.29C46.98 60.29 47.46 60.39 47.87 60.6C48.28 60.81 48.61 61.13 48.84 61.55C49.07 61.98 49.19 62.51 49.19 63.16V66.97H47.99V63.29C47.99 62.65 47.83 62.17 47.52 61.84C47.21 61.51 46.77 61.35 46.2 61.35C45.78 61.35 45.4 61.43 45.09 61.6C44.77 61.77 44.53 62.01 44.36 62.34C44.19 62.67 44.1 63.07 44.1 63.55V66.96H42.9V57.68H44.1V62.12L43.86 61.65C44.08 61.22 44.41 60.88 44.86 60.64C45.32 60.41 45.84 60.29 46.44 60.29Z" fill="#201032"/>
<path d="M52.02 59.07C51.79 59.07 51.59 58.99 51.44 58.85C51.29 58.7 51.21 58.52 51.21 58.3C51.21 58.08 51.29 57.89 51.44 57.74C51.59 57.59 51.79 57.51 52.02 57.51C52.25 57.51 52.45 57.58 52.6 57.73C52.75 57.88 52.83 58.06 52.83 58.27C52.83 58.49 52.75 58.68 52.61 58.84C52.46 59 52.26 59.07 52.02 59.07ZM51.42 66.98V60.35H52.62V66.98H51.42Z" fill="#201032"/>
<path d="M58.45 60.29C58.99 60.29 59.47 60.39 59.88 60.6C60.29 60.81 60.62 61.13 60.85 61.55C61.08 61.98 61.2 62.51 61.2 63.16V66.97H60V63.29C60 62.65 59.84 62.17 59.53 61.84C59.22 61.51 58.78 61.35 58.21 61.35C57.79 61.35 57.41 61.43 57.1 61.6C56.78 61.77 56.54 62.01 56.37 62.34C56.2 62.67 56.11 63.07 56.11 63.55V66.96H54.91V60.33H56.06V62.12L55.87 61.65C56.09 61.22 56.42 60.88 56.87 60.64C57.32 60.41 57.85 60.29 58.45 60.29Z" fill="#201032"/>
<path d="M66.17 66.7C65.53 66.7 64.96 66.57 64.45 66.29C63.95 66.02 63.54 65.64 63.25 65.16C62.96 64.68 62.81 64.12 62.81 63.48C62.81 62.84 62.96 62.28 63.25 61.8C63.54 61.32 63.95 60.95 64.45 60.68C64.95 60.41 65.53 60.28 66.17 60.28C66.74 60.28 67.25 60.4 67.72 60.62C68.19 60.85 68.56 61.2 68.84 61.68C69.12 62.16 69.26 62.76 69.26 63.48C69.26 64.2 69.12 64.79 68.84 65.27C68.56 65.75 68.19 66.1 67.72 66.34C67.26 66.58 66.74 66.7 66.17 66.7ZM66.33 69.48C65.72 69.48 65.13 69.39 64.56 69.22C63.99 69.05 63.52 68.8 63.17 68.49L63.75 67.57C64.06 67.84 64.44 68.05 64.89 68.2C65.34 68.35 65.81 68.43 66.3 68.43C67.08 68.43 67.66 68.25 68.03 67.88C68.4 67.51 68.58 66.95 68.58 66.2V64.8L68.7 63.49L68.64 62.16V60.35H69.78V66.08C69.78 67.25 69.49 68.11 68.9 68.66C68.31 69.2 67.45 69.48 66.33 69.48ZM66.31 65.65C66.75 65.65 67.14 65.56 67.49 65.37C67.84 65.18 68.1 64.93 68.3 64.61C68.5 64.28 68.59 63.91 68.59 63.48C68.59 63.06 68.49 62.68 68.3 62.36C68.1 62.03 67.84 61.78 67.49 61.6C67.15 61.42 66.76 61.33 66.31 61.33C65.87 61.33 65.47 61.42 65.13 61.6C64.78 61.78 64.51 62.03 64.32 62.36C64.12 62.69 64.03 63.06 64.03 63.48C64.03 63.91 64.13 64.28 64.32 64.61C64.52 64.94 64.79 65.19 65.13 65.37C65.47 65.55 65.87 65.65 66.31 65.65Z" fill="#201032"/>
<path d="M26.62 88.73C26.15 87.97 25.78 87.09 25.52 86.1C25.26 85.1 25.13 84.03 25.13 82.88C25.13 81.73 25.26 80.65 25.52 79.65C25.78 78.65 26.15 77.77 26.62 77.03H27.76C27.26 77.91 26.89 78.84 26.66 79.8C26.43 80.76 26.31 81.79 26.31 82.88C26.31 83.97 26.43 85 26.66 85.96C26.89 86.92 27.26 87.85 27.76 88.73H26.62Z" fill="#201032"/>
<path d="M29.47 86.3V77.55H30.72V85.22H35.46V86.31H29.47V86.3Z" fill="#201032"/>
<path d="M36.04 86.3V85.45L39.6 82.01C39.92 81.71 40.15 81.45 40.31 81.22C40.47 80.99 40.57 80.78 40.62 80.58C40.67 80.38 40.7 80.19 40.7 80.01C40.7 79.56 40.54 79.21 40.23 78.95C39.91 78.69 39.45 78.56 38.84 78.56C38.37 78.56 37.95 78.64 37.58 78.79C37.2 78.94 36.88 79.18 36.6 79.51L35.75 78.77C36.08 78.35 36.53 78.02 37.09 77.79C37.65 77.56 38.27 77.45 38.95 77.45C39.56 77.45 40.09 77.55 40.54 77.74C40.99 77.94 41.34 78.22 41.58 78.58C41.83 78.95 41.95 79.38 41.95 79.88C41.95 80.16 41.91 80.44 41.84 80.72C41.77 81 41.62 81.29 41.42 81.6C41.22 81.91 40.91 82.25 40.52 82.64L37.34 85.7L37.04 85.21H42.33V86.3H36.04Z" fill="#201032"/>
<path d="M44.3 88.73H43.16C43.67 87.85 44.04 86.92 44.27 85.96C44.5 85 44.62 83.97 44.62 82.88C44.62 81.79 44.5 80.76 44.27 79.8C44.04 78.84 43.67 77.91 43.16 77.03H44.3C44.79 77.77 45.17 78.65 45.42 79.65C45.67 80.65 45.8 81.73 45.8 82.88C45.8 84.03 45.67 85.1 45.42 86.1C45.17 87.1 44.79 87.97 44.3 88.73Z" fill="#201032"/>
<path d="M94.4 13.02C93.87 13.02 93.36 12.93 92.87 12.76C92.38 12.59 92.01 12.36 91.74 12.09L92.04 11.51C92.29 11.76 92.63 11.96 93.06 12.13C93.49 12.3 93.94 12.38 94.4 12.38C94.85 12.38 95.22 12.32 95.5 12.21C95.78 12.1 95.99 11.95 96.12 11.75C96.25 11.56 96.32 11.35 96.32 11.12C96.32 10.84 96.24 10.62 96.08 10.45C95.92 10.28 95.71 10.14 95.45 10.05C95.19 9.94999 94.9 9.85998 94.59 9.78998C94.28 9.70998 93.96 9.62999 93.65 9.54999C93.34 9.46999 93.05 9.35002 92.78 9.21002C92.52 9.07002 92.31 8.88001 92.15 8.64001C91.99 8.40001 91.91 8.10002 91.91 7.71002C91.91 7.36002 92 7.02998 92.19 6.72998C92.38 6.42998 92.67 6.19001 93.05 6.01001C93.43 5.83001 93.94 5.73999 94.54 5.73999C94.94 5.73999 95.34 5.79997 95.74 5.90997C96.14 6.01997 96.48 6.18 96.76 6.38L96.5 6.97998C96.19 6.76998 95.87 6.63003 95.52 6.53003C95.18 6.43003 94.84 6.39001 94.52 6.39001C94.09 6.39001 93.74 6.45 93.46 6.56C93.18 6.68 92.97 6.83003 92.84 7.03003C92.71 7.22003 92.64 7.44 92.64 7.69C92.64 7.97 92.72 8.18999 92.88 8.35999C93.04 8.52999 93.25 8.66001 93.51 8.76001C93.77 8.86001 94.06 8.94002 94.37 9.02002C94.68 9.10002 95 9.18002 95.31 9.27002C95.62 9.36002 95.91 9.46999 96.17 9.60999C96.43 9.74999 96.64 9.93998 96.8 10.17C96.96 10.4 97.04 10.71 97.04 11.08C97.04 11.43 96.94 11.75 96.75 12.05C96.56 12.35 96.27 12.59 95.87 12.77C95.52 12.92 95.02 13.02 94.4 13.02Z" fill="#B71F25"/>
<path d="M100.76 13C100.23 13 99.77 12.88 99.36 12.65C98.95 12.42 98.63 12.09 98.39 11.67C98.15 11.25 98.03 10.78 98.03 10.26C98.03 9.72001 98.15 9.25003 98.39 8.84003C98.63 8.43003 98.95 8.11 99.36 7.88C99.77 7.65 100.24 7.53003 100.76 7.53003C101.29 7.53003 101.76 7.65 102.18 7.88C102.59 8.12 102.92 8.44003 103.15 8.84003C103.39 9.25003 103.5 9.72001 103.5 10.26C103.5 10.79 103.38 11.26 103.15 11.68C102.91 12.09 102.59 12.42 102.17 12.65C101.75 12.88 101.28 13 100.76 13ZM100.76 12.36C101.15 12.36 101.49 12.27 101.79 12.1C102.09 11.93 102.33 11.68 102.5 11.36C102.67 11.04 102.76 10.68 102.76 10.26C102.76 9.84001 102.67 9.47002 102.5 9.15002C102.33 8.83002 102.09 8.58998 101.79 8.41998C101.49 8.24998 101.15 8.15997 100.77 8.15997C100.39 8.15997 100.05 8.24998 99.75 8.41998C99.45 8.58998 99.21 8.84002 99.03 9.15002C98.85 9.46002 98.76 9.83001 98.76 10.26C98.76 10.68 98.85 11.04 99.03 11.36C99.21 11.68 99.44 11.92 99.74 12.1C100.04 12.28 100.38 12.36 100.76 12.36Z" fill="#B71F25"/>
<path d="M111.7 7.53003C112.14 7.53003 112.52 7.61003 112.84 7.78003C113.16 7.95003 113.42 8.19998 113.6 8.53998C113.78 8.87998 113.87 9.31002 113.87 9.83002V12.95H113.14V9.90002C113.14 9.33002 113.01 8.91 112.74 8.62C112.47 8.33 112.09 8.19 111.6 8.19C111.23 8.19 110.91 8.26998 110.64 8.41998C110.37 8.56998 110.16 8.80003 110.02 9.09003C109.87 9.38003 109.8 9.73001 109.8 10.14V12.96H109.07V9.90997C109.07 9.33997 108.93 8.92 108.66 8.63C108.39 8.34 108.01 8.20001 107.51 8.20001C107.15 8.20001 106.83 8.27999 106.56 8.42999C106.29 8.57999 106.08 8.80998 105.93 9.09998C105.78 9.38998 105.71 9.74002 105.71 10.15V12.97H104.98V7.59998H105.68V9.04999L105.57 8.78998C105.73 8.39998 106 8.1 106.36 7.87C106.73 7.65 107.16 7.53998 107.65 7.53998C108.18 7.53998 108.62 7.66999 108.99 7.92999C109.36 8.18999 109.6 8.58999 109.71 9.10999L109.42 9C109.58 8.56 109.86 8.21 110.25 7.94C110.66 7.67 111.14 7.53003 111.7 7.53003Z" fill="#B71F25"/>
<path d="M118.12 13C117.56 13 117.07 12.88 116.65 12.65C116.23 12.42 115.9 12.09 115.66 11.68C115.42 11.27 115.3 10.79 115.3 10.26C115.3 9.73001 115.41 9.25998 115.64 8.84998C115.87 8.43998 116.18 8.12 116.58 7.88C116.98 7.64 117.43 7.53003 117.93 7.53003C118.43 7.53003 118.88 7.64 119.27 7.87C119.66 8.1 119.97 8.42002 120.2 8.83002C120.43 9.24002 120.54 9.72001 120.54 10.26C120.54 10.29 120.54 10.33 120.54 10.37C120.54 10.41 120.54 10.45 120.54 10.49H115.86V9.95001H120.15L119.86 10.16C119.86 9.76997 119.78 9.42 119.61 9.12C119.44 8.82 119.22 8.57997 118.93 8.40997C118.64 8.23997 118.31 8.15002 117.94 8.15002C117.57 8.15002 117.24 8.23997 116.95 8.40997C116.66 8.57997 116.43 8.82 116.26 9.13C116.1 9.44 116.01 9.78999 116.01 10.18V10.29C116.01 10.7 116.1 11.06 116.28 11.37C116.46 11.68 116.71 11.92 117.04 12.1C117.36 12.27 117.73 12.36 118.15 12.36C118.48 12.36 118.78 12.3 119.07 12.19C119.35 12.07 119.6 11.9 119.8 11.66L120.21 12.13C119.97 12.42 119.67 12.63 119.32 12.79C118.94 12.93 118.55 13 118.12 13Z" fill="#B71F25"/>
<path d="M121.18 8.19V7.59003H124.51V8.19H121.18ZM123.72 13C123.22 13 122.83 12.86 122.55 12.59C122.28 12.32 122.14 11.93 122.14 11.43V6.39001H122.87V11.39C122.87 11.7 122.95 11.95 123.11 12.12C123.27 12.29 123.5 12.38 123.8 12.38C124.12 12.38 124.39 12.29 124.6 12.1L124.86 12.62C124.72 12.75 124.54 12.84 124.34 12.91C124.14 12.98 123.93 13 123.72 13Z" fill="#B71F25"/>
<path d="M128.92 7.53003C129.36 7.53003 129.74 7.61003 130.07 7.78003C130.4 7.95003 130.66 8.19998 130.85 8.53998C131.04 8.87998 131.13 9.31002 131.13 9.83002V12.95H130.4V9.90002C130.4 9.33002 130.26 8.91 129.98 8.62C129.7 8.33 129.3 8.19 128.79 8.19C128.41 8.19 128.08 8.26998 127.79 8.41998C127.51 8.56998 127.29 8.80003 127.14 9.09003C126.99 9.38003 126.91 9.73001 126.91 10.14V12.96H126.18V5.37H126.91V9.06L126.77 8.78003C126.94 8.39003 127.21 8.08999 127.59 7.85999C127.95 7.63999 128.4 7.53003 128.92 7.53003Z" fill="#B71F25"/>
<path d="M133.46 6.40002C133.31 6.40002 133.18 6.35 133.08 6.25C132.98 6.15 132.93 6.03 132.93 5.88C132.93 5.73 132.98 5.62002 133.08 5.52002C133.18 5.42002 133.31 5.37 133.46 5.37C133.61 5.37 133.74 5.42001 133.84 5.51001C133.94 5.60001 133.99 5.72 133.99 5.87C133.99 6.02 133.94 6.15 133.84 6.25C133.74 6.35 133.61 6.40002 133.46 6.40002ZM133.09 12.95V7.58002H133.82V12.95H133.09Z" fill="#B71F25"/>
<path d="M138.58 7.53003C139.02 7.53003 139.4 7.61003 139.73 7.78003C140.06 7.95003 140.32 8.19998 140.51 8.53998C140.7 8.87998 140.79 9.31002 140.79 9.83002V12.95H140.06V9.90002C140.06 9.33002 139.92 8.91 139.64 8.62C139.36 8.33 138.96 8.19 138.45 8.19C138.07 8.19 137.74 8.26998 137.45 8.41998C137.17 8.56998 136.95 8.80003 136.8 9.09003C136.65 9.38003 136.57 9.73001 136.57 10.14V12.96H135.84V7.59003H136.54V9.06L136.43 8.78003C136.6 8.39003 136.87 8.08999 137.25 7.85999C137.62 7.63999 138.06 7.53003 138.58 7.53003Z" fill="#B71F25"/>
<path d="M144.92 12.75C144.41 12.75 143.95 12.64 143.54 12.42C143.13 12.2 142.81 11.89 142.57 11.49C142.33 11.09 142.22 10.64 142.22 10.13C142.22 9.62 142.34 9.17002 142.57 8.77002C142.81 8.38002 143.13 8.06998 143.54 7.84998C143.95 7.62998 144.41 7.52002 144.92 7.52002C145.4 7.52002 145.83 7.62001 146.21 7.82001C146.59 8.02001 146.9 8.31001 147.12 8.70001C147.35 9.09001 147.46 9.56 147.46 10.12C147.46 10.68 147.35 11.15 147.12 11.54C146.9 11.93 146.59 12.23 146.21 12.43C145.82 12.65 145.39 12.75 144.92 12.75ZM145.05 14.99C144.56 14.99 144.09 14.92 143.64 14.78C143.19 14.64 142.83 14.43 142.55 14.17L142.92 13.62C143.17 13.84 143.48 14.02 143.86 14.16C144.23 14.29 144.63 14.36 145.04 14.36C145.72 14.36 146.22 14.2 146.54 13.88C146.86 13.56 147.02 13.07 147.02 12.4V11.06L147.12 10.14L147.05 9.21997V7.59003H147.75V12.31C147.75 13.24 147.52 13.92 147.07 14.35C146.61 14.77 145.94 14.99 145.05 14.99ZM144.99 12.1C145.39 12.1 145.74 12.02 146.04 11.85C146.35 11.68 146.59 11.45 146.77 11.15C146.95 10.85 147.04 10.51 147.04 10.12C147.04 9.73 146.95 9.38998 146.77 9.09998C146.59 8.80998 146.35 8.57997 146.04 8.40997C145.73 8.23997 145.38 8.15997 144.99 8.15997C144.6 8.15997 144.25 8.23997 143.94 8.40997C143.63 8.57997 143.39 8.80998 143.21 9.09998C143.04 9.38998 142.95 9.73 142.95 10.12C142.95 10.51 143.04 10.85 143.21 11.15C143.38 11.45 143.63 11.68 143.94 11.85C144.25 12.02 144.6 12.1 144.99 12.1Z" fill="#B71F25"/>
<path d="M152.6 12.95V5.78998H153.36V12.3H157.37V12.96H152.6V12.95Z" fill="#B71F25"/>
<path d="M157.87 11.07V10.54L161.67 5.78998H162.49L158.73 10.54L158.33 10.42H164.09V11.07H157.87ZM161.91 12.95V11.07L161.93 10.42V8.76001H162.65V12.96H161.91V12.95Z" fill="#B71F25"/>
<path d="M116.58 61.97C116.05 61.97 115.54 61.88 115.05 61.71C114.56 61.54 114.19 61.31 113.92 61.04L114.22 60.46C114.47 60.71 114.81 60.91 115.24 61.08C115.67 61.25 116.12 61.33 116.58 61.33C117.03 61.33 117.4 61.27 117.68 61.16C117.96 61.05 118.17 60.9 118.3 60.7C118.43 60.51 118.5 60.3 118.5 60.07C118.5 59.79 118.42 59.57 118.26 59.4C118.1 59.23 117.89 59.09 117.63 59C117.37 58.9 117.08 58.81 116.77 58.74C116.46 58.66 116.14 58.58 115.83 58.5C115.52 58.42 115.23 58.3 114.96 58.16C114.7 58.02 114.49 57.83 114.33 57.59C114.17 57.35 114.09 57.05 114.09 56.66C114.09 56.31 114.18 55.98 114.37 55.68C114.56 55.38 114.85 55.14 115.23 54.96C115.61 54.78 116.12 54.69 116.72 54.69C117.12 54.69 117.52 54.75 117.92 54.86C118.32 54.97 118.66 55.13 118.94 55.33L118.68 55.93C118.37 55.72 118.05 55.58 117.7 55.48C117.36 55.38 117.02 55.34 116.7 55.34C116.27 55.34 115.92 55.4 115.64 55.51C115.36 55.63 115.15 55.78 115.02 55.98C114.89 56.17 114.82 56.39 114.82 56.64C114.82 56.92 114.9 57.14 115.06 57.31C115.22 57.48 115.43 57.61 115.69 57.71C115.95 57.81 116.24 57.89 116.55 57.97C116.86 58.05 117.18 58.13 117.49 58.22C117.8 58.31 118.09 58.42 118.35 58.56C118.61 58.7 118.82 58.89 118.98 59.12C119.14 59.35 119.22 59.66 119.22 60.03C119.22 60.38 119.12 60.7 118.93 61C118.74 61.3 118.45 61.54 118.05 61.72C117.7 61.88 117.19 61.97 116.58 61.97Z" fill="#498A40"/>
<path d="M122.93 61.96C122.4 61.96 121.94 61.84 121.53 61.61C121.12 61.38 120.8 61.05 120.56 60.63C120.32 60.21 120.2 59.74 120.2 59.22C120.2 58.68 120.32 58.21 120.56 57.8C120.8 57.39 121.12 57.07 121.53 56.84C121.94 56.61 122.41 56.49 122.93 56.49C123.46 56.49 123.93 56.61 124.35 56.84C124.76 57.08 125.09 57.4 125.32 57.8C125.56 58.21 125.67 58.68 125.67 59.22C125.67 59.75 125.55 60.22 125.32 60.64C125.08 61.05 124.76 61.38 124.34 61.61C123.92 61.84 123.46 61.96 122.93 61.96ZM122.93 61.32C123.32 61.32 123.66 61.23 123.96 61.06C124.26 60.89 124.5 60.64 124.67 60.32C124.84 60 124.93 59.64 124.93 59.22C124.93 58.8 124.84 58.43 124.67 58.11C124.5 57.79 124.26 57.55 123.96 57.38C123.66 57.21 123.32 57.12 122.94 57.12C122.56 57.12 122.22 57.21 121.92 57.38C121.62 57.55 121.38 57.8 121.2 58.11C121.02 58.42 120.93 58.79 120.93 59.22C120.93 59.64 121.02 60 121.2 60.32C121.38 60.64 121.61 60.88 121.91 61.06C122.21 61.24 122.55 61.32 122.93 61.32Z" fill="#498A40"/>
<path d="M133.87 56.49C134.31 56.49 134.69 56.57 135.01 56.74C135.33 56.91 135.59 57.16 135.77 57.5C135.95 57.84 136.04 58.27 136.04 58.79V61.91H135.31V58.86C135.31 58.29 135.18 57.87 134.91 57.58C134.64 57.29 134.26 57.15 133.77 57.15C133.4 57.15 133.08 57.23 132.81 57.38C132.54 57.53 132.33 57.76 132.19 58.05C132.04 58.34 131.97 58.69 131.97 59.1V61.92H131.24V58.87C131.24 58.3 131.1 57.88 130.83 57.59C130.56 57.3 130.18 57.16 129.68 57.16C129.32 57.16 129 57.24 128.73 57.39C128.46 57.54 128.25 57.77 128.1 58.06C127.95 58.35 127.88 58.7 127.88 59.11V61.93H127.15V56.56H127.85V58.01L127.74 57.75C127.9 57.36 128.17 57.06 128.53 56.83C128.9 56.61 129.33 56.5 129.82 56.5C130.35 56.5 130.79 56.63 131.16 56.89C131.53 57.15 131.77 57.55 131.88 58.07L131.59 57.96C131.75 57.52 132.03 57.17 132.42 56.9C132.83 56.62 133.31 56.49 133.87 56.49Z" fill="#498A40"/>
<path d="M140.3 61.96C139.74 61.96 139.25 61.84 138.83 61.61C138.41 61.38 138.08 61.05 137.84 60.64C137.6 60.23 137.48 59.75 137.48 59.22C137.48 58.69 137.59 58.22 137.82 57.81C138.05 57.4 138.36 57.08 138.76 56.84C139.16 56.6 139.61 56.49 140.11 56.49C140.61 56.49 141.06 56.6 141.45 56.83C141.84 57.06 142.15 57.38 142.38 57.79C142.61 58.2 142.72 58.68 142.72 59.22C142.72 59.25 142.72 59.29 142.72 59.33C142.72 59.37 142.72 59.41 142.72 59.45H138.04V58.91H142.33L142.04 59.12C142.04 58.73 141.96 58.38 141.79 58.08C141.62 57.78 141.4 57.54 141.11 57.37C140.82 57.2 140.49 57.11 140.12 57.11C139.75 57.11 139.42 57.2 139.13 57.37C138.84 57.54 138.61 57.78 138.44 58.09C138.28 58.4 138.19 58.75 138.19 59.14V59.25C138.19 59.66 138.28 60.02 138.46 60.33C138.64 60.64 138.89 60.88 139.22 61.06C139.54 61.23 139.91 61.32 140.33 61.32C140.66 61.32 140.96 61.26 141.25 61.15C141.53 61.03 141.78 60.86 141.98 60.62L142.39 61.09C142.15 61.38 141.85 61.59 141.5 61.75C141.12 61.89 140.73 61.96 140.3 61.96Z" fill="#498A40"/>
<path d="M143.36 57.14V56.54H146.69V57.14H143.36ZM145.89 61.96C145.39 61.96 145 61.82 144.72 61.55C144.45 61.28 144.31 60.89 144.31 60.39V55.35H145.04V60.35C145.04 60.66 145.12 60.91 145.28 61.08C145.44 61.25 145.67 61.34 145.97 61.34C146.29 61.34 146.56 61.25 146.77 61.06L147.03 61.58C146.89 61.71 146.71 61.8 146.51 61.87C146.31 61.94 146.1 61.96 145.89 61.96Z" fill="#498A40"/>
<path d="M151.09 56.49C151.53 56.49 151.91 56.57 152.24 56.74C152.57 56.91 152.83 57.16 153.02 57.5C153.21 57.84 153.3 58.27 153.3 58.79V61.91H152.57V58.86C152.57 58.29 152.43 57.87 152.15 57.58C151.87 57.29 151.47 57.15 150.96 57.15C150.58 57.15 150.25 57.23 149.96 57.38C149.68 57.53 149.46 57.76 149.31 58.05C149.16 58.34 149.08 58.69 149.08 59.1V61.92H148.35V54.33H149.08V58.02L148.94 57.74C149.11 57.35 149.38 57.05 149.76 56.82C150.13 56.6 150.57 56.49 151.09 56.49Z" fill="#498A40"/>
<path d="M155.63 55.35C155.48 55.35 155.35 55.3 155.25 55.2C155.15 55.1 155.1 54.98 155.1 54.83C155.1 54.68 155.15 54.57 155.25 54.47C155.35 54.37 155.48 54.32 155.63 54.32C155.78 54.32 155.91 54.37 156.01 54.46C156.11 54.55 156.16 54.67 156.16 54.82C156.16 54.97 156.11 55.1 156.01 55.2C155.91 55.3 155.79 55.35 155.63 55.35ZM155.26 61.91V56.54H155.99V61.91H155.26Z" fill="#498A40"/>
<path d="M160.76 56.49C161.2 56.49 161.58 56.57 161.91 56.74C162.24 56.91 162.5 57.16 162.69 57.5C162.88 57.84 162.97 58.27 162.97 58.79V61.91H162.24V58.86C162.24 58.29 162.1 57.87 161.82 57.58C161.54 57.29 161.14 57.15 160.63 57.15C160.25 57.15 159.92 57.23 159.63 57.38C159.35 57.53 159.13 57.76 158.98 58.05C158.83 58.34 158.75 58.69 158.75 59.1V61.92H158.02V56.55H158.72V58.02L158.61 57.74C158.78 57.35 159.05 57.05 159.43 56.82C159.79 56.6 160.24 56.49 160.76 56.49Z" fill="#498A40"/>
<path d="M167.09 61.7C166.58 61.7 166.12 61.59 165.71 61.37C165.3 61.15 164.98 60.84 164.74 60.44C164.5 60.04 164.39 59.59 164.39 59.08C164.39 58.57 164.51 58.12 164.74 57.72C164.98 57.33 165.3 57.02 165.71 56.8C166.12 56.58 166.58 56.47 167.09 56.47C167.57 56.47 168 56.57 168.38 56.77C168.76 56.97 169.07 57.26 169.29 57.65C169.52 58.04 169.63 58.51 169.63 59.07C169.63 59.63 169.52 60.1 169.29 60.49C169.07 60.88 168.76 61.18 168.38 61.38C168 61.6 167.57 61.7 167.09 61.7ZM167.22 63.95C166.73 63.95 166.26 63.88 165.81 63.74C165.36 63.6 165 63.39 164.72 63.13L165.09 62.58C165.34 62.8 165.65 62.98 166.03 63.12C166.4 63.25 166.8 63.32 167.21 63.32C167.89 63.32 168.39 63.16 168.71 62.84C169.03 62.52 169.19 62.03 169.19 61.36V60.02L169.29 59.1L169.22 58.18V56.55H169.92V61.27C169.92 62.2 169.69 62.88 169.24 63.31C168.78 63.73 168.11 63.95 167.22 63.95ZM167.16 61.06C167.56 61.06 167.91 60.98 168.21 60.81C168.52 60.64 168.76 60.41 168.94 60.11C169.12 59.81 169.21 59.47 169.21 59.08C169.21 58.69 169.12 58.35 168.94 58.06C168.76 57.77 168.52 57.54 168.21 57.37C167.9 57.2 167.55 57.12 167.16 57.12C166.77 57.12 166.42 57.2 166.11 57.37C165.8 57.54 165.56 57.77 165.38 58.06C165.21 58.35 165.12 58.69 165.12 59.08C165.12 59.47 165.21 59.81 165.38 60.11C165.55 60.41 165.8 60.64 166.11 60.81C166.42 60.98 166.77 61.06 167.16 61.06Z" fill="#498A40"/>
<path d="M174.78 61.91V54.75H175.54V61.26H179.55V61.92H174.78V61.91Z" fill="#498A40"/>
<path d="M180.04 60.03V59.5L183.84 54.75H184.66L180.9 59.5L180.5 59.38H186.26V60.03H180.04ZM184.09 61.91V60.03L184.11 59.38V57.72H184.83V61.92H184.09V61.91Z" fill="#498A40"/>
<path d="M92.58 118.23C92.05 118.23 91.54 118.14 91.05 117.97C90.56 117.8 90.19 117.57 89.92 117.3L90.22 116.72C90.47 116.97 90.81 117.17 91.24 117.34C91.67 117.51 92.12 117.59 92.58 117.59C93.03 117.59 93.4 117.53 93.68 117.42C93.96 117.31 94.17 117.16 94.3 116.96C94.43 116.77 94.5 116.56 94.5 116.33C94.5 116.05 94.42 115.83 94.26 115.66C94.1 115.49 93.89 115.35 93.63 115.26C93.37 115.16 93.08 115.07 92.77 115C92.46 114.92 92.14 114.84 91.83 114.76C91.52 114.68 91.23 114.56 90.96 114.42C90.7 114.28 90.49 114.09 90.33 113.85C90.17 113.61 90.09 113.31 90.09 112.92C90.09 112.57 90.18 112.24 90.37 111.94C90.56 111.64 90.85 111.4 91.23 111.22C91.61 111.04 92.12 110.95 92.72 110.95C93.12 110.95 93.52 111.01 93.92 111.12C94.32 111.23 94.66 111.39 94.94 111.59L94.68 112.19C94.37 111.98 94.05 111.84 93.7 111.74C93.36 111.64 93.02 111.6 92.7 111.6C92.27 111.6 91.92 111.66 91.64 111.77C91.36 111.89 91.15 112.04 91.02 112.24C90.89 112.43 90.82 112.65 90.82 112.9C90.82 113.18 90.9 113.4 91.06 113.57C91.22 113.74 91.43 113.87 91.69 113.97C91.95 114.07 92.24 114.15 92.55 114.23C92.86 114.31 93.18 114.39 93.49 114.48C93.8 114.57 94.09 114.68 94.35 114.82C94.61 114.96 94.82 115.15 94.98 115.38C95.14 115.61 95.22 115.92 95.22 116.29C95.22 116.64 95.12 116.96 94.93 117.26C94.74 117.56 94.45 117.8 94.05 117.98C93.7 118.14 93.19 118.23 92.58 118.23Z" fill="#F5A61D"/>
<path d="M98.93 118.22C98.4 118.22 97.94 118.1 97.53 117.87C97.12 117.64 96.8 117.31 96.56 116.89C96.32 116.47 96.2 116 96.2 115.48C96.2 114.94 96.32 114.47 96.56 114.06C96.8 113.65 97.12 113.33 97.53 113.1C97.94 112.87 98.41 112.75 98.93 112.75C99.46 112.75 99.93 112.87 100.35 113.1C100.76 113.34 101.09 113.66 101.32 114.06C101.56 114.47 101.67 114.94 101.67 115.48C101.67 116.01 101.55 116.48 101.32 116.9C101.08 117.31 100.76 117.64 100.34 117.87C99.92 118.1 99.46 118.22 98.93 118.22ZM98.93 117.58C99.32 117.58 99.66 117.49 99.96 117.32C100.26 117.15 100.5 116.9 100.67 116.58C100.84 116.26 100.93 115.9 100.93 115.48C100.93 115.06 100.84 114.69 100.67 114.37C100.5 114.05 100.26 113.81 99.96 113.64C99.66 113.47 99.32 113.38 98.94 113.38C98.56 113.38 98.22 113.47 97.92 113.64C97.62 113.81 97.38 114.06 97.2 114.37C97.02 114.68 96.93 115.05 96.93 115.48C96.93 115.9 97.02 116.26 97.2 116.58C97.38 116.9 97.61 117.14 97.91 117.32C98.21 117.5 98.55 117.58 98.93 117.58Z" fill="#F5A61D"/>
<path d="M109.87 112.75C110.31 112.75 110.69 112.83 111.01 113C111.33 113.17 111.59 113.42 111.77 113.76C111.95 114.1 112.04 114.53 112.04 115.05V118.17H111.31V115.12C111.31 114.55 111.18 114.13 110.91 113.84C110.64 113.55 110.26 113.41 109.77 113.41C109.4 113.41 109.08 113.49 108.81 113.64C108.54 113.79 108.33 114.02 108.19 114.31C108.04 114.6 107.97 114.95 107.97 115.36V118.18H107.24V115.13C107.24 114.56 107.1 114.14 106.83 113.85C106.56 113.56 106.18 113.42 105.68 113.42C105.32 113.42 105 113.5 104.73 113.65C104.46 113.8 104.25 114.03 104.1 114.32C103.95 114.61 103.88 114.96 103.88 115.37V118.19H103.15V112.82H103.85V114.27L103.74 114.01C103.9 113.62 104.17 113.32 104.53 113.09C104.9 112.87 105.33 112.76 105.82 112.76C106.35 112.76 106.79 112.89 107.16 113.15C107.53 113.41 107.77 113.81 107.88 114.33L107.59 114.22C107.75 113.78 108.03 113.43 108.42 113.16C108.83 112.88 109.31 112.75 109.87 112.75Z" fill="#F5A61D"/>
<path d="M116.3 118.22C115.74 118.22 115.25 118.1 114.83 117.87C114.41 117.64 114.08 117.31 113.84 116.9C113.6 116.49 113.48 116.01 113.48 115.48C113.48 114.95 113.59 114.48 113.82 114.07C114.05 113.66 114.36 113.34 114.76 113.1C115.16 112.86 115.61 112.75 116.11 112.75C116.61 112.75 117.06 112.86 117.45 113.09C117.84 113.32 118.15 113.64 118.38 114.05C118.61 114.46 118.72 114.94 118.72 115.48C118.72 115.51 118.72 115.55 118.72 115.59C118.72 115.63 118.72 115.67 118.72 115.71H114.04V115.17H118.33L118.04 115.38C118.04 114.99 117.96 114.64 117.79 114.34C117.62 114.04 117.4 113.8 117.11 113.63C116.82 113.46 116.49 113.37 116.12 113.37C115.75 113.37 115.42 113.46 115.13 113.63C114.84 113.8 114.61 114.04 114.44 114.35C114.28 114.66 114.19 115.01 114.19 115.4V115.51C114.19 115.92 114.28 116.28 114.46 116.59C114.64 116.9 114.89 117.14 115.22 117.32C115.54 117.49 115.91 117.58 116.33 117.58C116.66 117.58 116.96 117.52 117.25 117.41C117.53 117.29 117.78 117.12 117.98 116.88L118.39 117.35C118.15 117.64 117.85 117.85 117.5 118.01C117.12 118.15 116.73 118.22 116.3 118.22Z" fill="#F5A61D"/>
<path d="M119.35 113.4V112.8H122.68V113.4H119.35ZM121.89 118.22C121.39 118.22 121 118.08 120.72 117.81C120.45 117.54 120.31 117.15 120.31 116.65V111.61H121.04V116.61C121.04 116.92 121.12 117.17 121.28 117.34C121.44 117.51 121.67 117.6 121.97 117.6C122.29 117.6 122.56 117.51 122.77 117.32L123.03 117.84C122.89 117.97 122.71 118.06 122.51 118.13C122.31 118.2 122.1 118.22 121.89 118.22Z" fill="#F5A61D"/>
<path d="M127.09 112.75C127.53 112.75 127.91 112.83 128.24 113C128.57 113.17 128.83 113.42 129.02 113.76C129.21 114.1 129.3 114.53 129.3 115.05V118.17H128.57V115.12C128.57 114.55 128.43 114.13 128.15 113.84C127.87 113.55 127.47 113.41 126.96 113.41C126.58 113.41 126.25 113.49 125.96 113.64C125.68 113.79 125.46 114.02 125.31 114.31C125.16 114.6 125.08 114.95 125.08 115.36V118.18H124.35V110.59H125.08V114.28L124.94 114C125.11 113.61 125.38 113.31 125.76 113.08C126.12 112.86 126.57 112.75 127.09 112.75Z" fill="#F5A61D"/>
<path d="M131.63 111.61C131.48 111.61 131.35 111.56 131.25 111.46C131.15 111.36 131.1 111.24 131.1 111.09C131.1 110.94 131.15 110.83 131.25 110.73C131.35 110.63 131.48 110.58 131.63 110.58C131.78 110.58 131.91 110.63 132.01 110.72C132.11 110.81 132.16 110.93 132.16 111.08C132.16 111.23 132.11 111.36 132.01 111.46C131.91 111.56 131.79 111.61 131.63 111.61ZM131.26 118.17V112.8H131.99V118.17H131.26Z" fill="#F5A61D"/>
<path d="M136.76 112.75C137.2 112.75 137.58 112.83 137.91 113C138.24 113.17 138.5 113.42 138.69 113.76C138.88 114.1 138.97 114.53 138.97 115.05V118.17H138.24V115.12C138.24 114.55 138.1 114.13 137.82 113.84C137.54 113.55 137.14 113.41 136.63 113.41C136.25 113.41 135.92 113.49 135.63 113.64C135.35 113.79 135.13 114.02 134.98 114.31C134.83 114.6 134.75 114.95 134.75 115.36V118.18H134.02V112.81H134.72V114.28L134.6 114C134.77 113.61 135.04 113.31 135.42 113.08C135.79 112.86 136.24 112.75 136.76 112.75Z" fill="#F5A61D"/>
<path d="M143.09 117.97C142.58 117.97 142.12 117.86 141.71 117.64C141.3 117.42 140.98 117.11 140.74 116.71C140.5 116.31 140.39 115.86 140.39 115.35C140.39 114.84 140.51 114.39 140.74 113.99C140.98 113.6 141.3 113.29 141.71 113.07C142.12 112.85 142.58 112.74 143.09 112.74C143.57 112.74 144 112.84 144.38 113.04C144.76 113.24 145.07 113.53 145.29 113.92C145.52 114.31 145.63 114.78 145.63 115.34C145.63 115.9 145.52 116.37 145.29 116.76C145.07 117.15 144.76 117.45 144.38 117.65C144 117.86 143.57 117.97 143.09 117.97ZM143.22 120.21C142.73 120.21 142.26 120.14 141.81 120C141.36 119.86 141 119.65 140.72 119.39L141.09 118.84C141.34 119.06 141.65 119.24 142.03 119.38C142.4 119.51 142.8 119.58 143.21 119.58C143.89 119.58 144.39 119.42 144.71 119.1C145.03 118.78 145.19 118.29 145.19 117.62V116.28L145.29 115.36L145.22 114.44V112.81H145.92V117.53C145.92 118.46 145.69 119.14 145.24 119.57C144.78 119.99 144.11 120.21 143.22 120.21ZM143.16 117.32C143.56 117.32 143.91 117.24 144.21 117.07C144.52 116.9 144.76 116.67 144.94 116.37C145.12 116.07 145.21 115.73 145.21 115.34C145.21 114.95 145.12 114.61 144.94 114.32C144.76 114.03 144.52 113.8 144.21 113.63C143.9 113.46 143.55 113.38 143.16 113.38C142.77 113.38 142.42 113.46 142.11 113.63C141.8 113.8 141.56 114.03 141.38 114.32C141.21 114.61 141.12 114.95 141.12 115.34C141.12 115.73 141.21 116.07 141.38 116.37C141.55 116.67 141.8 116.9 142.11 117.07C142.42 117.24 142.77 117.32 143.16 117.32Z" fill="#F5A61D"/>
<path d="M150.77 118.17V111.01H151.53V117.52H155.54V118.18H150.77V118.17Z" fill="#F5A61D"/>
<path d="M156.04 116.29V115.76L159.84 111.01H160.66L156.9 115.76L156.5 115.64H162.26V116.29H156.04ZM160.09 118.17V116.29L160.11 115.64V113.98H160.83V118.18H160.09V118.17Z" fill="#F5A61D"/>
</svg>
