<svg width="54" height="52" viewBox="0 0 54 52" fill="none" xmlns="http://www.w3.org/2000/svg">
<path d="M26.5778 51.4173C41.2563 51.4173 53.1556 39.9071 53.1556 25.7086C53.1556 11.5101 41.2563 0 26.5778 0C11.8993 0 0 11.5101 0 25.7086C0 39.9071 11.8993 51.4173 26.5778 51.4173Z" fill="url(#paint0_linear_2844_2836)"/>
<path d="M31.5018 30.2698C33.4418 32.1198 42.3118 36.8598 36.8518 39.3698C35.0718 39.6998 29.4518 34.9197 30.4718 32.9997C30.3018 32.8497 30.1419 32.6997 30.0519 32.6297C21.5719 39.8097 8.60183 28.5998 16.4018 19.8998C22.9718 10.1698 38.2818 20.5498 31.5018 30.2698ZM23.8418 16.5597C12.8818 16.4897 12.6118 33.8198 23.9818 33.7098C35.1718 33.8198 34.9518 16.3197 23.8418 16.5597ZM36.6018 38.8598C40.6518 37.0398 34.7518 34.1497 33.4818 32.1897C32.7918 31.4197 32.1718 32.3298 31.6618 32.8298C30.9118 34.8398 35.2518 37.3298 36.6018 38.8598ZM30.3418 31.6798C30.6418 31.9498 30.9218 32.1997 31.1918 32.4397C31.4818 32.1497 31.7418 31.8797 32.0318 31.5897C31.7618 31.3097 31.4818 31.0197 31.2018 30.7197C30.8918 31.0597 30.6318 31.3598 30.3418 31.6798Z" fill="#F1E0C4"/>
<path d="M16.2619 25.1198C16.1219 16.5398 28.6719 14.7297 31.1119 22.7197C33.2419 27.9197 27.7419 34.4297 22.4719 32.3797C31.6419 33.2997 34.4019 20.3598 25.0819 18.1198C18.3619 16.9598 14.8319 24.9097 18.2819 29.8197C16.7619 29.2697 16.3619 26.6698 16.2619 25.1198Z" fill="#F1E0C4"/>
<path d="M26.6918 20.9898C26.4518 27.2198 21.0318 27.0997 21.3318 20.8097C21.6118 18.1997 26.8818 17.7398 26.6718 20.9898C26.6818 20.9898 26.6818 20.9898 26.6918 20.9898ZM22.0418 22.4997C22.3018 27.3197 27.7418 24.2598 24.7918 21.1798C24.0718 21.9098 23.1518 22.3697 22.0418 22.4997ZM25.7818 21.8197C25.8618 21.8097 25.9318 21.7897 26.0118 21.7797C26.5818 20.2497 24.9318 18.2998 23.5018 19.6498C22.9818 19.9298 22.1818 19.5697 22.0218 20.3597C21.2618 23.1497 24.2118 21.2597 24.9918 20.0097C25.4318 20.5297 25.5318 21.2097 25.7818 21.8197Z" fill="#F1E0C4"/>
<path d="M23.7619 30.1398C14.2219 31.2698 21.8819 24.2898 26.2019 26.4598C30.9119 29.9998 27.5519 30.2398 23.7619 30.1398ZM27.8919 29.4598C27.6819 28.2298 26.5619 27.0797 25.4219 26.8197C24.5919 27.7997 23.7018 27.7897 22.7518 26.7797C21.3918 27.2397 20.3518 28.0798 19.6818 29.4598C22.4618 29.4598 25.1519 29.4598 27.8919 29.4598ZM23.4618 26.6098C23.8618 27.0698 24.4118 27.0698 24.7518 26.6098C24.3118 26.6098 23.9018 26.6098 23.4618 26.6098Z" fill="#F1E0C4"/>
<defs>
<linearGradient id="paint0_linear_2844_2836" x1="14.1148" y1="5.97248" x2="40.492" y2="50.643" gradientUnits="userSpaceOnUse">
<stop offset="0.00446886" stop-color="#F48385"/>
<stop offset="1" stop-color="#A21D21"/>
</linearGradient>
</defs>
</svg>
