<svg width="56" height="56" viewBox="0 0 56 56" fill="none" xmlns="http://www.w3.org/2000/svg">
<path d="M28.2953 55.3002C43.5163 55.3002 55.8553 42.9611 55.8553 27.7402C55.8553 12.5192 43.5163 0.180176 28.2953 0.180176C13.0744 0.180176 0.735352 12.5192 0.735352 27.7402C0.735352 42.9611 13.0744 55.3002 28.2953 55.3002Z" fill="url(#paint0_linear_2844_2837)"/>
<path d="M29.81 26.39C30.59 26.39 31.33 26.39 32.06 26.38C32.16 26.38 32.29 26.33 32.36 26.26C33.1 25.54 33.83 24.81 34.56 24.09C34.21 23.81 33.85 23.6 33.58 23.31C32.78 22.47 32.78 21.41 32.92 20.35C33.11 18.85 34.42 17.86 35.91 18.07C37.1 18.24 38.0899 19.26 38.1199 20.46C38.1399 21.14 38.07 21.84 37.94 22.51C37.87 22.86 37.5799 23.17 37.3699 23.52C38.0999 23.94 38.2 24.67 38.14 25.49C38.75 25.49 39.31 25.49 39.91 25.49C39.91 25.69 39.91 25.84 39.91 25.99C39.91 27.56 39.86 29.14 39.92 30.71C39.99 32.37 39.19 33.78 37.32 34.27C37.43 35.43 37.55 36.6 37.67 37.8C39.31 37.8 40.8899 37.8 42.5099 37.8C42.5099 38.09 42.5099 38.35 42.5099 38.65C33.4699 38.65 24.41 38.65 15.33 38.65C15.33 38.4 15.33 38.14 15.33 37.82C16.61 37.82 17.89 37.82 19.2 37.82C19.2 35.45 19.2 33.14 19.2 30.79C18.93 30.78 18.67 30.77 18.38 30.75C18.38 29.88 18.38 29.04 18.38 28.14C18.95 28.14 19.52 28.14 20.14 28.14C20.14 27.57 20.13 27.05 20.14 26.53C20.15 25.68 20.59 25.07 21.4 24.82C21.84 24.68 22.29 24.56 22.74 24.43C23.25 24.29 23.3899 23.77 23.0399 23.35C22.2299 22.4 22.04 20.56 22.65 19.43C23.2 18.41 24.39 17.85 25.49 18.09C26.66 18.34 27.52 19.32 27.57 20.51C27.59 21.07 27.61 21.66 27.49 22.2C27.4 22.61 27.09 22.96 26.88 23.34C26.81 23.47 26.74 23.61 26.71 23.75C26.63 24.15 26.78 24.38 27.2 24.44C27.52 24.49 27.82 24.63 28.14 24.7C29.07 24.9 29.65 25.41 29.81 26.39ZM31.53 37.81C31.53 36.02 31.53 34.3 31.53 32.53C28.46 32.53 25.42 32.53 22.37 32.53C22.37 32.22 22.37 31.96 22.37 31.65C25.44 31.65 28.48 31.65 31.53 31.65C31.53 31.34 31.53 31.08 31.53 30.81C27.73 30.81 23.95 30.81 20.18 30.81C20.18 31.1 20.18 31.37 20.18 31.68C20.61 31.68 21.02 31.68 21.41 31.68C21.41 31.99 21.41 32.25 21.41 32.56C20.98 32.56 20.57 32.56 20.17 32.56C20.17 34.33 20.17 36.05 20.17 37.82C20.35 37.82 20.51 37.8 20.65 37.82C21.06 37.89 21.27 37.7 21.41 37.34C21.54 37.01 21.73 36.71 21.87 36.39C21.98 36.14 22.12 36.04 22.41 36.05C24.69 36.06 26.9799 36.06 29.2599 36.05C29.5199 36.05 29.67 36.11 29.78 36.36C29.96 36.77 30.17 37.18 30.39 37.57C30.45 37.67 30.58 37.79 30.69 37.8C30.97 37.84 31.23 37.81 31.53 37.81ZM21.01 28.11C23.1 28.11 25.15 28.11 27.2299 28.11C27.0799 27.59 27.16 27.1 27.56 26.81C27.92 26.54 28.4 26.43 28.83 26.25C28.74 25.91 28.6599 25.8 28.2599 25.67C27.7399 25.5 27.2099 25.35 26.6799 25.21C26.5799 25.18 26.41 25.25 26.33 25.32C25.42 26.15 24.5099 26.16 23.6199 25.33C23.5299 25.25 23.37 25.17 23.27 25.2C22.74 25.33 22.21 25.5 21.68 25.66C21.24 25.79 21.03 26.1 21.01 26.54C21 27.04 21.01 27.55 21.01 28.11ZM33.77 30.78C33.3 30.78 32.88 30.78 32.44 30.78C32.44 31.08 32.44 31.34 32.44 31.65C33.6 31.65 34.73 31.66 35.86 31.65C36.76 31.64 37.2599 31.11 37.2599 30.2C37.2599 28.64 37.2599 27.08 37.2599 25.52C37.2599 25.4 37.2599 25.29 37.2599 25.17C36.9699 25.5 36.72 25.8 36.45 26.08C35.64 26.9 34.82 27.7 34.02 28.53C33.88 28.67 33.79 28.91 33.78 29.11C33.75 29.63 33.77 30.17 33.77 30.78ZM32.84 29.01C32.65 29.01 32.49 29.01 32.32 29.01C28.21 29.01 24.1 29.01 19.98 29.01C19.15 29.01 19.15 29.01 19.26 29.83C19.26 29.85 19.3 29.87 19.31 29.89C23.82 29.89 28.32 29.89 32.84 29.89C32.84 29.59 32.84 29.33 32.84 29.01ZM26.7599 21.13C26.7499 21.13 26.73 21.13 26.72 21.12C26.72 20.96 26.72 20.81 26.72 20.65C26.7 19.78 26.08 19.05 25.25 18.93C24.36 18.8 23.52 19.31 23.31 20.19C23.2 20.65 23.22 21.14 23.22 21.62C23.23 22.42 23.8599 23.13 24.6199 23.27C25.4699 23.42 26.33 22.96 26.59 22.16C26.71 21.84 26.7099 21.48 26.7599 21.13ZM33.6499 21.06C33.6899 21.07 33.73 21.09 33.77 21.1C33.77 21.27 33.77 21.44 33.77 21.61C33.8 22.53 34.5099 23.26 35.3999 23.29C36.3999 23.32 37.19 22.65 37.25 21.7C37.28 21.31 37.28 20.91 37.25 20.51C37.2 19.77 36.6799 19.18 35.9299 18.97C35.2699 18.79 34.46 19.04 34.11 19.65C33.88 20.07 33.7999 20.59 33.6499 21.06ZM38.14 26.42C38.14 26.59 38.14 26.75 38.14 26.9C38.14 27.99 38.15 29.08 38.14 30.18C38.12 31.67 37.23 32.54 35.74 32.55C34.79 32.56 33.84 32.55 32.89 32.55C32.74 32.55 32.59 32.56 32.44 32.57C32.44 32.87 32.44 33.12 32.44 33.4C32.6 33.41 32.7399 33.42 32.8699 33.42C34.1199 33.42 35.37 33.42 36.61 33.42C38.12 33.42 39.0299 32.5 39.0399 30.98C39.0399 29.59 39.0399 28.2 39.0399 26.81C39.0399 26.69 39.03 26.56 39.02 26.43C38.73 26.42 38.46 26.42 38.14 26.42ZM32.45 34.28C32.45 35.48 32.45 36.62 32.45 37.78C33.32 37.78 34.16 37.78 35.02 37.78C34.91 36.67 34.81 35.6 34.69 34.54C34.68 34.45 34.53 34.3 34.44 34.3C33.79 34.27 33.14 34.28 32.45 34.28ZM30.74 28.13C31.43 28.13 32.13 28.14 32.82 28.12C33 28.11 33.21 28.04 33.34 27.92C34.27 27.01 35.19 26.08 36.11 25.16C36.35 24.92 36.52 24.67 36.25 24.35C36.04 24.1 35.73 24.15 35.41 24.47C34.56 25.32 33.71 26.18 32.85 27.01C32.71 27.15 32.47 27.25 32.27 27.25C31.05 27.27 29.8299 27.26 28.6199 27.26C28.3099 27.26 28.07 27.34 28.07 27.69C28.07 28.05 28.3099 28.12 28.6199 28.12C29.3299 28.13 30.04 28.13 30.74 28.13ZM22.18 37.79C24.65 37.79 27.0499 37.79 29.5099 37.79C29.3799 37.52 29.2899 37.29 29.1499 37.08C29.0999 37 28.95 36.92 28.85 36.92C26.85 36.91 24.86 36.91 22.86 36.92C22.75 36.92 22.59 37.01 22.53 37.1C22.4 37.3 22.31 37.53 22.18 37.79ZM36.77 37.79C36.76 37.59 36.76 37.41 36.74 37.23C36.67 36.5 36.5599 35.77 36.5099 35.04C36.4499 34.22 36.46 34.21 35.64 34.31C35.63 34.31 35.62 34.32 35.57 34.36C35.68 35.48 35.8 36.63 35.92 37.8C36.21 37.79 36.47 37.79 36.77 37.79ZM24.09 24.12C23.97 24.52 24.2299 24.74 24.5399 24.94C24.8699 25.15 25.19 25.1 25.49 24.88C25.76 24.68 25.98 24.45 25.83 24.13C25.25 24.12 24.69 24.12 24.09 24.12Z" fill="#F1E0C4"/>
<path d="M36.3799 15.85C35.9199 15.85 35.4999 15.85 35.0799 15.85C34.2399 15.85 33.4099 15.83 32.5699 15.86C32.3099 15.87 32.0199 15.98 31.8199 16.13C30.8699 16.89 29.9399 17.68 28.9399 18.51C28.9399 17.58 28.9399 16.73 28.9399 15.84C27.8999 15.84 26.9099 15.84 25.8899 15.84C25.8899 14.36 25.8899 12.93 25.8899 11.46C29.3699 11.46 32.8599 11.46 36.3799 11.46C36.3799 12.92 36.3799 14.35 36.3799 15.85ZM29.8099 14.94C29.8099 15.52 29.8099 16.03 29.8099 16.64C30.2199 16.3 30.5799 16.05 30.8799 15.74C31.4999 15.09 32.2099 14.83 33.1099 14.92C33.8899 15 34.6899 14.94 35.4799 14.94C35.4799 14.05 35.4799 13.2 35.4799 12.35C32.5499 12.35 29.6599 12.35 26.7499 12.35C26.7499 13.22 26.7499 14.07 26.7499 14.94C27.7599 14.94 28.7499 14.94 29.8099 14.94Z" fill="#F1E0C4"/>
<path d="M32.8399 14.06C31.6899 14.06 30.5599 14.06 29.3899 14.06C29.3899 13.8 29.3899 13.54 29.3899 13.25C30.5299 13.25 31.6699 13.25 32.8399 13.25C32.8399 13.52 32.8399 13.78 32.8399 14.06Z" fill="#F1E0C4"/>
<path d="M28.4699 14.07C28.1799 14.07 27.9299 14.07 27.6399 14.07C27.6399 13.8 27.6399 13.55 27.6399 13.26C27.8999 13.26 28.1699 13.26 28.4699 13.26C28.4699 13.51 28.4699 13.77 28.4699 14.07Z" fill="#F1E0C4"/>
<path d="M33.7999 14.06C33.7999 13.78 33.7999 13.52 33.7999 13.24C34.0799 13.24 34.3399 13.24 34.6199 13.24C34.6199 13.52 34.6199 13.78 34.6199 14.06C34.3299 14.06 34.0799 14.06 33.7999 14.06Z" fill="#F1E0C4"/>
<defs>
<linearGradient id="paint0_linear_2844_2837" x1="15.3753" y1="6.58223" x2="44.095" y2="53.6294" gradientUnits="userSpaceOnUse">
<stop offset="0.00446914" stop-color="#F6AE2A"/>
<stop offset="1" stop-color="#9D6A28"/>
</linearGradient>
</defs>
</svg>
