<svg width="52" height="52" viewBox="0 0 52 52" fill="none" xmlns="http://www.w3.org/2000/svg">
<path d="M26.4 51.46C40.5385 51.46 52 39.9985 52 25.86C52 11.7215 40.5385 0.26001 26.4 0.26001C12.2615 0.26001 0.800049 11.7215 0.800049 25.86C0.800049 39.9985 12.2615 51.46 26.4 51.46Z" fill="url(#paint0_linear_2844_2838)"/>
<path d="M18.42 27.15C18.42 24.37 18.42 21.58 18.42 18.8C18.42 18.04 18.63 17.84 19.4 17.84C23.88 17.84 28.36 17.84 32.84 17.84C33.52 17.84 33.72 18.04 33.72 18.73C33.72 22.34 33.72 25.96 33.72 29.57C33.72 29.84 33.8 30.02 34 30.21C35.72 31.85 36.3 33.86 35.68 36.13C35.05 38.42 33.56 39.93 31.2 40.45C28.29 41.09 25.47 39.58 24.35 36.83C24.26 36.6 24.15 36.54 23.91 36.54C22.37 36.55 20.83 36.55 19.29 36.55C18.67 36.55 18.43 36.31 18.43 35.69C18.42 32.84 18.42 30 18.42 27.15ZM19.77 35.19C21.17 35.19 22.54 35.19 23.9 35.19C23.77 32.91 24.58 31.06 26.43 29.75C28.27 28.44 30.28 28.23 32.38 29.12C32.38 25.79 32.38 22.5 32.38 19.22C28.16 19.22 23.97 19.22 19.77 19.22C19.77 24.54 19.77 29.84 19.77 35.19ZM29.89 39.25C32.43 39.32 34.57 37.12 34.56 34.67C34.55 31.97 32.56 29.93 29.9 29.95C27.24 29.98 25.29 31.86 25.24 34.64C25.2 37.16 27.34 39.25 29.89 39.25Z" fill="#F1E0C4"/>
<path d="M17.13 27.33C17.13 29.06 17.14 30.79 17.12 32.52C17.12 32.78 17.07 33.06 16.97 33.31C16.6 34.24 16.2 35.16 15.82 36.09C15.69 36.39 15.53 36.62 15.16 36.63C14.77 36.63 14.6 36.4 14.47 36.08C14.18 35.36 13.89 34.63 13.56 33.93C13.23 33.24 13.13 32.53 13.13 31.77C13.15 28.55 13.14 25.33 13.14 22.1C13.14 21.1 13.71 20.34 14.65 20.08C15.83 19.75 17.11 20.68 17.12 21.9C17.14 23.71 17.13 25.52 17.13 27.33ZM15.79 23.97C15.34 23.97 14.92 23.97 14.51 23.97C14.51 26.7 14.51 29.39 14.51 32.1C14.94 32.1 15.35 32.1 15.79 32.1C15.79 29.39 15.79 26.69 15.79 23.97ZM15.8 22.59C15.81 22.15 15.91 21.73 15.48 21.45C15.23 21.29 14.98 21.32 14.76 21.48C14.36 21.77 14.51 22.19 14.5 22.59C14.94 22.59 15.35 22.59 15.8 22.59ZM15.46 33.45C15.23 33.45 15.05 33.45 14.82 33.45C14.93 33.71 15.03 33.94 15.16 34.24C15.27 33.93 15.36 33.71 15.46 33.45Z" fill="#F1E0C4"/>
<path d="M26.08 24.52C24.72 24.52 23.35 24.52 21.99 24.52C21.82 24.52 21.63 24.5 21.47 24.43C21.2 24.32 21.09 24.08 21.11 23.8C21.13 23.51 21.27 23.31 21.55 23.22C21.66 23.19 21.78 23.18 21.9 23.18C24.68 23.18 27.47 23.18 30.25 23.18C30.55 23.18 30.82 23.24 30.97 23.53C31.1 23.77 31.11 24.05 30.91 24.22C30.72 24.38 30.44 24.51 30.2 24.51C28.83 24.53 27.46 24.52 26.08 24.52Z" fill="#F1E0C4"/>
<path d="M26.05 21.82C24.66 21.82 23.28 21.82 21.89 21.82C21.4 21.82 21.12 21.6 21.11 21.2C21.09 20.78 21.37 20.51 21.87 20.51C24.68 20.51 27.48 20.51 30.29 20.51C30.62 20.51 30.89 20.61 31.01 20.96C31.11 21.24 31.04 21.49 30.83 21.66C30.69 21.76 30.49 21.82 30.31 21.82C28.89 21.83 27.47 21.82 26.05 21.82Z" fill="#F1E0C4"/>
<path d="M26.08 27.16C24.68 27.16 23.29 27.16 21.89 27.16C21.4 27.16 21.12 26.94 21.11 26.54C21.09 26.12 21.37 25.85 21.87 25.85C24.68 25.85 27.48 25.85 30.29 25.85C30.64 25.85 30.91 25.97 31.03 26.33C31.12 26.61 31.03 26.86 30.81 27.02C30.68 27.11 30.48 27.16 30.32 27.16C28.9 27.16 27.49 27.16 26.08 27.16Z" fill="#F1E0C4"/>
<path d="M22.8501 28.51C23.1801 28.51 23.5101 28.5 23.8501 28.51C24.2501 28.52 24.5501 28.79 24.5701 29.15C24.5801 29.5 24.29 29.84 23.9 29.85C23.19 29.87 22.48 29.87 21.77 29.85C21.36 29.84 21.11 29.52 21.12 29.15C21.13 28.77 21.4 28.52 21.83 28.51C22.16 28.5 22.5101 28.51 22.8501 28.51Z" fill="#F1E0C4"/>
<path d="M29.47 35.15C30.12 34.32 30.75 33.5 31.41 32.7C31.53 32.55 31.71 32.42 31.88 32.37C32.15 32.29 32.4 32.39 32.55 32.64C32.71 32.91 32.7 33.18 32.51 33.43C32 34.09 31.48 34.75 30.96 35.41C30.65 35.8 30.35 36.19 30.04 36.58C29.71 36.99 29.27 37.01 28.92 36.61C28.49 36.12 28.07 35.63 27.65 35.13C27.36 34.79 27.38 34.41 27.67 34.15C27.97 33.88 28.37 33.93 28.67 34.27C28.91 34.54 29.14 34.81 29.37 35.07C29.37 35.1 29.4 35.11 29.47 35.15Z" fill="#F1E0C4"/>
<defs>
<linearGradient id="paint0_linear_2844_2838" x1="14.406" y1="6.20218" x2="41.081" y2="49.8996" gradientUnits="userSpaceOnUse">
<stop offset="0.00446914" stop-color="#7EC460"/>
<stop offset="1" stop-color="#3A6C34"/>
</linearGradient>
</defs>
</svg>
