<svg width="54" height="54" viewBox="0 0 54 54" fill="none" xmlns="http://www.w3.org/2000/svg">
<path d="M26.602 53.9803C41.2707 53.9803 53.162 42.089 53.162 27.4203C53.162 12.7517 41.2707 0.860352 26.602 0.860352C11.9333 0.860352 0.0419922 12.7517 0.0419922 27.4203C0.0419922 42.089 11.9333 53.9803 26.602 53.9803Z" fill="url(#paint0_linear_2844_2839)"/>
<path d="M32.9876 27.3975C32.0876 26.5075 31.2476 25.6876 30.4176 24.8576C28.7576 23.2076 27.1076 21.5475 25.4576 19.8975C24.9276 19.3675 24.9276 19.1675 25.4576 18.6375C26.5476 17.5475 27.6276 16.4676 28.7176 15.3776C29.1876 14.9076 29.4076 14.9076 29.8776 15.3776C33.6876 19.1776 37.4876 22.9876 41.2976 26.7976C41.7876 27.2876 41.7876 27.4876 41.2876 27.9776C37.4976 31.7776 33.6976 35.5676 29.9076 39.3676C29.4076 39.8676 29.2076 39.8676 28.7176 39.3776C27.6176 38.2776 26.5276 37.1875 25.4276 36.0875C24.9476 35.6075 24.9476 35.3775 25.4376 34.8975C27.7776 32.5575 30.1176 30.2176 32.4576 27.8776C32.5876 27.7276 32.7576 27.5975 32.9876 27.3975ZM29.3076 16.5275C28.3776 17.4375 27.4176 18.3675 26.4576 19.3175C28.9276 21.7875 31.4076 24.2576 33.8876 26.7376C34.4376 27.2876 34.4376 27.4775 33.8876 28.0275C31.8776 30.0375 29.8576 32.0575 27.8476 34.0675C27.3776 34.5375 26.8876 34.9876 26.4476 35.4076C26.9676 35.9376 27.4276 36.4176 27.9776 36.9876C28.0676 36.8576 28.1376 36.7075 28.2476 36.5875C28.9876 35.8375 29.7376 35.0876 30.4976 34.3476C30.7476 34.1076 31.0476 34.0775 31.2876 34.3275C31.5276 34.5775 31.5076 34.8676 31.2676 35.1276C31.1776 35.2276 31.0776 35.3176 30.9876 35.4176C30.2176 36.1776 29.4376 36.9376 28.6276 37.7376C28.8776 37.9676 29.0776 38.1476 29.2576 38.3076C32.9076 34.6576 36.5576 31.0175 40.1776 27.3975C36.5576 23.7675 32.9076 20.1175 29.3076 16.5275Z" fill="#F1E0C4"/>
<path d="M28.1875 27.3175C27.1075 26.2375 25.9975 25.1375 24.8975 24.0275C24.7675 23.8975 24.6475 23.7776 24.5475 23.6276C24.3775 23.3776 24.4375 23.0975 24.6675 22.9575C24.8375 22.8575 25.0975 22.8875 25.3175 22.9075C25.4175 22.9175 25.4975 23.0475 25.5875 23.1375C26.8075 24.3575 28.0375 25.5876 29.2575 26.8076C29.7075 27.2576 29.7075 27.4775 29.2575 27.9275C25.4375 31.7475 21.6275 35.5576 17.8075 39.3776C17.3475 39.8376 17.1275 39.8376 16.6475 39.3676C15.5575 38.2876 14.4775 37.1975 13.3875 36.1075C12.8775 35.5975 12.8775 35.3875 13.3775 34.8875C15.7275 32.5375 18.0775 30.1775 20.4375 27.8275C20.5775 27.6875 20.7275 27.5775 20.9175 27.4075C20.7575 27.2375 20.6375 27.1075 20.5175 26.9875C18.1575 24.6275 15.7975 22.2575 13.4275 19.8975C12.8575 19.3275 12.8575 19.1475 13.4275 18.5775C14.4875 17.5075 15.5575 16.4476 16.6175 15.3776C17.1275 14.8676 17.3275 14.8775 17.8375 15.3875C19.2775 16.8175 20.7075 18.2576 22.1375 19.6876C22.2275 19.7776 22.3775 19.8775 22.3875 19.9875C22.4075 20.1975 22.4175 20.4976 22.2975 20.6176C22.1775 20.7476 21.8775 20.7475 21.6675 20.7175C21.5275 20.6975 21.4075 20.5275 21.2975 20.4175C20.0775 19.1975 18.8475 17.9776 17.6375 16.7476C17.5175 16.6176 17.4275 16.4575 17.3375 16.3275C16.3075 17.3675 15.3675 18.3176 14.3175 19.3676C14.4375 19.4476 14.6175 19.5175 14.7375 19.6375C17.1075 21.9975 19.4675 24.3575 21.8275 26.7175C22.3675 27.2575 22.3675 27.4375 21.8375 27.9675C19.4775 30.3275 17.1175 32.6975 14.7475 35.0475C14.6175 35.1675 14.4575 35.2575 14.3275 35.3475C15.3675 36.3775 16.3175 37.3175 17.2375 38.2375C20.8475 34.6575 24.4975 31.0075 28.1875 27.3175Z" fill="#F1E0C4"/>
<path d="M23.6376 21.2575C23.7876 21.4575 23.9976 21.6476 24.0776 21.8676C24.1576 22.1276 23.8076 22.4376 23.5276 22.4376C23.2376 22.4376 22.9676 22.1475 22.9776 21.8575C22.9876 21.5675 23.2476 21.3275 23.6376 21.2575Z" fill="#F1E0C4"/>
<path d="M32.3175 32.7675C32.4675 32.9775 32.6775 33.1675 32.7475 33.3975C32.8275 33.6575 32.4775 33.9975 32.1975 33.9675C31.8775 33.9375 31.6775 33.7375 31.6475 33.4175C31.6175 33.1375 31.9275 32.8375 32.3175 32.7675Z" fill="#F1E0C4"/>
<defs>
<linearGradient id="paint0_linear_2844_2839" x1="14.1561" y1="7.02146" x2="41.8387" y2="52.3693" gradientUnits="userSpaceOnUse">
<stop offset="0.00446859" stop-color="#667EB7"/>
<stop offset="1" stop-color="#42588C"/>
</linearGradient>
</defs>
</svg>
